SplineFontDB: 3.2
FontName: Reijima-LightItalic
FullName: Reijima Light Italic
FamilyName: Reijima Light
Weight: Light
Copyright: Copyright (c) 2019 by Coji Morishita. All rights reserved.
Version: 1.000
ItalicAngle: -9
UnderlinePosition: -100
UnderlineWidth: 50
Ascent: 860
Descent: 140
InvalidEm: 0
sfntRevision: 0x00010000
LayerCount: 2
Layer: 0 1 "Back" 1
Layer: 1 1 "Fore" 0
XUID: [1021 531 -1996577725 3224307]
StyleMap: 0x0001
FSType: 8
OS2Version: 4
OS2_WeightWidthSlopeOnly: 0
OS2_UseTypoMetrics: 1
CreationTime: 1575364793
ModificationTime: 1707368731
PfmFamily: 81
TTFWeight: 300
TTFWidth: 5
LineGap: 0
VLineGap: 1000
Panose: 0 0 4 0 0 0 0 0 0 0
OS2TypoAscent: 960
OS2TypoAOffset: 0
OS2TypoDescent: -230
OS2TypoDOffset: 0
OS2TypoLinegap: 200
OS2WinAscent: 1060
OS2WinAOffset: 0
OS2WinDescent: 330
OS2WinDOffset: 0
HheadAscent: 1060
HheadAOffset: 0
HheadDescent: -330
HheadDOffset: 0
OS2SubXSize: 650
OS2SubYSize: 600
OS2SubXOff: 0
OS2SubYOff: 75
OS2SupXSize: 650
OS2SupYSize: 600
OS2SupXOff: 0
OS2SupYOff: 350
OS2StrikeYSize: 50
OS2StrikeYPos: 312
OS2CapHeight: 730
OS2XHeight: 520
OS2Vendor: 'M+  '
OS2CodePages: 0000019f.00000000
OS2UnicodeRanges: a00002ff.4000004b.00000000.00000000
Lookup: 1 0 0 "'aalt' Access All Alternates in Latin lookup 0" { "'aalt' Access All Alternates in Latin lookup 0 subtable"  } ['aalt' ('DFLT' <'dflt' > 'latn' <'AZE ' 'CAT ' 'CRT ' 'KAZ ' 'MOL ' 'ROM ' 'TAT ' 'TRK ' 'dflt' > ) ]
Lookup: 3 0 0 "'aalt' Access All Alternates in Latin lookup 1" { "'aalt' Access All Alternates in Latin lookup 1 subtable"  } ['aalt' ('DFLT' <'dflt' > 'latn' <'AZE ' 'CAT ' 'CRT ' 'KAZ ' 'MOL ' 'ROM ' 'TAT ' 'TRK ' 'dflt' > ) ]
Lookup: 6 0 0 "'ccmp' Glyph Composition/Decomposition in Latin lookup 2" { "'ccmp' Glyph Composition/Decomposition in Latin lookup 2 contextual 0"  "'ccmp' Glyph Composition/Decomposition in Latin lookup 2 contextual 1"  } ['ccmp' ('DFLT' <'dflt' > 'latn' <'AZE ' 'CAT ' 'CRT ' 'KAZ ' 'MOL ' 'ROM ' 'TAT ' 'TRK ' 'dflt' > ) ]

StartChar: .notdef
Encoding: 1114112 -1 0
Width: 477
Flags: W
LayerCount: 2
Fore
SplineSet
328 -140 m 1,0,-1
 17 -140 l 1,1,-1
 176 860 l 1,2,-1
 487 860 l 1,3,-1
 328 -140 l 1,0,-1
239 793 m 1,4,-1
 234 760 l 1,5,-1
 297 760 l 1,6,-1
 291 723 l 1,7,-1
 227 723 l 1,8,-1
 221 690 l 1,9,-1
 384 690 l 1,10,-1
 389 723 l 1,11,-1
 325 723 l 1,12,-1
 331 760 l 1,13,-1
 395 760 l 1,14,-1
 400 793 l 1,15,-1
 239 793 l 1,4,-1
217 664 m 1,16,-1
 201 560 l 1,17,-1
 364 560 l 1,18,-1
 369 594 l 1,19,-1
 304 594 l 1,20,-1
 315 664 l 1,21,-1
 217 664 l 1,16,-1
271 594 m 1,22,-1
 239 594 l 1,23,-1
 244 630 l 1,24,-1
 277 630 l 1,25,-1
 271 594 l 1,22,-1
197 533 m 1,26,-1
 191 500 l 1,27,-1
 256 500 l 1,28,-1
 250 463 l 1,29,-1
 185 463 l 1,30,-1
 180 430 l 1,31,-1
 278 430 l 1,32,-1
 289 500 l 1,33,-1
 354 500 l 1,34,-1
 359 533 l 1,35,-1
 197 533 l 1,26,-1
317 473 m 1,36,-1
 307 407 l 1,37,-1
 177 407 l 1,38,-1
 171 373 l 1,39,-1
 334 373 l 1,40,-1
 350 473 l 1,41,-1
 317 473 l 1,36,-1
232 351 m 1,42,-1
 224 295 l 1,43,-1
 257 295 l 1,44,-1
 261 318 l 1,45,-1
 293 318 l 1,46,-1
 285 271 l 1,47,-1
 187 271 l 1,48,-1
 200 351 l 1,49,-1
 168 351 l 1,50,-1
 150 238 l 1,51,-1
 313 238 l 1,52,-1
 330 351 l 1,53,-1
 232 351 l 1,42,-1
140 178 m 1,54,-1
 122 65 l 1,55,-1
 285 65 l 1,56,-1
 303 178 l 1,57,-1
 140 178 l 1,54,-1
258 98 m 1,58,-1
 160 98 l 1,59,-1
 167 145 l 1,60,-1
 265 145 l 1,61,-1
 258 98 l 1,58,-1
119 42 m 1,62,-1
 114 9 l 1,63,-1
 182 9 l 1,64,-1
 106 -38 l 1,65,-1
 101 -71 l 1,66,-1
 264 -71 l 1,67,-1
 269 -38 l 1,68,-1
 169 -38 l 1,69,-1
 245 9 l 1,70,-1
 276 9 l 1,71,-1
 281 42 l 1,72,-1
 119 42 l 1,62,-1
EndSplineSet
EndChar

StartChar: A
Encoding: 65 65 2
Width: 641
GlyphClass: 2
Flags: W
AnchorPoint: "Anchor-6" 283 730 basechar 0
AnchorPoint: "Anchor-5" 595 0 basechar 0
AnchorPoint: "Anchor-4" 283 0 basechar 0
LayerCount: 2
Fore
SplineSet
527 0 m 1,0,-1
 481 219 l 1,1,-1
 138 219 l 1,2,-1
 23 0 l 1,3,-1
 -30 0 l 1,4,-1
 357 730 l 1,5,-1
 425 730 l 1,6,-1
 581 0 l 1,7,-1
 527 0 l 1,0,-1
163 266 m 1,8,-1
 472 266 l 1,9,-1
 385 686 l 1,10,-1
 383 686 l 1,11,-1
 163 266 l 1,8,-1
EndSplineSet
Substitution2: "Single Substitution lookup 21 subtable" ordfeminine
Substitution2: "'aalt' Access All Alternates in Latin lookup 0 subtable" ordfeminine
EndChar

StartChar: uni1EB2
Encoding: 7858 7858 8
Width: 641
GlyphClass: 2
Flags: W
AnchorPoint: "Anchor-6" 287 1095 basechar 0
AnchorPoint: "Anchor-5" 595 0 basechar 0
AnchorPoint: "Anchor-4" 283 0 basechar 0
LayerCount: 2
Fore
SplineSet
488.5 862.5 m 128,-1,1
 523 885 523 885 539 925 c 1,2,-1
 491 925 l 1,3,4
 499 940 499 940 508 964 c 128,-1,5
 517 988 517 988 520 1005 c 0,6,7
 524 1033 524 1033 507 1043 c 128,-1,8
 490 1053 490 1053 437 1053 c 0,9,10
 381 1053 381 1053 317 1037 c 1,11,-1
 317 1078 l 1,12,13
 388 1095 388 1095 453 1095 c 0,14,15
 527 1095 527 1095 553.5 1078.5 c 128,-1,16
 580 1062 580 1062 573 1019 c 0,17,18
 570 1001 570 1001 562.5 977.5 c 128,-1,19
 555 954 555 954 546 934 c 1,20,-1
 594 934 l 1,21,22
 576 873 576 873 523 835.5 c 128,-1,23
 470 798 470 798 402 798 c 256,24,25
 333 798 333 798 292 835.5 c 128,-1,26
 251 873 251 873 253 934 c 1,27,-1
 304 934 l 1,28,29
 305 890 305 890 332.5 865 c 128,-1,30
 360 840 360 840 408 840 c 0,31,0
 454 840 454 840 488.5 862.5 c 128,-1,1
527 0 m 1,32,-1
 481 219 l 1,33,-1
 138 219 l 1,34,-1
 23 0 l 1,35,-1
 -30 0 l 1,36,-1
 357 730 l 1,37,-1
 425 730 l 1,38,-1
 581 0 l 1,39,-1
 527 0 l 1,32,-1
163 266 m 1,40,-1
 472 266 l 1,41,-1
 385 686 l 1,42,-1
 383 686 l 1,43,-1
 163 266 l 1,40,-1
EndSplineSet
EndChar

StartChar: Aogonek
Encoding: 260 260 23
Width: 647
GlyphClass: 2
Flags: W
AnchorPoint: "Anchor-6" 283 730 basechar 0
AnchorPoint: "Anchor-5" 595 0 basechar 0
AnchorPoint: "Anchor-4" 283 0 basechar 0
LayerCount: 2
Fore
SplineSet
635 -198 m 1,0,1
 585 -219 585 -219 529 -219 c 0,2,3
 456 -219 456 -219 428.5 -192.5 c 128,-1,4
 401 -166 401 -166 407 -127 c 0,5,6
 413 -91 413 -91 443.5 -56.5 c 128,-1,7
 474 -22 474 -22 526 9 c 1,8,-1
 481 219 l 1,9,-1
 138 219 l 1,10,-1
 23 0 l 1,11,-1
 -30 0 l 1,12,-1
 357 730 l 1,13,-1
 425 730 l 1,14,-1
 581 0 l 1,15,16
 524 -29 524 -29 491.5 -60.5 c 128,-1,17
 459 -92 459 -92 454 -121 c 0,18,19
 449 -151 449 -151 473.5 -164 c 128,-1,20
 498 -177 498 -177 538 -177 c 0,21,22
 587 -177 587 -177 630 -158 c 1,23,-1
 635 -198 l 1,0,1
163 266 m 1,24,-1
 472 266 l 1,25,-1
 385 686 l 1,26,-1
 383 686 l 1,27,-1
 163 266 l 1,24,-1
EndSplineSet
EndChar

StartChar: Aring
Encoding: 197 197 24
Width: 641
GlyphClass: 2
Flags: W
AnchorPoint: "Anchor-6" 283 907 basechar 0
AnchorPoint: "Anchor-5" 595 0 basechar 0
AnchorPoint: "Anchor-4" 283 0 basechar 0
LayerCount: 2
Fore
SplineSet
481 219 m 1,0,-1
 138 219 l 1,1,-1
 23 0 l 1,2,-1
 -30 0 l 1,3,-1
 350 718 l 1,4,5
 312 731 312 731 292 766 c 128,-1,6
 272 801 272 801 279 845 c 0,7,8
 285 881 285 881 307 911.5 c 128,-1,9
 329 942 329 942 362 960 c 128,-1,10
 395 978 395 978 430 978 c 0,11,12
 466 978 466 978 493 960 c 128,-1,13
 520 942 520 942 533 911.5 c 128,-1,14
 546 881 546 881 540 845 c 0,15,16
 533 800 533 800 502 765 c 128,-1,17
 471 730 471 730 428 718 c 1,18,-1
 581 0 l 1,19,-1
 527 0 l 1,20,-1
 481 219 l 1,0,-1
334.5 779 m 128,-1,22
 357 752 357 752 394 752 c 0,23,24
 432 752 432 752 463.5 779 c 128,-1,25
 495 806 495 806 501 845 c 256,26,27
 507 884 507 884 484.5 911 c 128,-1,28
 462 938 462 938 424 938 c 0,29,30
 387 938 387 938 355.5 911 c 128,-1,31
 324 884 324 884 318 845 c 256,32,21
 312 806 312 806 334.5 779 c 128,-1,22
163 266 m 1,33,-1
 472 266 l 1,34,-1
 385 686 l 1,35,-1
 383 686 l 1,36,-1
 163 266 l 1,33,-1
EndSplineSet
EndChar

StartChar: Aringacute
Encoding: 506 506 25
Width: 641
GlyphClass: 2
Flags: W
AnchorPoint: "Anchor-6" 283 907 basechar 0
AnchorPoint: "Anchor-5" 595 0 basechar 0
AnchorPoint: "Anchor-4" 283 0 basechar 0
LayerCount: 2
Fore
SplineSet
481 219 m 1,0,-1
 138 219 l 1,1,-1
 23 0 l 1,2,-1
 -30 0 l 1,3,-1
 350 718 l 1,4,5
 312 731 312 731 292 766 c 128,-1,6
 272 801 272 801 279 845 c 0,7,8
 284 878 284 878 303 906.5 c 128,-1,9
 322 935 322 935 350 953 c 1,10,-1
 490 1157 l 1,11,-1
 550 1157 l 1,12,-1
 419 978 l 1,13,-1
 430 978 l 2,14,15
 466 978 466 978 493 960 c 128,-1,16
 520 942 520 942 533 911.5 c 128,-1,17
 546 881 546 881 540 845 c 0,18,19
 533 800 533 800 502 765 c 128,-1,20
 471 730 471 730 428 718 c 1,21,-1
 581 0 l 1,22,-1
 527 0 l 1,23,-1
 481 219 l 1,0,-1
334.5 779 m 128,-1,25
 357 752 357 752 394 752 c 0,26,27
 432 752 432 752 463.5 779 c 128,-1,28
 495 806 495 806 501 845 c 256,29,30
 507 884 507 884 484.5 911 c 128,-1,31
 462 938 462 938 424 938 c 0,32,33
 387 938 387 938 355.5 911 c 128,-1,34
 324 884 324 884 318 845 c 256,35,24
 312 806 312 806 334.5 779 c 128,-1,25
163 266 m 1,36,-1
 472 266 l 1,37,-1
 385 686 l 1,38,-1
 383 686 l 1,39,-1
 163 266 l 1,36,-1
EndSplineSet
EndChar

StartChar: AE
Encoding: 198 198 27
Width: 799
GlyphClass: 2
Flags: W
AnchorPoint: "Anchor-6" 402 730 basechar 0
AnchorPoint: "Anchor-4" 402 0 basechar 0
LayerCount: 2
Fore
SplineSet
800 684 m 1,0,-1
 514 684 l 1,1,-1
 471 410 l 1,2,-1
 737 410 l 1,3,-1
 730 365 l 1,4,-1
 463 365 l 1,5,-1
 413 46 l 1,6,-1
 699 46 l 1,7,-1
 692 0 l 1,8,-1
 358 0 l 1,9,-1
 392 219 l 1,10,-1
 158 219 l 1,11,-1
 24 0 l 1,12,-1
 -30 0 l 1,13,-1
 421 730 l 1,14,-1
 807 730 l 1,15,-1
 800 684 l 1,0,-1
187 266 m 1,16,-1
 400 266 l 1,17,-1
 466 687 l 1,18,-1
 445 687 l 1,19,-1
 187 266 l 1,16,-1
EndSplineSet
EndChar

StartChar: B
Encoding: 66 66 29
Width: 602
Flags: W
LayerCount: 2
Fore
SplineSet
532 327.5 m 128,-1,1
 568 281 568 281 556 202 c 0,2,3
 540 99 540 99 459 49.5 c 128,-1,4
 378 0 378 0 226 0 c 2,5,-1
 37 0 l 1,6,-1
 153 730 l 1,7,-1
 341 730 l 2,8,9
 473 730 473 730 531.5 686.5 c 128,-1,10
 590 643 590 643 575 554 c 0,11,12
 565 489 565 489 523.5 448 c 128,-1,13
 482 407 482 407 410 391 c 1,14,-1
 410 389 l 1,15,0
 496 374 496 374 532 327.5 c 128,-1,1
194 684 m 1,16,-1
 151 410 l 1,17,-1
 291 410 l 2,18,19
 400 410 400 410 457 443.5 c 128,-1,20
 514 477 514 477 525 548 c 0,21,22
 536 618 536 618 490 651 c 128,-1,23
 444 684 444 684 334 684 c 2,24,-1
 194 684 l 1,16,-1
427.5 84.5 m 128,-1,26
 493 123 493 123 506 205 c 0,27,28
 519 288 519 288 465 326.5 c 128,-1,29
 411 365 411 365 284 365 c 2,30,-1
 144 365 l 1,31,-1
 93 46 l 1,32,-1
 233 46 l 2,33,25
 362 46 362 46 427.5 84.5 c 128,-1,26
EndSplineSet
EndChar

StartChar: C
Encoding: 67 67 30
Width: 665
GlyphClass: 2
Flags: W
AnchorPoint: "Anchor-6" 335 730 basechar 0
AnchorPoint: "Anchor-4" 335 0 basechar 0
LayerCount: 2
Fore
SplineSet
166 36 m 128,-1,1
 94 82 94 82 65 166.5 c 128,-1,2
 36 251 36 251 54 365 c 256,3,4
 72 479 72 479 128.5 563.5 c 128,-1,5
 185 648 185 648 271 694 c 128,-1,6
 357 740 357 740 464 740 c 0,7,8
 592 740 592 740 678 675 c 1,9,-1
 650 634 l 1,10,11
 569 694 569 694 459 694 c 0,12,13
 367 694 367 694 292 653.5 c 128,-1,14
 217 613 217 613 168 539 c 128,-1,15
 119 465 119 465 103 365 c 256,16,17
 87 265 87 265 112.5 191 c 128,-1,18
 138 117 138 117 200 76.5 c 128,-1,19
 262 36 262 36 354 36 c 0,20,21
 465 36 465 36 565 96 c 1,22,-1
 580 55 l 1,23,24
 474 -10 474 -10 345 -10 c 0,25,0
 238 -10 238 -10 166 36 c 128,-1,1
EndSplineSet
EndChar

StartChar: Ccedilla
Encoding: 199 199 33
Width: 665
GlyphClass: 2
Flags: W
AnchorPoint: "Anchor-6" 335 730 basechar 0
AnchorPoint: "Anchor-4" 335 0 basechar 0
LayerCount: 2
Fore
SplineSet
580 55 m 1,0,1
 482 -4 482 -4 369 -9 c 1,2,3
 433 -67 433 -67 424 -128 c 0,4,5
 418 -167 418 -167 381.5 -193.5 c 128,-1,6
 345 -220 345 -220 273 -220 c 0,7,8
 216 -220 216 -220 172 -199 c 1,9,-1
 189 -159 l 1,10,11
 228 -178 228 -178 276 -178 c 0,12,13
 316 -178 316 -178 345 -165 c 128,-1,14
 374 -152 374 -152 378 -122 c 0,15,16
 382 -94 382 -94 362 -65 c 128,-1,17
 342 -36 342 -36 300 -8 c 1,18,19
 207 1 207 1 146 49.5 c 128,-1,20
 85 98 85 98 61 178.5 c 128,-1,21
 37 259 37 259 54 365 c 0,22,23
 72 479 72 479 128.5 563.5 c 128,-1,24
 185 648 185 648 271 694 c 128,-1,25
 357 740 357 740 464 740 c 0,26,27
 592 740 592 740 678 675 c 1,28,-1
 650 634 l 1,29,30
 569 694 569 694 459 694 c 0,31,32
 367 694 367 694 292 653.5 c 128,-1,33
 217 613 217 613 168 539 c 128,-1,34
 119 465 119 465 103 365 c 256,35,36
 87 265 87 265 112.5 191 c 128,-1,37
 138 117 138 117 200 76.5 c 128,-1,38
 262 36 262 36 354 36 c 0,39,40
 465 36 465 36 565 96 c 1,41,-1
 580 55 l 1,0,1
EndSplineSet
EndChar

StartChar: D
Encoding: 68 68 36
Width: 653
GlyphClass: 2
Flags: W
AnchorPoint: "Anchor-6" 293 730 basechar 0
AnchorPoint: "Anchor-4" 293 0 basechar 0
LayerCount: 2
Fore
SplineSet
321 730 m 2,0,1
 501 730 501 730 578 638 c 128,-1,2
 655 546 655 546 626 365 c 256,3,4
 597 184 597 184 491.5 92 c 128,-1,5
 386 0 386 0 205 0 c 2,6,-1
 37 0 l 1,7,-1
 153 730 l 1,8,-1
 321 730 l 2,0,1
461 125 m 128,-1,10
 550 204 550 204 576 365 c 256,11,12
 602 526 602 526 537.5 605 c 128,-1,13
 473 684 473 684 316 684 c 2,14,-1
 194 684 l 1,15,-1
 93 46 l 1,16,-1
 215 46 l 2,17,9
 372 46 372 46 461 125 c 128,-1,10
EndSplineSet
EndChar

StartChar: Eth
Encoding: 208 208 38
Width: 705
GlyphClass: 2
Flags: W
CounterMasks: 1 e0
AnchorPoint: "Anchor-6" 342 730 basechar 0
AnchorPoint: "Anchor-4" 342 0 basechar 0
LayerCount: 2
Fore
SplineSet
629.5 638 m 128,-1,1
 706 546 706 546 677 365 c 256,2,3
 648 184 648 184 542.5 92 c 128,-1,4
 437 0 437 0 257 0 c 2,5,-1
 89 0 l 1,6,-1
 144 343 l 1,7,-1
 36 343 l 1,8,-1
 43 387 l 1,9,-1
 150 387 l 1,10,-1
 205 730 l 1,11,-1
 372 730 l 2,12,0
 553 730 553 730 629.5 638 c 128,-1,1
513.5 125 m 128,-1,14
 603 204 603 204 628 365 c 256,15,16
 654 526 654 526 589.5 605 c 128,-1,17
 525 684 525 684 368 684 c 2,18,-1
 246 684 l 1,19,-1
 199 387 l 1,20,-1
 447 387 l 1,21,-1
 440 343 l 1,22,-1
 192 343 l 1,23,-1
 144 46 l 1,24,-1
 267 46 l 2,25,13
 424 46 424 46 513.5 125 c 128,-1,14
EndSplineSet
EndChar

StartChar: E
Encoding: 69 69 42
Width: 567
GlyphClass: 2
Flags: W
AnchorPoint: "Anchor-6" 265 730 basechar 0
AnchorPoint: "Anchor-5" 477 0 basechar 0
AnchorPoint: "Anchor-4" 265 0 basechar 0
LayerCount: 2
Fore
SplineSet
153 730 m 1,0,-1
 576 730 l 1,1,-1
 569 684 l 1,2,-1
 194 684 l 1,3,-1
 151 410 l 1,4,-1
 506 410 l 1,5,-1
 498 365 l 1,6,-1
 144 365 l 1,7,-1
 93 46 l 1,8,-1
 468 46 l 1,9,-1
 460 0 l 1,10,-1
 37 0 l 1,11,-1
 153 730 l 1,0,-1
EndSplineSet
EndChar

StartChar: Eogonek
Encoding: 280 280 60
Width: 573
GlyphClass: 2
Flags: W
AnchorPoint: "Anchor-6" 265 730 basechar 0
AnchorPoint: "Anchor-5" 477 0 basechar 0
AnchorPoint: "Anchor-4" 265 0 basechar 0
LayerCount: 2
Fore
SplineSet
514 -198 m 1,0,1
 464 -219 464 -219 408 -219 c 0,2,3
 335 -219 335 -219 307.5 -192.5 c 128,-1,4
 280 -166 280 -166 286 -127 c 0,5,6
 291 -94 291 -94 318 -62 c 128,-1,7
 345 -30 345 -30 391 0 c 1,8,-1
 37 0 l 1,9,-1
 153 730 l 1,10,-1
 576 730 l 1,11,-1
 569 684 l 1,12,-1
 194 684 l 1,13,-1
 151 410 l 1,14,-1
 506 410 l 1,15,-1
 498 365 l 1,16,-1
 144 365 l 1,17,-1
 93 46 l 1,18,-1
 468 46 l 1,19,-1
 460 0 l 1,20,21
 403 -29 403 -29 370.5 -60.5 c 128,-1,22
 338 -92 338 -92 333 -121 c 0,23,24
 328 -151 328 -151 352.5 -164 c 128,-1,25
 377 -177 377 -177 418 -177 c 0,26,27
 467 -177 467 -177 510 -158 c 1,28,-1
 514 -198 l 1,0,1
EndSplineSet
EndChar

StartChar: F
Encoding: 70 70 62
Width: 552
Flags: W
LayerCount: 2
Fore
SplineSet
153 730 m 1,0,-1
 576 730 l 1,1,-1
 569 684 l 1,2,-1
 194 684 l 1,3,-1
 150 405 l 1,4,-1
 505 405 l 1,5,-1
 498 359 l 1,6,-1
 143 359 l 1,7,-1
 86 0 l 1,8,-1
 37 0 l 1,9,-1
 153 730 l 1,0,-1
EndSplineSet
EndChar

StartChar: G
Encoding: 71 71 63
Width: 752
GlyphClass: 2
Flags: W
AnchorPoint: "Anchor-6" 363 730 basechar 0
AnchorPoint: "Anchor-4" 363 0 basechar 0
LayerCount: 2
Fore
SplineSet
703 409 m 1,0,-1
 645 45 l 1,1,2
 589 20 589 20 515.5 5 c 128,-1,3
 442 -10 442 -10 373 -10 c 0,4,5
 255 -10 255 -10 177 35 c 128,-1,6
 99 80 99 80 67 164.5 c 128,-1,7
 35 249 35 249 54 365 c 256,8,9
 72 481 72 481 130.5 565.5 c 128,-1,10
 189 650 189 650 281.5 695 c 128,-1,11
 374 740 374 740 491 740 c 0,12,13
 630 740 630 740 719 679 c 1,14,-1
 692 639 l 1,15,16
 609 694 609 694 484 694 c 0,17,18
 328 694 328 694 227.5 607.5 c 128,-1,19
 127 521 127 521 103 365 c 256,20,21
 78 209 78 209 151 122.5 c 128,-1,22
 224 36 224 36 380 36 c 0,23,24
 437 36 437 36 495.5 47 c 128,-1,25
 554 58 554 58 601 77 c 1,26,-1
 647 364 l 1,27,-1
 361 364 l 1,28,-1
 368 409 l 1,29,-1
 703 409 l 1,0,-1
EndSplineSet
EndChar

StartChar: H
Encoding: 72 72 69
Width: 678
GlyphClass: 2
Flags: W
AnchorPoint: "Anchor-6" 308 730 basechar 0
AnchorPoint: "Anchor-4" 308 0 basechar 0
LayerCount: 2
Fore
SplineSet
618 730 m 1,0,-1
 667 730 l 1,1,-1
 551 0 l 1,2,-1
 502 0 l 1,3,-1
 560 365 l 1,4,-1
 144 365 l 1,5,-1
 86 0 l 1,6,-1
 37 0 l 1,7,-1
 153 730 l 1,8,-1
 202 730 l 1,9,-1
 151 412 l 1,10,-1
 568 412 l 1,11,-1
 618 730 l 1,0,-1
EndSplineSet
EndChar

StartChar: Hbar
Encoding: 294 294 70
Width: 752
GlyphClass: 2
Flags: W
AnchorPoint: "Anchor-6" 341 730 basechar 0
AnchorPoint: "Anchor-4" 341 0 basechar 0
LayerCount: 2
Fore
SplineSet
779 618 m 1,0,-1
 772 574 l 1,1,-1
 679 574 l 1,2,-1
 588 0 l 1,3,-1
 539 0 l 1,4,-1
 597 365 l 1,5,-1
 180 365 l 1,6,-1
 123 0 l 1,7,-1
 74 0 l 1,8,-1
 164 574 l 1,9,-1
 72 574 l 1,10,-1
 79 618 l 1,11,-1
 171 618 l 1,12,-1
 189 730 l 1,13,-1
 238 730 l 1,14,-1
 220 618 l 1,15,-1
 637 618 l 1,16,-1
 655 730 l 1,17,-1
 704 730 l 1,18,-1
 686 618 l 1,19,-1
 779 618 l 1,0,-1
604 412 m 1,20,-1
 630 574 l 1,21,-1
 213 574 l 1,22,-1
 188 412 l 1,23,-1
 604 412 l 1,20,-1
EndSplineSet
EndChar

StartChar: I
Encoding: 73 73 72
Width: 231
GlyphClass: 2
Flags: W
AnchorPoint: "Anchor-6" 80 730 basechar 0
AnchorPoint: "Anchor-5" 105 0 basechar 0
AnchorPoint: "Anchor-4" 80 0 basechar 0
LayerCount: 2
Fore
SplineSet
161 730 m 1,0,-1
 211 730 l 1,1,-1
 95 0 l 1,2,-1
 45 0 l 1,3,-1
 161 730 l 1,0,-1
EndSplineSet
EndChar

StartChar: Iogonek
Encoding: 302 302 84
Width: 244
GlyphClass: 2
Flags: W
AnchorPoint: "Anchor-6" 80 730 basechar 0
AnchorPoint: "Anchor-5" 105 0 basechar 0
AnchorPoint: "Anchor-4" 80 0 basechar 0
LayerCount: 2
Fore
SplineSet
157 -198 m 1,0,1
 107 -219 107 -219 51 -219 c 0,2,3
 -22 -219 -22 -219 -49.5 -192.5 c 128,-1,4
 -77 -166 -77 -166 -71 -127 c 0,5,6
 -65 -91 -65 -91 -33 -55 c 128,-1,7
 -1 -19 -1 -19 54 13 c 1,8,-1
 168 730 l 1,9,-1
 218 730 l 1,10,-1
 102 0 l 1,11,-1
 103 0 l 1,12,13
 46 -29 46 -29 13.5 -60.5 c 128,-1,14
 -19 -92 -19 -92 -24 -121 c 0,15,16
 -29 -151 -29 -151 -4.5 -164 c 128,-1,17
 20 -177 20 -177 61 -177 c 0,18,19
 110 -177 110 -177 153 -158 c 1,20,-1
 157 -198 l 1,0,1
EndSplineSet
EndChar

StartChar: J
Encoding: 74 74 86
Width: 537
GlyphClass: 2
Flags: W
AnchorPoint: "Anchor-6" 233 730 basechar 0
AnchorPoint: "Anchor-4" 233 0 basechar 0
LayerCount: 2
Fore
SplineSet
63 5 m 128,-1,1
 11 20 11 20 -26 48 c 1,2,-1
 1 90 l 1,3,4
 35 64 35 64 81.5 50 c 128,-1,5
 128 36 128 36 178 36 c 0,6,7
 278 36 278 36 336 96 c 128,-1,8
 394 156 394 156 414 280 c 2,9,-1
 485 730 l 1,10,-1
 534 730 l 1,11,-1
 463 280 l 2,12,13
 440 133 440 133 369 61.5 c 128,-1,14
 298 -10 298 -10 174 -10 c 0,15,0
 115 -10 115 -10 63 5 c 128,-1,1
EndSplineSet
EndChar

StartChar: K
Encoding: 75 75 88
Width: 600
GlyphClass: 2
Flags: W
AnchorPoint: "Anchor-6" 245 730 basechar 0
AnchorPoint: "Anchor-4" 245 0 basechar 0
LayerCount: 2
Fore
SplineSet
153 730 m 1,0,-1
 202 730 l 1,1,-1
 151 410 l 1,2,-1
 153 410 l 1,3,-1
 572 730 l 1,4,-1
 638 730 l 1,5,-1
 190 388 l 1,6,-1
 532 0 l 1,7,-1
 468 0 l 1,8,-1
 146 367 l 1,9,-1
 144 367 l 1,10,-1
 86 0 l 1,11,-1
 37 0 l 1,12,-1
 153 730 l 1,0,-1
EndSplineSet
EndChar

StartChar: L
Encoding: 76 76 90
Width: 562
GlyphClass: 2
Flags: W
AnchorPoint: "Anchor-7" 519 730 basechar 0
AnchorPoint: "Anchor-6" 247 730 basechar 0
AnchorPoint: "Anchor-4" 247 0 basechar 0
LayerCount: 2
Fore
SplineSet
153 730 m 1,0,-1
 203 730 l 1,1,-1
 94 46 l 1,2,-1
 485 46 l 1,3,-1
 478 0 l 1,4,-1
 37 0 l 1,5,-1
 153 730 l 1,0,-1
EndSplineSet
EndChar

StartChar: Lslash
Encoding: 321 321 97
Width: 650
GlyphClass: 2
Flags: W
AnchorPoint: "Anchor-7" 603 730 basechar 0
AnchorPoint: "Anchor-6" 332 730 basechar 0
AnchorPoint: "Anchor-4" 332 0 basechar 0
LayerCount: 2
Fore
SplineSet
182 46 m 1,0,-1
 573 46 l 1,1,-1
 565 0 l 1,2,-1
 124 0 l 1,3,-1
 177 330 l 1,4,-1
 28 267 l 1,5,-1
 17 307 l 1,6,-1
 184 377 l 1,7,-1
 240 730 l 1,8,-1
 290 730 l 1,9,-1
 238 400 l 1,10,-1
 388 463 l 1,11,-1
 398 423 l 1,12,-1
 230 352 l 1,13,-1
 182 46 l 1,0,-1
EndSplineSet
EndChar

StartChar: M
Encoding: 77 77 98
Width: 827
Flags: W
LayerCount: 2
Fore
SplineSet
153 730 m 1,0,-1
 218 730 l 1,1,-1
 400 210 l 1,2,-1
 402 210 l 1,3,-1
 750 730 l 1,4,-1
 816 730 l 1,5,-1
 700 0 l 1,6,-1
 651 0 l 1,7,-1
 756 658 l 1,8,-1
 754 658 l 1,9,-1
 418 155 l 1,10,-1
 368 155 l 1,11,-1
 192 658 l 1,12,-1
 190 658 l 1,13,-1
 86 0 l 1,14,-1
 37 0 l 1,15,-1
 153 730 l 1,0,-1
EndSplineSet
EndChar

StartChar: N
Encoding: 78 78 99
Width: 688
GlyphClass: 2
Flags: W
AnchorPoint: "Anchor-6" 313 730 basechar 0
AnchorPoint: "Anchor-4" 313 0 basechar 0
LayerCount: 2
Fore
SplineSet
153 730 m 1,0,-1
 212 730 l 1,1,-1
 522 73 l 1,2,-1
 524 73 l 1,3,-1
 628 730 l 1,4,-1
 677 730 l 1,5,-1
 561 0 l 1,6,-1
 501 0 l 1,7,-1
 192 657 l 1,8,-1
 190 657 l 1,9,-1
 86 0 l 1,10,-1
 37 0 l 1,11,-1
 153 730 l 1,0,-1
EndSplineSet
EndChar

StartChar: Eng
Encoding: 330 330 104
Width: 688
GlyphClass: 2
Flags: W
AnchorPoint: "Anchor-6" 313 730 basechar 0
AnchorPoint: "Anchor-4" 313 0 basechar 0
LayerCount: 2
Fore
SplineSet
677 730 m 1,0,-1
 553 -49 l 2,1,2
 539 -135 539 -135 497.5 -174.5 c 128,-1,3
 456 -214 456 -214 378 -214 c 0,4,5
 330 -214 330 -214 292 -199 c 1,6,-1
 308 -156 l 1,7,8
 341 -170 341 -170 378 -170 c 0,9,10
 436 -170 436 -170 465.5 -141.5 c 128,-1,11
 495 -113 495 -113 505 -49 c 2,12,-1
 510 -19 l 1,13,-1
 191 653 l 1,14,-1
 189 653 l 1,15,-1
 86 0 l 1,16,-1
 37 0 l 1,17,-1
 153 730 l 1,18,-1
 212 730 l 1,19,-1
 522 77 l 1,20,-1
 524 77 l 1,21,-1
 628 730 l 1,22,-1
 677 730 l 1,0,-1
EndSplineSet
EndChar

StartChar: O
Encoding: 79 79 107
Width: 775
GlyphClass: 2
Flags: W
AnchorPoint: "Anchor-7" 542 690 basechar 0
AnchorPoint: "Anchor-6" 354 730 basechar 0
AnchorPoint: "Anchor-5" 407 0 basechar 0
AnchorPoint: "Anchor-4" 354 0 basechar 0
LayerCount: 2
Fore
SplineSet
166 36.5 m 128,-1,1
 95 83 95 83 65.5 168 c 128,-1,2
 36 253 36 253 54 365 c 256,3,4
 72 477 72 477 128.5 562 c 128,-1,5
 185 647 185 647 270.5 693.5 c 128,-1,6
 356 740 356 740 460 740 c 256,7,8
 564 740 564 740 635 693.5 c 128,-1,9
 706 647 706 647 735.5 562 c 128,-1,10
 765 477 765 477 748 365 c 256,11,12
 730 253 730 253 673.5 168 c 128,-1,13
 617 83 617 83 531 36.5 c 128,-1,14
 445 -10 445 -10 341 -10 c 256,15,0
 237 -10 237 -10 166 36.5 c 128,-1,1
511.5 76.5 m 128,-1,17
 585 117 585 117 634 192 c 128,-1,18
 683 267 683 267 699 365 c 256,19,20
 715 463 715 463 689 538 c 128,-1,21
 663 613 663 613 602.5 653.5 c 128,-1,22
 542 694 542 694 453 694 c 256,23,24
 364 694 364 694 290.5 653.5 c 128,-1,25
 217 613 217 613 167.5 538 c 128,-1,26
 118 463 118 463 103 365 c 256,27,28
 87 267 87 267 112.5 192 c 128,-1,29
 138 117 138 117 198.5 76.5 c 128,-1,30
 259 36 259 36 349 36 c 256,31,16
 438 36 438 36 511.5 76.5 c 128,-1,17
EndSplineSet
Substitution2: "Single Substitution lookup 21 subtable" ordmasculine
Substitution2: "'aalt' Access All Alternates in Latin lookup 0 subtable" ordmasculine
EndChar

StartChar: Ohorn
Encoding: 416 416 123
Width: 787
GlyphClass: 2
Flags: W
AnchorPoint: "Anchor-7" 731 843 basechar 0
AnchorPoint: "Anchor-6" 354 730 basechar 0
AnchorPoint: "Anchor-5" 407 0 basechar 0
AnchorPoint: "Anchor-4" 354 0 basechar 0
LayerCount: 2
Fore
SplineSet
773.5 660 m 128,-1,1
 745 630 745 630 702 628 c 1,2,3
 736 579 736 579 748 512 c 128,-1,4
 760 445 760 445 748 365 c 0,5,6
 730 253 730 253 673.5 168 c 128,-1,7
 617 83 617 83 531 36.5 c 128,-1,8
 445 -10 445 -10 341 -10 c 256,9,10
 237 -10 237 -10 166 36.5 c 128,-1,11
 95 83 95 83 65.5 168 c 128,-1,12
 36 253 36 253 54 365 c 256,13,14
 72 477 72 477 128.5 562 c 128,-1,15
 185 647 185 647 270.5 693.5 c 128,-1,16
 356 740 356 740 460 740 c 0,17,18
 578 740 578 740 655 679 c 0,19,20
 669 672 669 672 689 672 c 0,21,22
 749 672 749 672 761 746 c 0,23,24
 764 768 764 768 764 796.5 c 128,-1,25
 764 825 764 825 759 843 c 1,26,-1
 809 843 l 1,27,28
 819 792 819 792 810 742 c 0,29,0
 802 690 802 690 773.5 660 c 128,-1,1
511.5 76.5 m 128,-1,31
 585 117 585 117 634 192 c 128,-1,32
 683 267 683 267 699 365 c 256,33,34
 715 463 715 463 689 538 c 128,-1,35
 663 613 663 613 602.5 653.5 c 128,-1,36
 542 694 542 694 453 694 c 256,37,38
 364 694 364 694 290.5 653.5 c 128,-1,39
 217 613 217 613 167.5 538 c 128,-1,40
 118 463 118 463 103 365 c 256,41,42
 87 267 87 267 112.5 192 c 128,-1,43
 138 117 138 117 198.5 76.5 c 128,-1,44
 259 36 259 36 349 36 c 256,45,30
 438 36 438 36 511.5 76.5 c 128,-1,31
EndSplineSet
EndChar

StartChar: uni01EA
Encoding: 490 490 132
Width: 775
GlyphClass: 2
Flags: W
AnchorPoint: "Anchor-7" 542 690 basechar 0
AnchorPoint: "Anchor-6" 354 730 basechar 0
AnchorPoint: "Anchor-5" 407 0 basechar 0
AnchorPoint: "Anchor-4" 354 0 basechar 0
LayerCount: 2
Fore
SplineSet
300.5 -65 m 128,-1,1
 272 -94 272 -94 268 -121 c 0,2,3
 263 -151 263 -151 287.5 -164 c 128,-1,4
 312 -177 312 -177 352 -177 c 0,5,6
 401 -177 401 -177 444 -158 c 1,7,-1
 449 -198 l 1,8,9
 399 -219 399 -219 342 -219 c 0,10,11
 269 -219 269 -219 242 -192.5 c 128,-1,12
 215 -166 215 -166 221 -127 c 0,13,14
 231 -67 231 -67 312 -9 c 1,15,16
 217 -3 217 -3 153 45.5 c 128,-1,17
 89 94 89 94 63 176.5 c 128,-1,18
 37 259 37 259 54 365 c 0,19,20
 72 477 72 477 128.5 562 c 128,-1,21
 185 647 185 647 270.5 693.5 c 128,-1,22
 356 740 356 740 460 740 c 256,23,24
 564 740 564 740 635 693.5 c 128,-1,25
 706 647 706 647 735.5 562 c 128,-1,26
 765 477 765 477 748 365 c 0,27,28
 731 260 731 260 680.5 179 c 128,-1,29
 630 98 630 98 552 49 c 128,-1,30
 474 0 474 0 379 -8 c 1,31,0
 329 -36 329 -36 300.5 -65 c 128,-1,1
112.5 192 m 128,-1,33
 138 117 138 117 198.5 76.5 c 128,-1,34
 259 36 259 36 349 36 c 256,35,36
 438 36 438 36 511.5 76.5 c 128,-1,37
 585 117 585 117 634 192 c 128,-1,38
 683 267 683 267 699 365 c 256,39,40
 715 463 715 463 689 538 c 128,-1,41
 663 613 663 613 602.5 653.5 c 128,-1,42
 542 694 542 694 453 694 c 256,43,44
 364 694 364 694 290.5 653.5 c 128,-1,45
 217 613 217 613 167.5 538 c 128,-1,46
 118 463 118 463 103 365 c 256,47,32
 87 267 87 267 112.5 192 c 128,-1,33
EndSplineSet
EndChar

StartChar: Oslash
Encoding: 216 216 133
Width: 775
GlyphClass: 2
Flags: W
AnchorPoint: "Anchor-7" 542 690 basechar 0
AnchorPoint: "Anchor-6" 354 730 basechar 0
AnchorPoint: "Anchor-5" 407 0 basechar 0
AnchorPoint: "Anchor-4" 354 0 basechar 0
LayerCount: 2
Fore
SplineSet
745 529.5 m 128,-1,1
 762 456 762 456 748 365 c 0,2,3
 730 253 730 253 673.5 168 c 128,-1,4
 617 83 617 83 531 36.5 c 128,-1,5
 445 -10 445 -10 341 -10 c 0,6,7
 223 -10 223 -10 147 51 c 1,8,-1
 81 -23 l 1,9,-1
 52 3 l 1,10,-1
 119 77 l 1,11,12
 73 127 73 127 56 200.5 c 128,-1,13
 39 274 39 274 54 365 c 0,14,15
 72 477 72 477 128.5 562 c 128,-1,16
 185 647 185 647 270.5 693.5 c 128,-1,17
 356 740 356 740 460 740 c 0,18,19
 578 740 578 740 654 679 c 1,20,-1
 720 753 l 1,21,-1
 749 727 l 1,22,-1
 682 653 l 1,23,0
 728 603 728 603 745 529.5 c 128,-1,1
103.5 224 m 128,-1,25
 117 161 117 161 154 117 c 1,26,-1
 620 641 l 1,27,28
 555 694 555 694 453 694 c 0,29,30
 364 694 364 694 290.5 653.5 c 128,-1,31
 217 613 217 613 167.5 538 c 128,-1,32
 118 463 118 463 103 365 c 0,33,24
 90 287 90 287 103.5 224 c 128,-1,25
511.5 76.5 m 128,-1,35
 585 117 585 117 634 192 c 128,-1,36
 683 267 683 267 699 365 c 0,37,38
 711 443 711 443 697.5 506 c 128,-1,39
 684 569 684 569 648 613 c 1,40,-1
 182 89 l 1,41,42
 247 36 247 36 349 36 c 0,43,34
 438 36 438 36 511.5 76.5 c 128,-1,35
EndSplineSet
EndChar

StartChar: OE
Encoding: 338 338 137
Width: 963
GlyphClass: 2
Flags: W
AnchorPoint: "Anchor-6" 665 730 basechar 0
AnchorPoint: "Anchor-5" 877 0 basechar 0
AnchorPoint: "Anchor-4" 665 0 basechar 0
LayerCount: 2
Fore
SplineSet
589 684 m 1,0,-1
 546 410 l 1,1,-1
 901 410 l 1,2,-1
 894 365 l 1,3,-1
 539 365 l 1,4,-1
 488 46 l 1,5,-1
 863 46 l 1,6,-1
 855 0 l 1,7,-1
 432 0 l 1,8,-1
 432 1 l 1,9,10
 387 -10 387 -10 341 -10 c 0,11,12
 237 -10 237 -10 166 36.5 c 128,-1,13
 95 83 95 83 65.5 168 c 128,-1,14
 36 253 36 253 54 365 c 256,15,16
 72 477 72 477 128.5 562 c 128,-1,17
 185 647 185 647 270.5 693.5 c 128,-1,18
 356 740 356 740 460 740 c 0,19,20
 506 740 506 740 548 729 c 1,21,-1
 548 730 l 1,22,-1
 971 730 l 1,23,-1
 964 684 l 1,24,-1
 589 684 l 1,0,-1
440 49 m 1,26,-1
 540 681 l 1,27,28
 498 694 498 694 453 694 c 0,29,30
 364 694 364 694 290.5 653.5 c 128,-1,31
 217 613 217 613 167.5 538 c 128,-1,32
 118 463 118 463 103 365 c 256,33,34
 87 267 87 267 112.5 192 c 128,-1,35
 138 117 138 117 198.5 76.5 c 128,-1,36
 259 36 259 36 349 36 c 0,37,25
 394 36 394 36 440 49 c 1,26,-1
EndSplineSet
EndChar

StartChar: P
Encoding: 80 80 138
Width: 560
Flags: W
LayerCount: 2
Fore
SplineSet
526.5 677.5 m 128,-1,1
 589 625 589 625 571 512 c 0,2,3
 553 400 553 400 475.5 347.5 c 128,-1,4
 398 295 398 295 250 295 c 2,5,-1
 133 295 l 1,6,-1
 86 0 l 1,7,-1
 37 0 l 1,8,-1
 153 730 l 1,9,-1
 312 730 l 2,10,0
 464 730 464 730 526.5 677.5 c 128,-1,1
443.5 381.5 m 128,-1,12
 507 422 507 422 521 512 c 0,13,14
 535 603 535 603 484.5 643.5 c 128,-1,15
 434 684 434 684 307 684 c 2,16,-1
 194 684 l 1,17,-1
 140 341 l 1,18,-1
 253 341 l 2,19,11
 380 341 380 341 443.5 381.5 c 128,-1,12
EndSplineSet
EndChar

StartChar: Thorn
Encoding: 222 222 139
Width: 560
Flags: W
LayerCount: 2
Fore
SplineSet
504.5 540.5 m 128,-1,1
 567 488 567 488 549 375 c 256,2,3
 531 262 531 262 453.5 209.5 c 128,-1,4
 376 157 376 157 228 157 c 2,5,-1
 111 157 l 1,6,-1
 86 0 l 1,7,-1
 37 0 l 1,8,-1
 153 730 l 1,9,-1
 202 730 l 1,10,-1
 180 593 l 1,11,-1
 291 593 l 2,12,0
 442 593 442 593 504.5 540.5 c 128,-1,1
421.5 243.5 m 128,-1,14
 485 284 485 284 499 375 c 0,15,16
 513 465 513 465 462.5 505.5 c 128,-1,17
 412 546 412 546 285 546 c 2,18,-1
 172 546 l 1,19,-1
 118 203 l 1,20,-1
 231 203 l 2,21,13
 358 203 358 203 421.5 243.5 c 128,-1,14
EndSplineSet
EndChar

StartChar: Q
Encoding: 81 81 140
Width: 785
Flags: W
LayerCount: 2
Fore
SplineSet
689 -92 m 1,1,-1
 647 -122 l 1,2,3
 605 -67 605 -67 527 -38.5 c 128,-1,4
 449 -10 449 -10 341 -10 c 0,5,6
 237 -10 237 -10 166 36.5 c 128,-1,7
 95 83 95 83 65.5 168 c 128,-1,8
 36 253 36 253 54 365 c 256,9,10
 72 477 72 477 128.5 562 c 128,-1,11
 185 647 185 647 270.5 693.5 c 128,-1,12
 356 740 356 740 460 740 c 256,13,14
 564 740 564 740 635 693.5 c 128,-1,15
 706 647 706 647 735.5 562 c 128,-1,16
 765 477 765 477 748 365 c 0,17,18
 728 237 728 237 656 145.5 c 128,-1,19
 584 54 584 54 478 17 c 1,20,0
 622 -11 622 -11 689 -92 c 1,1,-1
112.5 192 m 128,-1,22
 138 117 138 117 198.5 76.5 c 128,-1,23
 259 36 259 36 349 36 c 256,24,25
 438 36 438 36 511.5 76.5 c 128,-1,26
 585 117 585 117 634 192 c 128,-1,27
 683 267 683 267 699 365 c 256,28,29
 715 463 715 463 689 538 c 128,-1,30
 663 613 663 613 602.5 653.5 c 128,-1,31
 542 694 542 694 453 694 c 256,32,33
 364 694 364 694 290.5 653.5 c 128,-1,34
 217 613 217 613 167.5 538 c 128,-1,35
 118 463 118 463 103 365 c 256,36,21
 87 267 87 267 112.5 192 c 128,-1,22
EndSplineSet
EndChar

StartChar: R
Encoding: 82 82 141
Width: 587
GlyphClass: 2
Flags: W
AnchorPoint: "Anchor-6" 252 730 basechar 0
AnchorPoint: "Anchor-4" 252 0 basechar 0
LayerCount: 2
Fore
SplineSet
217 334 m 1,0,-1
 139 334 l 1,1,-1
 86 0 l 1,2,-1
 37 0 l 1,3,-1
 153 730 l 1,4,-1
 329 730 l 2,5,6
 473 730 473 730 531.5 683 c 128,-1,7
 590 636 590 636 574 533 c 0,8,9
 558 431 558 431 486 383 c 128,-1,10
 414 335 414 335 277 334 c 1,11,-1
 510 0 l 1,12,-1
 449 0 l 1,13,-1
 217 334 l 1,0,-1
146 379 m 1,14,-1
 275 379 l 2,15,16
 395 379 395 379 453 415 c 128,-1,17
 511 451 511 451 524 531 c 0,18,19
 537 612 537 612 490 648 c 128,-1,20
 443 684 443 684 324 684 c 2,21,-1
 194 684 l 1,22,-1
 146 379 l 1,14,-1
EndSplineSet
EndChar

StartChar: S
Encoding: 83 83 147
Width: 582
GlyphClass: 2
Flags: W
AnchorPoint: "Anchor-6" 254 730 basechar 0
AnchorPoint: "Anchor-4" 254 0 basechar 0
LayerCount: 2
Fore
SplineSet
117.5 5 m 128,-1,1
 61 20 61 20 18 49 c 1,2,-1
 45 92 l 1,3,4
 87 65 87 65 138.5 50.5 c 128,-1,5
 190 36 190 36 246 36 c 0,6,7
 337 36 337 36 394 75.5 c 128,-1,8
 451 115 451 115 463 188 c 0,9,10
 471 238 471 238 450 268.5 c 128,-1,11
 429 299 429 299 394.5 315.5 c 128,-1,12
 360 332 360 332 296 352 c 0,13,14
 225 374 225 374 181.5 396 c 128,-1,15
 138 418 138 418 114.5 456.5 c 128,-1,16
 91 495 91 495 100 555 c 0,17,18
 114 642 114 642 183 691 c 128,-1,19
 252 740 252 740 362 740 c 0,20,21
 421 740 421 740 480.5 726 c 128,-1,22
 540 712 540 712 575 690 c 1,23,-1
 549 647 l 1,24,25
 516 668 516 668 462.5 681 c 128,-1,26
 409 694 409 694 356 694 c 0,27,28
 269 694 269 694 215 657.5 c 128,-1,29
 161 621 161 621 149 555 c 0,30,31
 142 508 142 508 162 479.5 c 128,-1,32
 182 451 182 451 216.5 434.5 c 128,-1,33
 251 418 251 418 313 400 c 0,34,35
 385 377 385 377 429 354.5 c 128,-1,36
 473 332 473 332 497.5 291.5 c 128,-1,37
 522 251 522 251 512 188 c 0,38,39
 498 95 498 95 425.5 42.5 c 128,-1,40
 353 -10 353 -10 238 -10 c 0,41,0
 174 -10 174 -10 117.5 5 c 128,-1,1
EndSplineSet
EndChar

StartChar: Scedilla
Encoding: 350 350 150
Width: 582
GlyphClass: 2
Flags: W
AnchorPoint: "Anchor-6" 254 730 basechar 0
AnchorPoint: "Anchor-4" 254 0 basechar 0
LayerCount: 2
Fore
SplineSet
442 55 m 128,-1,1
 384 4 384 4 291 -7 c 1,2,3
 359 -65 359 -65 349 -128 c 0,4,5
 343 -167 343 -167 307 -193.5 c 128,-1,6
 271 -220 271 -220 198 -220 c 0,7,8
 141 -220 141 -220 98 -199 c 1,9,-1
 115 -159 l 1,10,11
 154 -178 154 -178 202 -178 c 0,12,13
 242 -178 242 -178 270.5 -165 c 128,-1,14
 299 -152 299 -152 304 -122 c 0,15,16
 308 -95 308 -95 288.5 -66 c 128,-1,17
 269 -37 269 -37 228 -10 c 1,18,19
 100 -7 100 -7 18 49 c 1,20,-1
 45 92 l 1,21,22
 87 65 87 65 138.5 50.5 c 128,-1,23
 190 36 190 36 246 36 c 0,24,25
 337 36 337 36 394 75.5 c 128,-1,26
 451 115 451 115 463 188 c 0,27,28
 471 238 471 238 450 268.5 c 128,-1,29
 429 299 429 299 394.5 315.5 c 128,-1,30
 360 332 360 332 296 352 c 0,31,32
 225 374 225 374 181.5 396 c 128,-1,33
 138 418 138 418 114.5 456.5 c 128,-1,34
 91 495 91 495 100 555 c 0,35,36
 114 642 114 642 183 691 c 128,-1,37
 252 740 252 740 362 740 c 0,38,39
 421 740 421 740 480.5 726 c 128,-1,40
 540 712 540 712 575 690 c 1,41,-1
 549 647 l 1,42,43
 516 668 516 668 462.5 681 c 128,-1,44
 409 694 409 694 356 694 c 0,45,46
 269 694 269 694 215 657.5 c 128,-1,47
 161 621 161 621 149 555 c 0,48,49
 142 508 142 508 162 479.5 c 128,-1,50
 182 451 182 451 216.5 434.5 c 128,-1,51
 251 418 251 418 313 400 c 0,52,53
 385 377 385 377 429 354.5 c 128,-1,54
 473 332 473 332 497.5 291.5 c 128,-1,55
 522 251 522 251 512 188 c 0,56,0
 500 106 500 106 442 55 c 128,-1,1
EndSplineSet
Substitution2: "'locl' Localized Forms in Latin lookup 4 subtable" uni0218
Substitution2: "'aalt' Access All Alternates in Latin lookup 0 subtable" uni0218
EndChar

StartChar: uni1E9E
Encoding: 7838 7838 153
Width: 633
Flags: W
LayerCount: 2
Fore
SplineSet
198 8 m 1,1,-1
 215 53 l 1,2,3
 263 36 263 36 323 36 c 0,4,5
 419 36 419 36 476 74.5 c 128,-1,6
 533 113 533 113 544 185 c 0,7,8
 556 258 556 258 509.5 296 c 128,-1,9
 463 334 463 334 362 334 c 2,10,-1
 346 334 l 1,11,-1
 354 386 l 1,12,-1
 525 568 l 1,13,14
 533 632 533 632 497 663 c 128,-1,15
 461 694 461 694 380 694 c 0,16,17
 284 694 284 694 232.5 648.5 c 128,-1,18
 181 603 181 603 166 504 c 2,19,-1
 86 0 l 1,20,-1
 37 0 l 1,21,-1
 117 504 l 2,22,23
 136 623 136 623 202.5 681.5 c 128,-1,24
 269 740 269 740 387 740 c 0,25,26
 601 740 601 740 572 554 c 1,27,-1
 404 376 l 1,28,-1
 404 374 l 1,29,30
 510 372 510 372 559 323 c 128,-1,31
 608 274 608 274 593 185 c 0,32,33
 578 91 578 91 507.5 40.5 c 128,-1,34
 437 -10 437 -10 320 -10 c 0,35,0
 257 -10 257 -10 198 8 c 1,1,-1
EndSplineSet
EndChar

StartChar: uni018F
Encoding: 399 399 154
Width: 732
Flags: W
LayerCount: 2
Fore
SplineSet
655.5 643 m 128,-1,1
 733 546 733 546 705 365 c 0,2,3
 686 248 686 248 634 163.5 c 128,-1,4
 582 79 582 79 501 34.5 c 128,-1,5
 420 -10 420 -10 318 -10 c 256,6,7
 216 -10 216 -10 150 34 c 128,-1,8
 84 78 84 78 58.5 162 c 128,-1,9
 33 246 33 246 52 363 c 0,10,11
 54 378 54 378 56 383 c 1,12,-1
 659 383 l 1,13,14
 681 536 681 536 614.5 615 c 128,-1,15
 548 694 548 694 398 694 c 0,16,17
 333 694 333 694 266.5 679 c 128,-1,18
 200 664 200 664 141 637 c 1,19,-1
 134 680 l 1,20,21
 193 708 193 708 264 724 c 128,-1,22
 335 740 335 740 403 740 c 0,23,0
 578 740 578 740 655.5 643 c 128,-1,1
539 114 m 128,-1,25
 623 192 623 192 652 337 c 1,26,-1
 96 337 l 1,27,28
 79 192 79 192 138.5 114 c 128,-1,29
 198 36 198 36 326 36 c 256,30,24
 455 36 455 36 539 114 c 128,-1,25
EndSplineSet
EndChar

StartChar: T
Encoding: 84 84 155
Width: 605
GlyphClass: 2
Flags: W
AnchorPoint: "Anchor-8" 241 0 basechar 0
AnchorPoint: "Anchor-6" 266 730 basechar 0
AnchorPoint: "Anchor-4" 266 0 basechar 0
LayerCount: 2
Fore
SplineSet
342 684 m 1,0,-1
 89 684 l 1,1,-1
 96 730 l 1,2,-1
 651 730 l 1,3,-1
 643 684 l 1,4,-1
 391 684 l 1,5,-1
 282 0 l 1,6,-1
 233 0 l 1,7,-1
 342 684 l 1,0,-1
EndSplineSet
EndChar

StartChar: Tbar
Encoding: 358 358 156
Width: 656
GlyphClass: 2
Flags: W
AnchorPoint: "Anchor-8" 269 0 basechar 0
AnchorPoint: "Anchor-6" 294 730 basechar 0
AnchorPoint: "Anchor-4" 294 0 basechar 0
LayerCount: 2
Fore
SplineSet
669 684 m 1,0,-1
 416 684 l 1,1,-1
 361 337 l 1,2,-1
 549 337 l 1,3,-1
 542 293 l 1,4,-1
 354 293 l 1,5,-1
 308 0 l 1,6,-1
 259 0 l 1,7,-1
 305 293 l 1,8,-1
 118 293 l 1,9,-1
 125 337 l 1,10,-1
 312 337 l 1,11,-1
 367 684 l 1,12,-1
 114 684 l 1,13,-1
 122 730 l 1,14,-1
 676 730 l 1,15,-1
 669 684 l 1,0,-1
EndSplineSet
EndChar

StartChar: uni0162
Encoding: 354 354 158
Width: 605
GlyphClass: 2
Flags: W
AnchorPoint: "Anchor-8" 241 0 basechar 0
AnchorPoint: "Anchor-6" 266 730 basechar 0
AnchorPoint: "Anchor-4" 266 0 basechar 0
LayerCount: 2
Fore
SplineSet
391 684 m 1,0,-1
 284 13 l 1,1,2
 329 -19 329 -19 350.5 -54.5 c 128,-1,3
 372 -90 372 -90 366 -127 c 0,4,5
 360 -166 360 -166 324 -192.5 c 128,-1,6
 288 -219 288 -219 215 -219 c 0,7,8
 159 -219 159 -219 116 -198 c 1,9,-1
 133 -158 l 1,10,11
 170 -177 170 -177 219 -177 c 0,12,13
 259 -177 259 -177 287.5 -164 c 128,-1,14
 316 -151 316 -151 321 -121 c 0,15,16
 326 -92 326 -92 303 -60.5 c 128,-1,17
 280 -29 280 -29 232 0 c 1,18,-1
 233 0 l 1,19,-1
 342 684 l 1,20,-1
 89 684 l 1,21,-1
 96 730 l 1,22,-1
 651 730 l 1,23,-1
 643 684 l 1,24,-1
 391 684 l 1,0,-1
EndSplineSet
Substitution2: "'locl' Localized Forms in Latin lookup 4 subtable" uni021A
Substitution2: "'aalt' Access All Alternates in Latin lookup 0 subtable" uni021A
EndChar

StartChar: U
Encoding: 85 85 160
Width: 669
GlyphClass: 2
Flags: W
AnchorPoint: "Anchor-7" 564 690 basechar 0
AnchorPoint: "Anchor-6" 302 730 basechar 0
AnchorPoint: "Anchor-5" 417 10 basechar 0
AnchorPoint: "Anchor-4" 302 0 basechar 0
LayerCount: 2
Fore
SplineSet
104.5 61 m 128,-1,1
 50 132 50 132 71 270 c 2,2,-1
 144 730 l 1,3,-1
 192 730 l 1,4,-1
 120 274 l 2,5,6
 101 153 101 153 144 94.5 c 128,-1,7
 187 36 187 36 295 36 c 256,8,9
 403 36 403 36 464.5 94.5 c 128,-1,10
 526 153 526 153 545 274 c 2,11,-1
 618 730 l 1,12,-1
 667 730 l 1,13,-1
 594 270 l 2,14,15
 572 132 572 132 494.5 61 c 128,-1,16
 417 -10 417 -10 288 -10 c 256,17,0
 159 -10 159 -10 104.5 61 c 128,-1,1
EndSplineSet
EndChar

StartChar: Uhorn
Encoding: 431 431 169
Width: 735
GlyphClass: 2
Flags: W
AnchorPoint: "Anchor-7" 753 843 basechar 0
AnchorPoint: "Anchor-6" 302 730 basechar 0
AnchorPoint: "Anchor-5" 417 10 basechar 0
AnchorPoint: "Anchor-4" 302 0 basechar 0
LayerCount: 2
Fore
SplineSet
829 742 m 0,1,2
 820 688 820 688 790 658 c 128,-1,3
 760 628 760 628 714 628 c 0,4,5
 684 628 684 628 653 641 c 1,6,-1
 594 270 l 2,7,8
 572 132 572 132 494.5 61 c 128,-1,9
 417 -10 417 -10 288 -10 c 0,10,11
 160 -10 160 -10 105 61 c 128,-1,12
 50 132 50 132 71 270 c 2,13,-1
 144 730 l 1,14,-1
 192 730 l 1,15,-1
 120 274 l 2,16,17
 101 153 101 153 144 94.5 c 128,-1,18
 187 36 187 36 295 36 c 256,19,20
 403 36 403 36 464.5 94.5 c 128,-1,21
 526 153 526 153 545 274 c 2,22,-1
 618 730 l 1,23,-1
 667 730 l 1,24,-1
 660 687 l 1,25,26
 680 672 680 672 708 672 c 0,27,28
 768 672 768 672 780 746 c 0,29,30
 783 768 783 768 783 796.5 c 128,-1,31
 783 825 783 825 778 843 c 1,32,-1
 828 843 l 1,33,0
 837 792 837 792 829 742 c 0,1,2
EndSplineSet
EndChar

StartChar: Uogonek
Encoding: 370 370 178
Width: 669
GlyphClass: 2
Flags: W
AnchorPoint: "Anchor-7" 564 690 basechar 0
AnchorPoint: "Anchor-6" 302 730 basechar 0
AnchorPoint: "Anchor-5" 417 10 basechar 0
AnchorPoint: "Anchor-4" 302 0 basechar 0
LayerCount: 2
Fore
SplineSet
310.5 -53.5 m 128,-1,1
 281 -83 281 -83 277 -111 c 0,2,3
 272 -141 272 -141 296.5 -154 c 128,-1,4
 321 -167 321 -167 361 -167 c 0,5,6
 410 -167 410 -167 453 -148 c 1,7,-1
 458 -188 l 1,8,9
 408 -209 408 -209 351 -209 c 0,10,11
 278 -209 278 -209 251 -182.5 c 128,-1,12
 224 -156 224 -156 230 -117 c 0,13,14
 239 -62 239 -62 306 -10 c 1,15,-1
 288 -10 l 2,16,17
 160 -10 160 -10 105 61 c 128,-1,18
 50 132 50 132 71 270 c 2,19,-1
 144 730 l 1,20,-1
 192 730 l 1,21,-1
 120 274 l 2,22,23
 101 153 101 153 144 94.5 c 128,-1,24
 187 36 187 36 295 36 c 256,25,26
 403 36 403 36 464.5 94.5 c 128,-1,27
 526 153 526 153 545 274 c 2,28,-1
 618 730 l 1,29,-1
 667 730 l 1,30,-1
 594 270 l 2,31,32
 577 163 577 163 526 96 c 128,-1,33
 475 29 475 29 393 4 c 1,34,0
 340 -24 340 -24 310.5 -53.5 c 128,-1,1
EndSplineSet
EndChar

StartChar: V
Encoding: 86 86 181
Width: 641
Flags: W
LayerCount: 2
Fore
SplineSet
86 730 m 1,0,-1
 139 730 l 1,1,-1
 282 50 l 1,2,-1
 284 50 l 1,3,-1
 643 730 l 1,4,-1
 697 730 l 1,5,-1
 309 0 l 1,6,-1
 242 0 l 1,7,-1
 86 730 l 1,0,-1
EndSplineSet
EndChar

StartChar: W
Encoding: 87 87 182
Width: 881
GlyphClass: 2
Flags: W
AnchorPoint: "Anchor-6" 407 730 basechar 0
AnchorPoint: "Anchor-4" 407 0 basechar 0
LayerCount: 2
Fore
SplineSet
504 679 m 1,0,-1
 502 679 l 1,1,-1
 226 0 l 1,2,-1
 162 0 l 1,3,-1
 97 730 l 1,4,-1
 147 730 l 1,5,-1
 201 51 l 1,6,-1
 203 51 l 1,7,-1
 479 730 l 1,8,-1
 546 730 l 1,9,-1
 606 51 l 1,10,-1
 608 51 l 1,11,-1
 877 730 l 1,12,-1
 926 730 l 1,13,-1
 630 0 l 1,14,-1
 565 0 l 1,15,-1
 504 679 l 1,0,-1
EndSplineSet
EndChar

StartChar: X
Encoding: 88 88 187
Width: 666
Flags: W
LayerCount: 2
Fore
SplineSet
312 368 m 1,0,-1
 127 730 l 1,1,-1
 184 730 l 1,2,-1
 351 402 l 1,3,-1
 353 402 l 1,4,-1
 623 730 l 1,5,-1
 680 730 l 1,6,-1
 381 368 l 1,7,-1
 569 0 l 1,8,-1
 513 0 l 1,9,-1
 342 336 l 1,10,-1
 340 336 l 1,11,-1
 64 0 l 1,12,-1
 7 0 l 1,13,-1
 312 368 l 1,0,-1
EndSplineSet
EndChar

StartChar: Y
Encoding: 89 89 188
Width: 618
GlyphClass: 2
Flags: W
AnchorPoint: "Anchor-6" 271 730 basechar 0
AnchorPoint: "Anchor-4" 271 0 basechar 0
LayerCount: 2
Fore
SplineSet
288 309 m 1,0,-1
 80 730 l 1,1,-1
 136 730 l 1,2,-1
 320 357 l 1,3,-1
 322 357 l 1,4,-1
 624 730 l 1,5,-1
 680 730 l 1,6,-1
 338 309 l 1,7,-1
 289 0 l 1,8,-1
 239 0 l 1,9,-1
 288 309 l 1,0,-1
EndSplineSet
EndChar

StartChar: Z
Encoding: 90 90 197
Width: 611
GlyphClass: 2
Flags: W
AnchorPoint: "Anchor-6" 272 730 basechar 0
AnchorPoint: "Anchor-4" 272 0 basechar 0
LayerCount: 2
Fore
SplineSet
28 46 m 1,0,-1
 548 682 l 1,1,-1
 548 684 l 1,2,-1
 129 684 l 1,3,-1
 136 730 l 1,4,-1
 616 730 l 1,5,-1
 609 684 l 1,6,-1
 89 48 l 1,7,-1
 89 46 l 1,8,-1
 508 46 l 1,9,-1
 501 0 l 1,10,-1
 21 0 l 1,11,-1
 28 46 l 1,0,-1
EndSplineSet
EndChar

StartChar: a
Encoding: 97 97 201
Width: 491
GlyphClass: 2
Flags: W
AnchorPoint: "Anchor-6" 219 520 basechar 0
AnchorPoint: "Anchor-5" 409 0 basechar 0
AnchorPoint: "Anchor-4" 219 0 basechar 0
LayerCount: 2
Fore
SplineSet
416.5 484 m 128,-1,1
 450 438 450 438 432 328 c 2,2,-1
 380 0 l 1,3,-1
 335 0 l 1,4,-1
 349 85 l 1,5,-1
 347 85 l 1,6,7
 315 42 315 42 259.5 16 c 128,-1,8
 204 -10 204 -10 145 -10 c 0,9,10
 71 -10 71 -10 33.5 31.5 c 128,-1,11
 -4 73 -4 73 7 142 c 0,12,13
 21 232 21 232 106 280.5 c 128,-1,14
 191 329 191 329 333 329 c 2,15,-1
 386 329 l 1,16,-1
 386 330 l 2,17,18
 395 389 395 389 388 423 c 128,-1,19
 381 457 381 457 354.5 472 c 128,-1,20
 328 487 328 487 277 487 c 0,21,22
 179 487 179 487 87 441 c 1,23,-1
 79 480 l 1,24,25
 177 530 177 530 286 530 c 0,26,0
 383 530 383 530 416.5 484 c 128,-1,1
254 55.5 m 128,-1,28
 299 79 299 79 329 119 c 128,-1,29
 359 159 359 159 367 208 c 2,30,-1
 380 288 l 1,31,-1
 327 288 l 2,32,33
 206 288 206 288 135 251 c 128,-1,34
 64 214 64 214 53 145 c 0,35,36
 45 94 45 94 74.5 63 c 128,-1,37
 104 32 104 32 160 32 c 0,38,27
 209 32 209 32 254 55.5 c 128,-1,28
EndSplineSet
Substitution2: "Single Substitution lookup 21 subtable" ordfeminine
Substitution2: "'aalt' Access All Alternates in Latin lookup 0 subtable" ordfeminine
EndChar

StartChar: uni1EB3
Encoding: 7859 7859 207
Width: 490
GlyphClass: 2
Flags: W
AnchorPoint: "Anchor-6" 222 885 basechar 0
AnchorPoint: "Anchor-5" 407 0 basechar 0
AnchorPoint: "Anchor-4" 219 0 basechar 0
LayerCount: 2
Fore
SplineSet
379.5 652.5 m 128,-1,1
 413 675 413 675 429 715 c 1,2,-1
 381 715 l 1,3,4
 389 730 389 730 398 754 c 128,-1,5
 407 778 407 778 409 795 c 0,6,7
 413 823 413 823 397 833 c 128,-1,8
 381 843 381 843 329 843 c 0,9,10
 275 843 275 843 213 827 c 1,11,-1
 213 868 l 1,12,13
 282 885 282 885 344 885 c 0,14,15
 416 885 416 885 441.5 868.5 c 128,-1,16
 467 852 467 852 460 809 c 0,17,18
 457 791 457 791 450 767.5 c 128,-1,19
 443 744 443 744 434 724 c 1,20,-1
 481 724 l 1,21,22
 464 663 464 663 412.5 625.5 c 128,-1,23
 361 588 361 588 295 588 c 256,24,25
 229 588 229 588 189 625.5 c 128,-1,26
 149 663 149 663 151 724 c 1,27,-1
 200 724 l 1,28,29
 201 680 201 680 228 655 c 128,-1,30
 255 630 255 630 301 630 c 0,31,0
 346 630 346 630 379.5 652.5 c 128,-1,1
415.5 484 m 128,-1,33
 449 438 449 438 431 328 c 2,34,-1
 379 0 l 1,35,-1
 334 0 l 1,36,-1
 348 85 l 1,37,-1
 346 85 l 1,38,39
 314 42 314 42 258.5 16 c 128,-1,40
 203 -10 203 -10 144 -10 c 0,41,42
 70 -10 70 -10 33 31.5 c 128,-1,43
 -4 73 -4 73 7 142 c 0,44,45
 21 232 21 232 105.5 280.5 c 128,-1,46
 190 329 190 329 332 329 c 2,47,-1
 385 329 l 1,48,-1
 385 330 l 2,49,50
 394 389 394 389 387 423 c 128,-1,51
 380 457 380 457 353.5 472 c 128,-1,52
 327 487 327 487 277 487 c 0,53,54
 180 487 180 487 87 441 c 1,55,-1
 79 480 l 1,56,57
 177 530 177 530 285 530 c 0,58,32
 382 530 382 530 415.5 484 c 128,-1,33
253.5 55.5 m 128,-1,60
 298 79 298 79 328 119 c 128,-1,61
 358 159 358 159 366 208 c 2,62,-1
 379 288 l 1,63,-1
 326 288 l 2,64,65
 206 288 206 288 135 251 c 128,-1,66
 64 214 64 214 53 145 c 0,67,68
 45 94 45 94 74 63 c 128,-1,69
 103 32 103 32 159 32 c 0,70,59
 209 32 209 32 253.5 55.5 c 128,-1,60
EndSplineSet
EndChar

StartChar: aogonek
Encoding: 261 261 222
Width: 494
GlyphClass: 2
Flags: W
AnchorPoint: "Anchor-6" 219 520 basechar 0
AnchorPoint: "Anchor-5" 408 0 basechar 0
AnchorPoint: "Anchor-4" 219 0 basechar 0
LayerCount: 2
Fore
SplineSet
431 -198 m 1,0,1
 382 -219 382 -219 328 -219 c 0,2,3
 258 -219 258 -219 231.5 -192.5 c 128,-1,4
 205 -166 205 -166 211 -127 c 0,5,6
 217 -90 217 -90 250 -53.5 c 128,-1,7
 283 -17 283 -17 337 15 c 1,8,-1
 348 85 l 1,9,-1
 346 85 l 1,10,11
 314 42 314 42 258.5 16 c 128,-1,12
 203 -10 203 -10 145 -10 c 0,13,14
 71 -10 71 -10 33.5 31.5 c 128,-1,15
 -4 73 -4 73 7 142 c 0,16,17
 21 232 21 232 106 280.5 c 128,-1,18
 191 329 191 329 333 329 c 2,19,-1
 386 329 l 1,20,-1
 386 330 l 2,21,22
 395 389 395 389 387.5 423 c 128,-1,23
 380 457 380 457 353.5 472 c 128,-1,24
 327 487 327 487 277 487 c 0,25,26
 179 487 179 487 87 441 c 1,27,-1
 79 480 l 1,28,29
 177 530 177 530 286 530 c 0,30,31
 383 530 383 530 416 484 c 128,-1,32
 449 438 449 438 432 328 c 2,33,-1
 380 0 l 1,34,35
 325 -29 325 -29 293 -60.5 c 128,-1,36
 261 -92 261 -92 257 -121 c 0,37,38
 252 -151 252 -151 275.5 -164 c 128,-1,39
 299 -177 299 -177 338 -177 c 0,40,41
 385 -177 385 -177 427 -158 c 1,42,-1
 431 -198 l 1,0,1
254 55.5 m 128,-1,44
 299 79 299 79 329 119 c 128,-1,45
 359 159 359 159 367 208 c 2,46,-1
 379 288 l 1,47,-1
 326 288 l 2,48,49
 206 288 206 288 135 251 c 128,-1,50
 64 214 64 214 53 145 c 0,51,52
 45 94 45 94 74.5 63 c 128,-1,53
 104 32 104 32 160 32 c 0,54,43
 209 32 209 32 254 55.5 c 128,-1,44
EndSplineSet
EndChar

StartChar: aring
Encoding: 229 229 223
Width: 490
GlyphClass: 2
Flags: W
AnchorPoint: "Anchor-6" 219 717 basechar 0
AnchorPoint: "Anchor-5" 408 0 basechar 0
AnchorPoint: "Anchor-4" 219 0 basechar 0
LayerCount: 2
Fore
SplineSet
422 473 m 128,-1,1
 447 426 447 426 431 328 c 2,2,-1
 379 0 l 1,3,-1
 334 0 l 1,4,-1
 348 85 l 1,5,-1
 346 85 l 1,6,7
 314 42 314 42 258.5 16 c 128,-1,8
 203 -10 203 -10 144 -10 c 0,9,10
 70 -10 70 -10 33 31.5 c 128,-1,11
 -4 73 -4 73 7 142 c 0,12,13
 21 232 21 232 106 280.5 c 128,-1,14
 191 329 191 329 332 329 c 2,15,-1
 385 329 l 1,16,-1
 386 330 l 2,17,18
 395 389 395 389 387.5 423 c 128,-1,19
 380 457 380 457 353.5 472 c 128,-1,20
 327 487 327 487 277 487 c 0,21,22
 179 487 179 487 87 441 c 1,23,-1
 79 480 l 1,24,25
 159 520 159 520 246 528 c 1,26,27
 210 541 210 541 191.5 576 c 128,-1,28
 173 611 173 611 180 655 c 0,29,30
 186 691 186 691 207.5 721.5 c 128,-1,31
 229 752 229 752 260.5 770 c 128,-1,32
 292 788 292 788 327 788 c 256,33,34
 362 788 362 788 388 770 c 128,-1,35
 414 752 414 752 426 721.5 c 128,-1,36
 438 691 438 691 432 655 c 0,37,38
 425 611 425 611 395 576 c 128,-1,39
 365 541 365 541 324 528 c 1,40,0
 397 520 397 520 422 473 c 128,-1,1
233 589 m 128,-1,42
 255 562 255 562 291 562 c 0,43,44
 328 562 328 562 358.5 589 c 128,-1,45
 389 616 389 616 395 655 c 256,46,47
 401 694 401 694 379 721 c 128,-1,48
 357 748 357 748 320 748 c 0,49,50
 284 748 284 748 253.5 721 c 128,-1,51
 223 694 223 694 217 655 c 256,52,41
 211 616 211 616 233 589 c 128,-1,42
254 55.5 m 128,-1,54
 299 79 299 79 329 119 c 128,-1,55
 359 159 359 159 366 208 c 2,56,-1
 379 288 l 1,57,-1
 326 288 l 2,58,59
 206 288 206 288 135 251 c 128,-1,60
 64 214 64 214 53 145 c 0,61,62
 45 94 45 94 74 63 c 128,-1,63
 103 32 103 32 159 32 c 0,64,53
 209 32 209 32 254 55.5 c 128,-1,54
EndSplineSet
EndChar

StartChar: aringacute
Encoding: 507 507 224
Width: 490
GlyphClass: 2
Flags: W
AnchorPoint: "Anchor-6" 219 717 basechar 0
AnchorPoint: "Anchor-5" 408 0 basechar 0
AnchorPoint: "Anchor-4" 219 0 basechar 0
LayerCount: 2
Fore
SplineSet
422 473 m 128,-1,1
 447 426 447 426 431 328 c 2,2,-1
 379 0 l 1,3,-1
 334 0 l 1,4,-1
 348 85 l 1,5,-1
 346 85 l 1,6,7
 314 42 314 42 258.5 16 c 128,-1,8
 203 -10 203 -10 144 -10 c 0,9,10
 70 -10 70 -10 33 31.5 c 128,-1,11
 -4 73 -4 73 7 142 c 0,12,13
 21 232 21 232 106 280.5 c 128,-1,14
 191 329 191 329 332 329 c 2,15,-1
 385 329 l 1,16,-1
 386 330 l 2,17,18
 395 389 395 389 387.5 423 c 128,-1,19
 380 457 380 457 353.5 472 c 128,-1,20
 327 487 327 487 277 487 c 0,21,22
 179 487 179 487 87 441 c 1,23,-1
 79 480 l 1,24,25
 159 520 159 520 246 528 c 1,26,27
 210 541 210 541 191.5 576 c 128,-1,28
 173 611 173 611 180 655 c 0,29,30
 185 687 185 687 203 715 c 128,-1,31
 221 743 221 743 248 762 c 1,32,-1
 384 967 l 1,33,-1
 442 967 l 1,34,-1
 315 787 l 1,35,36
 319 788 319 788 327 788 c 0,37,38
 362 788 362 788 388 770 c 128,-1,39
 414 752 414 752 426 721.5 c 128,-1,40
 438 691 438 691 432 655 c 0,41,42
 425 611 425 611 395 576 c 128,-1,43
 365 541 365 541 324 528 c 1,44,0
 397 520 397 520 422 473 c 128,-1,1
233 589 m 128,-1,46
 255 562 255 562 291 562 c 0,47,48
 328 562 328 562 358.5 589 c 128,-1,49
 389 616 389 616 395 655 c 256,50,51
 401 694 401 694 379 721 c 128,-1,52
 357 748 357 748 320 748 c 0,53,54
 284 748 284 748 253.5 721 c 128,-1,55
 223 694 223 694 217 655 c 256,56,45
 211 616 211 616 233 589 c 128,-1,46
254 55.5 m 128,-1,58
 299 79 299 79 329 119 c 128,-1,59
 359 159 359 159 366 208 c 2,60,-1
 379 288 l 1,61,-1
 326 288 l 2,62,63
 206 288 206 288 135 251 c 128,-1,64
 64 214 64 214 53 145 c 0,65,66
 45 94 45 94 74 63 c 128,-1,67
 103 32 103 32 159 32 c 0,68,57
 209 32 209 32 254 55.5 c 128,-1,58
EndSplineSet
EndChar

StartChar: ae
Encoding: 230 230 226
Width: 845
GlyphClass: 2
Flags: W
AnchorPoint: "Anchor-6" 407 520 basechar 0
AnchorPoint: "Anchor-4" 407 0 basechar 0
LayerCount: 2
Fore
SplineSet
803 244 m 1,0,-1
 418 244 l 1,1,2
 404 141 404 141 444.5 87 c 128,-1,3
 485 33 485 33 575 33 c 0,4,5
 616 33 616 33 659.5 43.5 c 128,-1,6
 703 54 703 54 739 73 c 1,7,-1
 748 35 l 1,8,9
 708 13 708 13 660.5 1.5 c 128,-1,10
 613 -10 613 -10 567 -10 c 0,11,12
 490 -10 490 -10 442.5 22.5 c 128,-1,13
 395 55 395 55 378 118 c 1,14,15
 342 58 342 58 283 24 c 128,-1,16
 224 -10 224 -10 152 -10 c 0,17,18
 74 -10 74 -10 35 31 c 128,-1,19
 -4 72 -4 72 7 142 c 0,20,21
 21 232 21 232 106 280.5 c 128,-1,22
 191 329 191 329 333 329 c 2,23,-1
 386 329 l 1,24,-1
 386 330 l 2,25,26
 395 389 395 389 388 423 c 128,-1,27
 381 457 381 457 354.5 472 c 128,-1,28
 328 487 328 487 277 487 c 0,29,30
 181 487 181 487 87 441 c 1,31,-1
 79 480 l 1,32,33
 179 530 179 530 286 530 c 0,34,35
 357 530 357 530 393 505.5 c 128,-1,36
 429 481 429 481 435 426 c 1,37,38
 471 477 471 477 521.5 503.5 c 128,-1,39
 572 530 572 530 635 530 c 0,40,41
 737 530 737 530 782 460 c 128,-1,42
 827 390 827 390 807 260 c 1,43,-1
 803 244 l 1,0,-1
497 436.5 m 128,-1,45
 445 385 445 385 424 285 c 1,46,-1
 766 285 l 1,47,48
 778 385 778 385 742.5 436.5 c 128,-1,49
 707 488 707 488 629 488 c 0,50,44
 549 488 549 488 497 436.5 c 128,-1,45
380 288 m 1,51,-1
 327 288 l 2,52,53
 206 288 206 288 135 251 c 128,-1,54
 64 214 64 214 53 145 c 0,55,56
 45 94 45 94 74.5 63 c 128,-1,57
 104 32 104 32 160 32 c 0,58,59
 209 32 209 32 254 55.5 c 128,-1,60
 299 79 299 79 329 119 c 128,-1,61
 359 159 359 159 367 208 c 2,62,-1
 380 288 l 1,51,-1
EndSplineSet
EndChar

StartChar: b
Encoding: 98 98 228
Width: 532
Flags: W
LayerCount: 2
Fore
SplineSet
467 458.5 m 128,-1,1
 508 387 508 387 488 260 c 256,2,3
 468 133 468 133 404.5 61.5 c 128,-1,4
 341 -10 341 -10 248 -10 c 0,5,6
 191 -10 191 -10 148.5 16.5 c 128,-1,7
 106 43 106 43 89 89 c 1,8,-1
 87 89 l 1,9,-1
 73 0 l 1,10,-1
 29 0 l 1,11,-1
 147 750 l 1,12,-1
 194 750 l 1,13,-1
 143 431 l 1,14,-1
 145 431 l 1,15,16
 176 477 176 477 226 503.5 c 128,-1,17
 276 530 276 530 333 530 c 0,18,0
 426 530 426 530 467 458.5 c 128,-1,1
372 93.5 m 128,-1,20
 424 154 424 154 441 260 c 256,21,22
 458 366 458 366 425 426.5 c 128,-1,23
 392 487 392 487 317 487 c 0,24,25
 269 487 269 487 227.5 461.5 c 128,-1,26
 186 436 186 436 157.5 390 c 128,-1,27
 129 344 129 344 120 284 c 2,28,-1
 112 236 l 2,29,30
 102 176 102 176 116 130 c 128,-1,31
 130 84 130 84 163.5 58.5 c 128,-1,32
 197 33 197 33 245 33 c 0,33,19
 320 33 320 33 372 93.5 c 128,-1,20
EndSplineSet
EndChar

StartChar: c
Encoding: 99 99 229
Width: 486
GlyphClass: 2
Flags: W
AnchorPoint: "Anchor-6" 227 520 basechar 0
AnchorPoint: "Anchor-4" 227 0 basechar 0
LayerCount: 2
Fore
SplineSet
67.5 62 m 128,-1,1
 14 134 14 134 33 260 c 256,2,3
 53 386 53 386 129.5 458 c 128,-1,4
 206 530 206 530 320 530 c 0,5,6
 395 530 395 530 455 494 c 1,7,-1
 432 455 l 1,8,9
 377 487 377 487 314 487 c 0,10,11
 221 487 221 487 158.5 427 c 128,-1,12
 96 367 96 367 80 260 c 256,13,14
 63 153 63 153 106 93 c 128,-1,15
 149 33 149 33 242 33 c 0,16,17
 306 33 306 33 371 65 c 1,18,-1
 381 26 l 1,19,20
 310 -10 310 -10 235 -10 c 0,21,0
 121 -10 121 -10 67.5 62 c 128,-1,1
EndSplineSet
EndChar

StartChar: ccedilla
Encoding: 231 231 232
Width: 485
GlyphClass: 2
Flags: W
AnchorPoint: "Anchor-6" 227 520 basechar 0
AnchorPoint: "Anchor-4" 227 0 basechar 0
LayerCount: 2
Fore
SplineSet
380 26 m 1,0,1
 320 -4 320 -4 258 -9 c 1,2,3
 320 -68 320 -68 311 -128 c 0,4,5
 305 -167 305 -167 270 -193.5 c 128,-1,6
 235 -220 235 -220 165 -220 c 0,7,8
 110 -220 110 -220 68 -199 c 1,9,-1
 84 -159 l 1,10,11
 122 -178 122 -178 169 -178 c 0,12,13
 208 -178 208 -178 235 -165 c 128,-1,14
 262 -152 262 -152 267 -122 c 0,15,16
 271 -94 271 -94 251.5 -64.5 c 128,-1,17
 232 -35 232 -35 192 -7 c 1,18,19
 99 7 99 7 57.5 77 c 128,-1,20
 16 147 16 147 33 260 c 0,21,22
 53 386 53 386 129.5 458 c 128,-1,23
 206 530 206 530 320 530 c 0,24,25
 395 530 395 530 454 494 c 1,26,-1
 432 455 l 1,27,28
 377 487 377 487 314 487 c 0,29,30
 221 487 221 487 158.5 427 c 128,-1,31
 96 367 96 367 80 260 c 256,32,33
 63 153 63 153 106 93 c 128,-1,34
 149 33 149 33 242 33 c 0,35,36
 306 33 306 33 370 65 c 1,37,-1
 380 26 l 1,0,1
EndSplineSet
EndChar

StartChar: d
Encoding: 100 100 235
Width: 532
Flags: W
LayerCount: 2
Fore
SplineSet
533 750 m 1,0,-1
 414 0 l 1,1,-1
 370 0 l 1,2,-1
 384 89 l 1,3,-1
 382 89 l 1,4,5
 350 43 350 43 299.5 16.5 c 128,-1,6
 249 -10 249 -10 192 -10 c 0,7,8
 99 -10 99 -10 58 61.5 c 128,-1,9
 17 133 17 133 37 260 c 256,10,11
 57 387 57 387 120.5 458.5 c 128,-1,12
 184 530 184 530 277 530 c 0,13,14
 334 530 334 530 376 503.5 c 128,-1,15
 418 477 418 477 434 431 c 1,16,-1
 436 431 l 1,17,-1
 487 750 l 1,18,-1
 533 750 l 1,0,-1
297.5 58.5 m 128,-1,20
 339 84 339 84 367.5 130 c 128,-1,21
 396 176 396 176 405 236 c 2,22,-1
 413 284 l 2,23,24
 423 344 423 344 409 390 c 128,-1,25
 395 436 395 436 361.5 461.5 c 128,-1,26
 328 487 328 487 280 487 c 0,27,28
 205 487 205 487 153 426.5 c 128,-1,29
 101 366 101 366 84 260 c 256,30,31
 67 154 67 154 100 93.5 c 128,-1,32
 133 33 133 33 208 33 c 0,33,19
 256 33 256 33 297.5 58.5 c 128,-1,20
EndSplineSet
EndChar

StartChar: eth
Encoding: 240 240 236
Width: 539
Flags: W
LayerCount: 2
Fore
SplineSet
420 622 m 1,0,1
 466 541 466 541 485 440.5 c 128,-1,2
 504 340 504 340 489 244 c 0,3,4
 470 125 470 125 398.5 57.5 c 128,-1,5
 327 -10 327 -10 219 -10 c 0,6,7
 113 -10 113 -10 62.5 56 c 128,-1,8
 12 122 12 122 30 238 c 0,9,10
 48 350 48 350 118 415 c 128,-1,11
 188 480 188 480 292 480 c 0,12,13
 392 480 392 480 441 422 c 1,14,-1
 443 423 l 1,15,16
 425 522 425 522 375 605 c 1,17,-1
 136 511 l 1,18,-1
 127 551 l 1,19,-1
 353 640 l 1,20,21
 323 682 323 682 286 710.5 c 128,-1,22
 249 739 249 739 209 749 c 1,23,-1
 230 790 l 1,24,25
 278 777 278 777 321 742.5 c 128,-1,26
 364 708 364 708 398 658 c 1,27,-1
 572 726 l 1,28,-1
 582 686 l 1,29,-1
 420 622 l 1,0,1
369.5 87.5 m 128,-1,31
 427 142 427 142 442 238 c 0,32,33
 457 332 457 332 417 384.5 c 128,-1,34
 377 437 377 437 290 437 c 0,35,36
 204 437 204 437 147.5 385 c 128,-1,37
 91 333 91 333 76 238 c 0,38,39
 61 142 61 142 100.5 87.5 c 128,-1,40
 140 33 140 33 226 33 c 256,41,30
 312 33 312 33 369.5 87.5 c 128,-1,31
EndSplineSet
EndChar

StartChar: dcroat
Encoding: 273 273 238
Width: 596
Flags: W
LayerCount: 2
Fore
SplineSet
620 603 m 1,0,-1
 509 603 l 1,1,-1
 414 0 l 1,2,-1
 370 0 l 1,3,-1
 384 89 l 1,4,-1
 382 89 l 1,5,6
 350 43 350 43 299.5 16.5 c 128,-1,7
 249 -10 249 -10 192 -10 c 0,8,9
 99 -10 99 -10 58 61.5 c 128,-1,10
 17 133 17 133 37 260 c 256,11,12
 57 387 57 387 120.5 458.5 c 128,-1,13
 184 530 184 530 277 530 c 0,14,15
 334 530 334 530 376 503.5 c 128,-1,16
 418 477 418 477 434 431 c 1,17,-1
 436 431 l 1,18,-1
 463 603 l 1,19,-1
 221 603 l 1,20,-1
 228 647 l 1,21,-1
 470 647 l 1,22,-1
 487 750 l 1,23,-1
 533 750 l 1,24,-1
 516 647 l 1,25,-1
 627 647 l 1,26,-1
 620 603 l 1,0,-1
297.5 58.5 m 128,-1,28
 339 84 339 84 367.5 130 c 128,-1,29
 396 176 396 176 405 236 c 2,30,-1
 413 284 l 2,31,32
 423 344 423 344 409 390 c 128,-1,33
 395 436 395 436 361.5 461.5 c 128,-1,34
 328 487 328 487 280 487 c 0,35,36
 205 487 205 487 153 426.5 c 128,-1,37
 101 366 101 366 84 260 c 256,38,39
 67 154 67 154 100 93.5 c 128,-1,40
 133 33 133 33 208 33 c 0,41,27
 256 33 256 33 297.5 58.5 c 128,-1,28
EndSplineSet
EndChar

StartChar: e
Encoding: 101 101 240
Width: 504
GlyphClass: 2
Flags: W
AnchorPoint: "Anchor-6" 227 520 basechar 0
AnchorPoint: "Anchor-5" 432 33 basechar 0
AnchorPoint: "Anchor-4" 227 0 basechar 0
LayerCount: 2
Fore
SplineSet
461 244 m 1,1,-1
 76 244 l 1,2,3
 62 141 62 141 104 87 c 128,-1,4
 146 33 146 33 241 33 c 0,5,6
 322 33 322 33 399 68 c 1,7,-1
 405 28 l 1,8,9
 365 10 365 10 320 0 c 128,-1,10
 275 -10 275 -10 233 -10 c 0,11,12
 116 -10 116 -10 64.5 60 c 128,-1,13
 13 130 13 130 33 260 c 0,14,15
 53 389 53 389 121.5 459.5 c 128,-1,16
 190 530 190 530 293 530 c 256,17,18
 396 530 396 530 440.5 460 c 128,-1,19
 485 390 485 390 465 260 c 0,20,0
 463 248 463 248 461 244 c 1,1,-1
155 436.5 m 128,-1,22
 103 385 103 385 83 285 c 1,23,-1
 425 285 l 1,24,25
 437 385 437 385 401.5 436.5 c 128,-1,26
 366 488 366 488 287 488 c 0,27,21
 207 488 207 488 155 436.5 c 128,-1,22
EndSplineSet
EndChar

StartChar: eogonek
Encoding: 281 281 258
Width: 506
GlyphClass: 2
Flags: W
AnchorPoint: "Anchor-6" 227 520 basechar 0
AnchorPoint: "Anchor-5" 432 33 basechar 0
AnchorPoint: "Anchor-4" 227 0 basechar 0
LayerCount: 2
Fore
SplineSet
458 -165 m 1,0,1
 409 -186 409 -186 355 -186 c 0,2,3
 285 -186 285 -186 258.5 -159.5 c 128,-1,4
 232 -133 232 -133 238 -94 c 0,5,6
 245 -49 245 -49 291 -6 c 1,7,8
 252 -10 252 -10 232 -10 c 0,9,10
 115 -10 115 -10 64 60 c 128,-1,11
 13 130 13 130 33 260 c 0,12,13
 53 389 53 389 121.5 459.5 c 128,-1,14
 190 530 190 530 293 530 c 256,15,16
 396 530 396 530 440.5 460 c 128,-1,17
 485 390 485 390 464 260 c 0,18,19
 462 248 462 248 461 244 c 1,20,-1
 76 244 l 1,21,22
 62 141 62 141 104 87 c 128,-1,23
 146 33 146 33 241 33 c 0,24,25
 322 33 322 33 398 68 c 1,26,-1
 404 34 l 1,27,-1
 407 33 l 1,28,-1
 405 32 l 1,29,-1
 405 28 l 1,30,-1
 380 17 l 1,31,32
 337 -8 337 -8 312 -35 c 128,-1,33
 287 -62 287 -62 283 -88 c 0,34,35
 278 -118 278 -118 302 -131 c 128,-1,36
 326 -144 326 -144 364 -144 c 0,37,38
 411 -144 411 -144 454 -125 c 1,39,-1
 458 -165 l 1,0,1
155 436.5 m 128,-1,41
 103 385 103 385 83 285 c 1,42,-1
 424 285 l 1,43,44
 436 385 436 385 400.5 436.5 c 128,-1,45
 365 488 365 488 286 488 c 256,46,40
 207 488 207 488 155 436.5 c 128,-1,41
EndSplineSet
EndChar

StartChar: uni0259
Encoding: 601 601 260
Width: 504
GlyphClass: 2
Flags: W
AnchorPoint: "Anchor-6" 222 520 basechar 0
AnchorPoint: "Anchor-5" 17 487 basechar 0
AnchorPoint: "Anchor-4" 222 0 basechar 0
LayerCount: 2
Fore
SplineSet
432.5 460 m 128,-1,1
 484 390 484 390 463 260 c 0,2,3
 443 131 443 131 374.5 60.5 c 128,-1,4
 306 -10 306 -10 203 -10 c 256,5,6
 100 -10 100 -10 55.5 60 c 128,-1,7
 11 130 11 130 32 260 c 0,8,9
 34 272 34 272 35 276 c 1,10,-1
 420 276 l 1,11,12
 434 379 434 379 392 433 c 128,-1,13
 350 487 350 487 255 487 c 0,14,15
 174 487 174 487 98 452 c 1,16,-1
 91 492 l 1,17,18
 131 510 131 510 176 520 c 128,-1,19
 221 530 221 530 264 530 c 0,20,0
 381 530 381 530 432.5 460 c 128,-1,1
341.5 83.5 m 128,-1,22
 393 135 393 135 414 235 c 1,23,-1
 72 235 l 1,24,25
 60 135 60 135 95.5 83.5 c 128,-1,26
 131 32 131 32 210 32 c 0,27,21
 290 32 290 32 341.5 83.5 c 128,-1,22
EndSplineSet
EndChar

StartChar: f
Encoding: 102 102 261
Width: 402
Flags: W
LayerCount: 2
Fore
SplineSet
53 477 m 1,0,-1
 60 520 l 1,1,-1
 202 520 l 1,2,-1
 214 598 l 2,3,4
 227 681 227 681 266 720.5 c 128,-1,5
 305 760 305 760 373 760 c 0,6,7
 412 760 412 760 452 745 c 1,8,-1
 436 703 l 1,9,10
 406 717 406 717 371 717 c 0,11,12
 322 717 322 717 296 689.5 c 128,-1,13
 270 662 270 662 260 598 c 2,14,-1
 248 520 l 1,15,-1
 414 520 l 1,16,-1
 407 477 l 1,17,-1
 241 477 l 1,18,-1
 165 0 l 1,19,-1
 119 0 l 1,20,-1
 195 477 l 1,21,-1
 53 477 l 1,0,-1
EndSplineSet
EndChar

StartChar: g
Encoding: 103 103 262
Width: 531
GlyphClass: 2
Flags: W
AnchorPoint: "Anchor-6" 235 520 basechar 0
AnchorPoint: "Anchor-4" 235 -140 basechar 0
LayerCount: 2
Fore
SplineSet
495 520 m 1,0,-1
 419 35 l 2,1,2
 398 -99 398 -99 331 -164.5 c 128,-1,3
 264 -230 264 -230 149 -230 c 0,4,5
 55 -230 55 -230 -21 -188 c 1,6,-1
 -1 -149 l 1,7,8
 68 -187 68 -187 151 -187 c 0,9,10
 247 -187 247 -187 300.5 -133.5 c 128,-1,11
 354 -80 354 -80 372 35 c 2,12,-1
 381 89 l 1,13,-1
 379 89 l 1,14,15
 349 43 349 43 298.5 16.5 c 128,-1,16
 248 -10 248 -10 191 -10 c 0,17,18
 98 -10 98 -10 57.5 61.5 c 128,-1,19
 17 133 17 133 37 260 c 256,20,21
 57 387 57 387 120 458.5 c 128,-1,22
 183 530 183 530 276 530 c 0,23,24
 333 530 333 530 375.5 503.5 c 128,-1,25
 418 477 418 477 435 431 c 1,26,-1
 437 431 l 1,27,-1
 451 520 l 1,28,-1
 495 520 l 1,0,-1
296.5 58.5 m 128,-1,30
 338 84 338 84 366.5 130 c 128,-1,31
 395 176 395 176 404 236 c 2,32,-1
 412 284 l 2,33,34
 422 344 422 344 408 390 c 128,-1,35
 394 436 394 436 360.5 461.5 c 128,-1,36
 327 487 327 487 279 487 c 0,37,38
 204 487 204 487 152 426.5 c 128,-1,39
 100 366 100 366 83 260 c 256,40,41
 66 154 66 154 99 93.5 c 128,-1,42
 132 33 132 33 207 33 c 0,43,29
 255 33 255 33 296.5 58.5 c 128,-1,30
EndSplineSet
EndChar

StartChar: h
Encoding: 104 104 268
Width: 538
GlyphClass: 2
Flags: W
AnchorPoint: "Anchor-6" 234 750 basechar 0
AnchorPoint: "Anchor-4" 234 0 basechar 0
LayerCount: 2
Fore
SplineSet
462.5 476.5 m 128,-1,1
 494 423 494 423 477 320 c 2,2,-1
 427 0 l 1,3,-1
 380 0 l 1,4,-1
 429 313 l 2,5,6
 457 487 457 487 337 487 c 0,7,8
 288 487 288 487 240.5 459 c 128,-1,9
 193 431 193 431 160.5 384 c 128,-1,10
 128 337 128 337 119 282 c 2,11,-1
 75 0 l 1,12,-1
 29 0 l 1,13,-1
 147 750 l 1,14,-1
 194 750 l 1,15,-1
 141 421 l 1,16,-1
 143 421 l 1,17,18
 177 470 177 470 235 500 c 128,-1,19
 293 530 293 530 353 530 c 0,20,0
 431 530 431 530 462.5 476.5 c 128,-1,1
EndSplineSet
EndChar

StartChar: hbar
Encoding: 295 295 269
Width: 601
GlyphClass: 2
Flags: W
AnchorPoint: "Anchor-6" 300 750 basechar 0
AnchorPoint: "Anchor-4" 300 0 basechar 0
LayerCount: 2
Fore
SplineSet
526.5 476.5 m 128,-1,1
 558 423 558 423 541 320 c 2,2,-1
 491 0 l 1,3,-1
 444 0 l 1,4,-1
 493 313 l 2,5,6
 521 487 521 487 401 487 c 0,7,8
 352 487 352 487 304.5 459 c 128,-1,9
 257 431 257 431 224.5 384 c 128,-1,10
 192 337 192 337 183 282 c 2,11,-1
 139 0 l 1,12,-1
 93 0 l 1,13,-1
 188 603 l 1,14,-1
 77 603 l 1,15,-1
 84 647 l 1,16,-1
 195 647 l 1,17,-1
 211 750 l 1,18,-1
 257 750 l 1,19,-1
 241 647 l 1,20,-1
 482 647 l 1,21,-1
 475 603 l 1,22,-1
 234 603 l 1,23,-1
 205 421 l 1,24,-1
 207 421 l 1,25,26
 241 470 241 470 299 500 c 128,-1,27
 357 530 357 530 417 530 c 0,28,0
 495 530 495 530 526.5 476.5 c 128,-1,1
EndSplineSet
EndChar

StartChar: i
Encoding: 105 105 271
Width: 234
GlyphClass: 2
Flags: W
AnchorPoint: "Anchor-6" 82 520 basechar 0
AnchorPoint: "Anchor-5" 107 0 basechar 0
AnchorPoint: "Anchor-4" 82 0 basechar 0
LayerCount: 2
Fore
SplineSet
152 733 m 1,0,-1
 224 733 l 1,1,-1
 212 657 l 1,2,-1
 140 657 l 1,3,-1
 152 733 l 1,0,-1
131 520 m 1,4,-1
 178 520 l 1,5,-1
 95 0 l 1,6,-1
 48 0 l 1,7,-1
 131 520 l 1,4,-1
EndSplineSet
Substitution2: "Single Substitution lookup 19 subtable" dotlessi
Substitution2: "'locl' Localized Forms in Latin lookup 3 subtable" i.loclTRK
Substitution2: "'aalt' Access All Alternates in Latin lookup 0 subtable" i.loclTRK
EndChar

StartChar: dotlessi
Encoding: 305 305 272
Width: 208
GlyphClass: 2
Flags: W
AnchorPoint: "Anchor-6" 69 520 basechar 0
AnchorPoint: "Anchor-5" 94 0 basechar 0
AnchorPoint: "Anchor-4" 69 0 basechar 0
LayerCount: 2
Fore
SplineSet
118 520 m 1,0,-1
 165 520 l 1,1,-1
 83 0 l 1,2,-1
 36 0 l 1,3,-1
 118 520 l 1,0,-1
EndSplineSet
EndChar

StartChar: iogonek
Encoding: 303 303 284
Width: 215
GlyphClass: 2
Flags: W
AnchorPoint: "Anchor-6" 69 706 basechar 0
AnchorPoint: "Anchor-5" 94 0 basechar 0
AnchorPoint: "Anchor-4" 69 0 basechar 0
LayerCount: 2
Fore
SplineSet
213 706 m 1,0,-1
 201 624 l 1,1,-1
 123 624 l 1,2,-1
 136 706 l 1,3,-1
 213 706 l 1,0,-1
138 -198 m 1,4,5
 89 -219 89 -219 35 -219 c 0,6,7
 -35 -219 -35 -219 -61.5 -192.5 c 128,-1,8
 -88 -166 -88 -166 -81 -127 c 0,9,10
 -75 -90 -75 -90 -43.5 -54 c 128,-1,11
 -12 -18 -12 -18 42 14 c 1,12,-1
 122 520 l 1,13,-1
 169 520 l 1,14,-1
 87 0 l 1,15,16
 32 -29 32 -29 0 -60.5 c 128,-1,17
 -32 -92 -32 -92 -36 -121 c 0,18,19
 -41 -151 -41 -151 -17.5 -164 c 128,-1,20
 6 -177 6 -177 45 -177 c 0,21,22
 92 -177 92 -177 134 -158 c 1,23,-1
 138 -198 l 1,4,5
EndSplineSet
EndChar

StartChar: j
Encoding: 106 106 286
Width: 290
GlyphClass: 2
Flags: W
AnchorPoint: "Anchor-6" 103 520 basechar 0
AnchorPoint: "Anchor-4" 103 -140 basechar 0
LayerCount: 2
Fore
SplineSet
209 733 m 1,0,-1
 280 733 l 1,1,-1
 268 657 l 1,2,-1
 197 657 l 1,3,-1
 209 733 l 1,0,-1
-0.5 -171.5 m 128,-1,5
 46 -156 46 -156 69.5 -115.5 c 128,-1,6
 93 -75 93 -75 106 7 c 2,7,-1
 187 520 l 1,8,-1
 234 520 l 1,9,-1
 153 7 l 2,10,11
 138 -89 138 -89 107 -139 c 128,-1,12
 76 -189 76 -189 18.5 -209.5 c 128,-1,13
 -39 -230 -39 -230 -143 -230 c 1,14,-1
 -137 -187 l 1,15,4
 -47 -187 -47 -187 -0.5 -171.5 c 128,-1,5
EndSplineSet
Substitution2: "Single Substitution lookup 19 subtable" uni0237
EndChar

StartChar: uni0237
Encoding: 567 567 287
Width: 278
GlyphClass: 2
Flags: W
AnchorPoint: "Anchor-6" 104 520 basechar 0
AnchorPoint: "Anchor-4" 104 -140 basechar 0
LayerCount: 2
Fore
SplineSet
-0.5 -171.5 m 128,-1,1
 46 -156 46 -156 69.5 -115.5 c 128,-1,2
 93 -75 93 -75 106 7 c 2,3,-1
 187 520 l 1,4,-1
 234 520 l 1,5,-1
 153 7 l 2,6,7
 138 -89 138 -89 107.5 -139 c 128,-1,8
 77 -189 77 -189 19 -209.5 c 128,-1,9
 -39 -230 -39 -230 -143 -230 c 1,10,-1
 -137 -187 l 1,11,0
 -47 -187 -47 -187 -0.5 -171.5 c 128,-1,1
EndSplineSet
EndChar

StartChar: k
Encoding: 107 107 289
Width: 503
GlyphClass: 2
Flags: W
AnchorPoint: "Anchor-6" 190 750 basechar 0
AnchorPoint: "Anchor-4" 190 0 basechar 0
LayerCount: 2
Fore
SplineSet
147 750 m 1,0,-1
 194 750 l 1,1,-1
 120 286 l 1,2,-1
 122 286 l 1,3,-1
 430 520 l 1,4,-1
 494 520 l 1,5,-1
 162 270 l 1,6,-1
 425 0 l 1,7,-1
 361 0 l 1,8,-1
 117 253 l 1,9,-1
 115 253 l 1,10,-1
 75 0 l 1,11,-1
 29 0 l 1,12,-1
 147 750 l 1,0,-1
EndSplineSet
EndChar

StartChar: kgreenlandic
Encoding: 312 312 291
Width: 503
GlyphClass: 2
Flags: W
AnchorPoint: "Anchor-6" 190 520 basechar 0
AnchorPoint: "Anchor-4" 190 0 basechar 0
LayerCount: 2
Fore
SplineSet
111 520 m 1,0,-1
 157 520 l 1,1,-1
 120 286 l 1,2,-1
 122 286 l 1,3,-1
 430 520 l 1,4,-1
 494 520 l 1,5,-1
 162 270 l 1,6,-1
 425 0 l 1,7,-1
 361 0 l 1,8,-1
 117 253 l 1,9,-1
 115 253 l 1,10,-1
 75 0 l 1,11,-1
 29 0 l 1,12,-1
 111 520 l 1,0,-1
EndSplineSet
EndChar

StartChar: l
Encoding: 108 108 292
Width: 292
GlyphClass: 2
Flags: W
LayerCount: 2
Fore
SplineSet
155 750 m 1,0,-1
 200 750 l 1,1,-1
 105 153 l 2,2,3
 93 77 93 77 110 54 c 0,4,5
 125 30 125 30 182 30 c 0,6,7
 228 30 228 30 265 45 c 1,8,-1
 269 7 l 1,9,10
 220 -10 220 -10 171 -10 c 0,11,12
 95 -10 95 -10 70 24 c 0,13,14
 46 59 46 59 59 147 c 2,15,-1
 155 750 l 1,0,-1
EndSplineSet
EndChar

StartChar: lacute
Encoding: 314 314 293
Width: 292
GlyphClass: 2
Flags: W
LayerCount: 2
Fore
SplineSet
155 750 m 1,0,-1
 200 750 l 1,1,-1
 105 153 l 2,2,3
 93 77 93 77 110 54 c 0,4,5
 125 30 125 30 182 30 c 0,6,7
 228 30 228 30 265 45 c 1,8,-1
 269 7 l 1,9,10
 220 -10 220 -10 171 -10 c 0,11,12
 95 -10 95 -10 70 24 c 0,13,14
 46 59 46 59 59 147 c 2,15,-1
 155 750 l 1,0,-1
181 790 m 1,16,-1
 130 790 l 1,17,-1
 274 1000 l 1,18,-1
 334 1000 l 1,19,-1
 181 790 l 1,16,-1
EndSplineSet
EndChar

StartChar: uni013C
Encoding: 316 316 295
Width: 292
GlyphClass: 2
Flags: W
LayerCount: 2
Fore
SplineSet
155 750 m 1,0,-1
 200 750 l 1,1,-1
 105 153 l 2,2,3
 93 77 93 77 110 54 c 0,4,5
 125 30 125 30 182 30 c 0,6,7
 228 30 228 30 265 45 c 1,8,-1
 269 7 l 1,9,10
 220 -10 220 -10 171 -10 c 0,11,12
 95 -10 95 -10 70 24 c 0,13,14
 46 59 46 59 59 147 c 2,15,-1
 155 750 l 1,0,-1
31 -250 m 1,16,-1
 -20 -250 l 1,17,-1
 124 -40 l 1,18,-1
 183 -40 l 1,19,-1
 31 -250 l 1,16,-1
EndSplineSet
EndChar

StartChar: lslash
Encoding: 322 322 298
Width: 378
GlyphClass: 2
Flags: W
LayerCount: 2
Fore
SplineSet
387 423 m 1,0,-1
 27 267 l 1,1,-1
 17 307 l 1,2,-1
 377 463 l 1,3,-1
 387 423 l 1,0,-1
240 750 m 1,4,-1
 285 750 l 1,5,-1
 190 153 l 2,6,7
 178 79 178 79 194 54 c 0,8,9
 212 30 212 30 267 30 c 0,10,11
 312 30 312 30 350 45 c 1,12,-1
 354 7 l 1,13,14
 305 -10 305 -10 256 -10 c 0,15,16
 180 -10 180 -10 154 24 c 0,17,18
 131 59 131 59 144 147 c 2,19,-1
 240 750 l 1,4,-1
EndSplineSet
EndChar

StartChar: m
Encoding: 109 109 299
Width: 750
Flags: W
CounterMasks: 1 1c
LayerCount: 2
Fore
SplineSet
690 320 m 2,1,-1
 639 0 l 1,2,-1
 594 0 l 1,3,-1
 644 313 l 2,4,5
 658 399 658 399 641 443 c 128,-1,6
 624 487 624 487 576 487 c 0,7,8
 539 487 539 487 502 461.5 c 128,-1,9
 465 436 465 436 438.5 393.5 c 128,-1,10
 412 351 412 351 404 302 c 2,11,-1
 356 0 l 1,12,-1
 311 0 l 1,13,-1
 361 313 l 2,14,15
 375 399 375 399 358 443 c 128,-1,16
 341 487 341 487 293 487 c 0,17,18
 254 487 254 487 217 459 c 128,-1,19
 180 431 180 431 153.5 383 c 128,-1,20
 127 335 127 335 118 278 c 2,21,-1
 74 0 l 1,22,-1
 29 0 l 1,23,-1
 111 520 l 1,24,-1
 154 520 l 1,25,-1
 141 431 l 1,26,-1
 143 431 l 1,27,28
 174 477 174 477 218.5 503.5 c 128,-1,29
 263 530 263 530 311 530 c 0,30,31
 400 530 400 530 412 431 c 1,32,-1
 413 431 l 1,33,34
 446 475 446 475 495.5 502.5 c 128,-1,35
 545 530 545 530 594 530 c 0,36,0
 723 530 723 530 690 320 c 2,1,-1
EndSplineSet
EndChar

StartChar: n
Encoding: 110 110 300
Width: 538
GlyphClass: 2
Flags: W
AnchorPoint: "Anchor-6" 245 520 basechar 0
AnchorPoint: "Anchor-4" 245 0 basechar 0
LayerCount: 2
Fore
SplineSet
462 477 m 128,-1,1
 494 424 494 424 477 320 c 2,2,-1
 427 0 l 1,3,-1
 380 0 l 1,4,-1
 429 313 l 2,5,6
 457 487 457 487 335 487 c 0,7,8
 286 487 286 487 239 459 c 128,-1,9
 192 431 192 431 160 384 c 128,-1,10
 128 337 128 337 119 282 c 2,11,-1
 75 0 l 1,12,-1
 29 0 l 1,13,-1
 111 520 l 1,14,-1
 155 520 l 1,15,-1
 140 421 l 1,16,-1
 141 421 l 1,17,18
 176 471 176 471 233.5 500.5 c 128,-1,19
 291 530 291 530 351 530 c 0,20,0
 430 530 430 530 462 477 c 128,-1,1
EndSplineSet
EndChar

StartChar: eng
Encoding: 331 331 304
Width: 538
GlyphClass: 2
Flags: W
AnchorPoint: "Anchor-6" 245 520 basechar 0
AnchorPoint: "Anchor-4" 245 0 basechar 0
LayerCount: 2
Fore
SplineSet
462 477 m 128,-1,1
 494 424 494 424 477 320 c 2,2,-1
 419 -49 l 2,3,4
 405 -135 405 -135 364.5 -174.5 c 128,-1,5
 324 -214 324 -214 249 -214 c 0,6,7
 203 -214 203 -214 164 -199 c 1,8,-1
 181 -156 l 1,9,10
 211 -170 211 -170 248 -170 c 0,11,12
 304 -170 304 -170 333 -141.5 c 128,-1,13
 362 -113 362 -113 372 -49 c 2,14,-1
 429 313 l 2,15,16
 457 487 457 487 335 487 c 0,17,18
 286 487 286 487 239 459 c 128,-1,19
 192 431 192 431 160 384 c 128,-1,20
 128 337 128 337 119 282 c 2,21,-1
 75 0 l 1,22,-1
 29 0 l 1,23,-1
 111 520 l 1,24,-1
 155 520 l 1,25,-1
 137 406 l 1,26,-1
 139 406 l 1,27,28
 176 463 176 463 232.5 496.5 c 128,-1,29
 289 530 289 530 351 530 c 0,30,0
 430 530 430 530 462 477 c 128,-1,1
EndSplineSet
EndChar

StartChar: o
Encoding: 111 111 307
Width: 524
GlyphClass: 2
Flags: W
AnchorPoint: "Anchor-7" 388 480 basechar 0
AnchorPoint: "Anchor-6" 235 520 basechar 0
AnchorPoint: "Anchor-5" 290 0 basechar 0
AnchorPoint: "Anchor-4" 235 0 basechar 0
LayerCount: 2
Fore
SplineSet
61.5 61.5 m 128,-1,1
 13 133 13 133 33 260 c 256,2,3
 53 387 53 387 124.5 458.5 c 128,-1,4
 196 530 196 530 301 530 c 0,5,6
 407 530 407 530 455.5 458.5 c 128,-1,7
 504 387 504 387 484 260 c 256,8,9
 464 133 464 133 393 61.5 c 128,-1,10
 322 -10 322 -10 215 -10 c 0,11,0
 110 -10 110 -10 61.5 61.5 c 128,-1,1
364.5 92.5 m 128,-1,13
 421 152 421 152 438 260 c 256,14,15
 455 368 455 368 417.5 427.5 c 128,-1,16
 380 487 380 487 294 487 c 0,17,18
 209 487 209 487 153 428 c 128,-1,19
 97 369 97 369 80 260 c 256,20,21
 63 151 63 151 100.5 92 c 128,-1,22
 138 33 138 33 222 33 c 0,23,12
 308 33 308 33 364.5 92.5 c 128,-1,13
EndSplineSet
Substitution2: "Single Substitution lookup 21 subtable" ordmasculine
Substitution2: "'aalt' Access All Alternates in Latin lookup 0 subtable" ordmasculine
EndChar

StartChar: ohorn
Encoding: 417 417 323
Width: 552
GlyphClass: 2
Flags: W
AnchorPoint: "Anchor-7" 577 633 basechar 0
AnchorPoint: "Anchor-6" 235 520 basechar 0
AnchorPoint: "Anchor-5" 290 0 basechar 0
AnchorPoint: "Anchor-4" 235 0 basechar 0
LayerCount: 2
Fore
SplineSet
566.5 448 m 128,-1,1
 537 418 537 418 493 418 c 0,2,3
 482 418 482 418 475 419 c 1,4,5
 499 356 499 356 484 260 c 0,6,7
 464 133 464 133 393 61.5 c 128,-1,8
 322 -10 322 -10 215 -10 c 0,9,10
 110 -10 110 -10 61.5 61.5 c 128,-1,11
 13 133 13 133 33 260 c 256,12,13
 53 387 53 387 124.5 458.5 c 128,-1,14
 196 530 196 530 301 530 c 0,15,16
 393 530 393 530 442 475 c 1,17,18
 462 462 462 462 487 462 c 0,19,20
 545 462 545 462 557 536 c 0,21,22
 560 558 560 558 560 586.5 c 128,-1,23
 560 615 560 615 555 633 c 1,24,-1
 603 633 l 1,25,26
 612 582 612 582 604 532 c 0,27,0
 596 478 596 478 566.5 448 c 128,-1,1
364.5 92.5 m 128,-1,29
 421 152 421 152 438 260 c 256,30,31
 455 368 455 368 417.5 427.5 c 128,-1,32
 380 487 380 487 294 487 c 0,33,34
 209 487 209 487 153 428 c 128,-1,35
 97 369 97 369 80 260 c 256,36,37
 63 151 63 151 100.5 92 c 128,-1,38
 138 33 138 33 222 33 c 0,39,28
 308 33 308 33 364.5 92.5 c 128,-1,29
EndSplineSet
EndChar

StartChar: uni01EB
Encoding: 491 491 332
Width: 524
GlyphClass: 2
Flags: W
AnchorPoint: "Anchor-7" 388 480 basechar 0
AnchorPoint: "Anchor-6" 235 520 basechar 0
AnchorPoint: "Anchor-5" 290 0 basechar 0
AnchorPoint: "Anchor-4" 235 0 basechar 0
LayerCount: 2
Fore
SplineSet
177 -64 m 128,-1,1
 149 -93 149 -93 144 -121 c 0,2,3
 139 -151 139 -151 163 -164 c 128,-1,4
 187 -177 187 -177 226 -177 c 0,5,6
 274 -177 274 -177 315 -158 c 1,7,-1
 319 -198 l 1,8,9
 270 -219 270 -219 216 -219 c 0,10,11
 146 -219 146 -219 119.5 -192.5 c 128,-1,12
 93 -166 93 -166 99 -127 c 0,13,14
 109 -66 109 -66 188 -9 c 1,15,16
 97 1 97 1 56 71.5 c 128,-1,17
 15 142 15 142 33 260 c 0,18,19
 53 387 53 387 124.5 458.5 c 128,-1,20
 196 530 196 530 301 530 c 0,21,22
 407 530 407 530 455 458.5 c 128,-1,23
 503 387 503 387 483 260 c 0,24,25
 465 146 465 146 404.5 76 c 128,-1,26
 344 6 344 6 254 -7 c 1,27,0
 205 -35 205 -35 177 -64 c 128,-1,1
100 92 m 128,-1,29
 138 33 138 33 222 33 c 0,30,31
 307 33 307 33 363.5 92.5 c 128,-1,32
 420 152 420 152 437 260 c 256,33,34
 454 368 454 368 416.5 427.5 c 128,-1,35
 379 487 379 487 294 487 c 0,36,37
 210 487 210 487 153.5 428 c 128,-1,38
 97 369 97 369 80 260 c 256,39,28
 62 151 62 151 100 92 c 128,-1,29
EndSplineSet
EndChar

StartChar: oslash
Encoding: 248 248 333
Width: 524
GlyphClass: 2
Flags: W
AnchorPoint: "Anchor-7" 388 480 basechar 0
AnchorPoint: "Anchor-6" 235 520 basechar 0
AnchorPoint: "Anchor-5" 290 0 basechar 0
AnchorPoint: "Anchor-4" 235 0 basechar 0
LayerCount: 2
Fore
SplineSet
484 260 m 0,1,2
 464 133 464 133 392.5 61.5 c 128,-1,3
 321 -10 321 -10 215 -10 c 0,4,5
 134 -10 134 -10 86 33 c 1,6,-1
 39 -22 l 1,7,-1
 12 2 l 1,8,-1
 62 60 l 1,9,10
 13 133 13 133 33 260 c 256,11,12
 53 387 53 387 124.5 458.5 c 128,-1,13
 196 530 196 530 301 530 c 0,14,15
 383 530 383 530 430 487 c 1,16,-1
 478 542 l 1,17,-1
 504 518 l 1,18,-1
 454 460 l 1,19,0
 504 389 504 389 484 260 c 0,1,2
96 99 m 1,21,-1
 398 450 l 1,22,23
 360 487 360 487 294 487 c 0,24,25
 209 487 209 487 153 428 c 128,-1,26
 97 369 97 369 80 260 c 0,27,20
 63 157 63 157 96 99 c 1,21,-1
364.5 92.5 m 128,-1,29
 421 152 421 152 438 260 c 0,30,31
 454 362 454 362 420 421 c 1,32,-1
 118 70 l 1,33,34
 156 33 156 33 222 33 c 0,35,28
 308 33 308 33 364.5 92.5 c 128,-1,29
EndSplineSet
EndChar

StartChar: oe
Encoding: 339 339 337
Width: 908
Flags: W
LayerCount: 2
Fore
SplineSet
866 244 m 1,1,-1
 480 244 l 1,2,3
 466 141 466 141 507 87 c 128,-1,4
 548 33 548 33 639 33 c 0,5,6
 680 33 680 33 723 43.5 c 128,-1,7
 766 54 766 54 802 73 c 1,8,-1
 810 35 l 1,9,10
 770 13 770 13 723.5 1.5 c 128,-1,11
 677 -10 677 -10 630 -10 c 0,12,13
 551 -10 551 -10 502.5 24.5 c 128,-1,14
 454 59 454 59 439 124 c 1,15,16
 403 59 403 59 346 24.5 c 128,-1,17
 289 -10 289 -10 215 -10 c 0,18,19
 110 -10 110 -10 61.5 61.5 c 128,-1,20
 13 133 13 133 33 260 c 256,21,22
 53 387 53 387 124.5 458.5 c 128,-1,23
 196 530 196 530 301 530 c 0,24,25
 374 530 374 530 420 495.5 c 128,-1,26
 466 461 466 461 481 397 c 1,27,28
 516 462 516 462 571 496 c 128,-1,29
 626 530 626 530 697 530 c 0,30,31
 800 530 800 530 845 460 c 128,-1,32
 890 390 890 390 869 260 c 0,33,0
 868 248 868 248 866 244 c 1,1,-1
559 436.5 m 128,-1,35
 507 385 507 385 487 285 c 1,36,-1
 829 285 l 1,37,38
 841 385 841 385 805.5 436.5 c 128,-1,39
 770 488 770 488 691 488 c 0,40,34
 611 488 611 488 559 436.5 c 128,-1,35
364.5 92.5 m 128,-1,42
 421 152 421 152 438 260 c 256,43,44
 455 368 455 368 417.5 427.5 c 128,-1,45
 380 487 380 487 294 487 c 0,46,47
 209 487 209 487 153 428 c 128,-1,48
 97 369 97 369 80 260 c 256,49,50
 63 151 63 151 100.5 92 c 128,-1,51
 138 33 138 33 222 33 c 0,52,41
 308 33 308 33 364.5 92.5 c 128,-1,42
EndSplineSet
EndChar

StartChar: p
Encoding: 112 112 338
Width: 528
Flags: W
LayerCount: 2
Fore
SplineSet
467 458.5 m 128,-1,1
 508 387 508 387 488 260 c 256,2,3
 468 133 468 133 404.5 61.5 c 128,-1,4
 341 -10 341 -10 248 -10 c 0,5,6
 191 -10 191 -10 149 16.5 c 128,-1,7
 107 43 107 43 91 89 c 1,8,-1
 89 89 l 1,9,-1
 40 -220 l 1,10,-1
 -6 -220 l 1,11,-1
 111 520 l 1,12,-1
 155 520 l 1,13,-1
 141 431 l 1,14,-1
 143 431 l 1,15,16
 175 477 175 477 225.5 503.5 c 128,-1,17
 276 530 276 530 333 530 c 0,18,0
 426 530 426 530 467 458.5 c 128,-1,1
372 93.5 m 128,-1,20
 424 154 424 154 441 260 c 256,21,22
 458 366 458 366 425 426.5 c 128,-1,23
 392 487 392 487 317 487 c 0,24,25
 269 487 269 487 227.5 461.5 c 128,-1,26
 186 436 186 436 157.5 390 c 128,-1,27
 129 344 129 344 120 284 c 2,28,-1
 112 236 l 2,29,30
 102 176 102 176 116 130 c 128,-1,31
 130 84 130 84 163.5 58.5 c 128,-1,32
 197 33 197 33 245 33 c 0,33,19
 320 33 320 33 372 93.5 c 128,-1,20
EndSplineSet
EndChar

StartChar: thorn
Encoding: 254 254 339
Width: 532
Flags: W
LayerCount: 2
Fore
SplineSet
467 458.5 m 128,-1,1
 508 387 508 387 488 260 c 256,2,3
 468 133 468 133 404.5 61.5 c 128,-1,4
 341 -10 341 -10 248 -10 c 0,5,6
 191 -10 191 -10 149 16.5 c 128,-1,7
 107 43 107 43 91 89 c 1,8,-1
 89 89 l 1,9,-1
 40 -220 l 1,10,-1
 -6 -220 l 1,11,-1
 147 750 l 1,12,-1
 194 750 l 1,13,-1
 143 431 l 1,14,-1
 145 431 l 1,15,16
 176 477 176 477 226 503.5 c 128,-1,17
 276 530 276 530 333 530 c 0,18,0
 426 530 426 530 467 458.5 c 128,-1,1
372 93.5 m 128,-1,20
 424 154 424 154 441 260 c 256,21,22
 458 366 458 366 425 426.5 c 128,-1,23
 392 487 392 487 317 487 c 0,24,25
 269 487 269 487 227.5 461.5 c 128,-1,26
 186 436 186 436 157.5 390 c 128,-1,27
 129 344 129 344 120 284 c 2,28,-1
 112 236 l 2,29,30
 102 176 102 176 116 130 c 128,-1,31
 130 84 130 84 163.5 58.5 c 128,-1,32
 197 33 197 33 245 33 c 0,33,19
 320 33 320 33 372 93.5 c 128,-1,20
EndSplineSet
EndChar

StartChar: q
Encoding: 113 113 340
Width: 528
Flags: W
LayerCount: 2
Fore
SplineSet
493 520 m 1,0,-1
 375 -220 l 1,1,-1
 329 -220 l 1,2,-1
 378 89 l 1,3,-1
 376 89 l 1,4,5
 345 43 345 43 295 16.5 c 128,-1,6
 245 -10 245 -10 188 -10 c 0,7,8
 95 -10 95 -10 54 61.5 c 128,-1,9
 13 133 13 133 33 260 c 256,10,11
 53 387 53 387 117 458.5 c 128,-1,12
 181 530 181 530 274 530 c 0,13,14
 331 530 331 530 373 503.5 c 128,-1,15
 415 477 415 477 432 431 c 1,16,-1
 434 431 l 1,17,-1
 448 520 l 1,18,-1
 493 520 l 1,0,-1
294.5 58.5 m 128,-1,20
 336 84 336 84 364 130 c 128,-1,21
 392 176 392 176 402 236 c 2,22,-1
 409 284 l 2,23,24
 419 344 419 344 405 390 c 128,-1,25
 391 436 391 436 357.5 461.5 c 128,-1,26
 324 487 324 487 276 487 c 0,27,28
 201 487 201 487 149 426.5 c 128,-1,29
 97 366 97 366 80 260 c 256,30,31
 63 154 63 154 96 93.5 c 128,-1,32
 129 33 129 33 204 33 c 0,33,19
 253 33 253 33 294.5 58.5 c 128,-1,20
EndSplineSet
EndChar

StartChar: r
Encoding: 114 114 341
Width: 367
GlyphClass: 2
Flags: W
AnchorPoint: "Anchor-6" 167 520 basechar 0
AnchorPoint: "Anchor-4" 167 0 basechar 0
LayerCount: 2
Fore
SplineSet
247.5 496.5 m 128,-1,1
 315 530 315 530 391 530 c 1,2,-1
 384 485 l 1,3,4
 318 485 318 485 261.5 459 c 128,-1,5
 205 433 205 433 166.5 384.5 c 128,-1,6
 128 336 128 336 118 270 c 2,7,-1
 75 0 l 1,8,-1
 29 0 l 1,9,-1
 111 520 l 1,10,-1
 155 520 l 1,11,-1
 138 405 l 1,12,-1
 140 405 l 1,13,0
 180 463 180 463 247.5 496.5 c 128,-1,1
EndSplineSet
EndChar

StartChar: s
Encoding: 115 115 347
Width: 440
GlyphClass: 2
Flags: W
AnchorPoint: "Anchor-6" 191 520 basechar 0
AnchorPoint: "Anchor-4" 191 0 basechar 0
LayerCount: 2
Fore
SplineSet
76.5 0.5 m 128,-1,1
 32 11 32 11 -3 31 c 1,2,-1
 19 71 l 1,3,4
 88 33 88 33 173 33 c 0,5,6
 242 33 242 33 284 59.5 c 128,-1,7
 326 86 326 86 333 134 c 0,8,9
 338 167 338 167 324 188 c 128,-1,10
 310 209 310 209 283 221 c 128,-1,11
 256 233 256 233 207 247 c 0,12,13
 123 270 123 270 84 301.5 c 128,-1,14
 45 333 45 333 55 395 c 0,15,16
 65 459 65 459 117.5 494.5 c 128,-1,17
 170 530 170 530 255 530 c 0,18,19
 300 530 300 530 346.5 520 c 128,-1,20
 393 510 393 510 424 494 c 1,21,-1
 402 454 l 1,22,23
 375 469 375 469 334 478 c 128,-1,24
 293 487 293 487 252 487 c 0,25,26
 186 487 186 487 147 463 c 128,-1,27
 108 439 108 439 101 395 c 0,28,29
 96 364 96 364 110 344.5 c 128,-1,30
 124 325 124 325 150.5 314 c 128,-1,31
 177 303 177 303 224 290 c 0,32,33
 309 267 309 267 350 233.5 c 128,-1,34
 391 200 391 200 380 134 c 0,35,36
 369 66 369 66 314.5 28 c 128,-1,37
 260 -10 260 -10 171 -10 c 0,38,0
 121 -10 121 -10 76.5 0.5 c 128,-1,1
EndSplineSet
EndChar

StartChar: scedilla
Encoding: 351 351 350
Width: 439
GlyphClass: 2
Flags: W
AnchorPoint: "Anchor-6" 191 520 basechar 0
AnchorPoint: "Anchor-4" 191 0 basechar 0
LayerCount: 2
Fore
SplineSet
327.5 38.5 m 128,-1,1
 285 2 285 2 216 -7 c 1,2,3
 280 -65 280 -65 270 -128 c 0,4,5
 264 -167 264 -167 229 -193.5 c 128,-1,6
 194 -220 194 -220 124 -220 c 0,7,8
 70 -220 70 -220 28 -199 c 1,9,-1
 45 -159 l 1,10,11
 81 -178 81 -178 128 -178 c 0,12,13
 167 -178 167 -178 194.5 -165 c 128,-1,14
 222 -152 222 -152 227 -122 c 0,15,16
 231 -95 231 -95 212.5 -66 c 128,-1,17
 194 -37 194 -37 155 -10 c 1,18,19
 64 -7 64 -7 -3 31 c 1,20,-1
 19 71 l 1,21,22
 88 33 88 33 173 33 c 0,23,24
 242 33 242 33 283.5 59.5 c 128,-1,25
 325 86 325 86 333 134 c 0,26,27
 338 167 338 167 324 188 c 128,-1,28
 310 209 310 209 283 221 c 128,-1,29
 256 233 256 233 207 247 c 0,30,31
 124 270 124 270 84.5 301.5 c 128,-1,32
 45 333 45 333 55 395 c 0,33,34
 65 459 65 459 117.5 494.5 c 128,-1,35
 170 530 170 530 255 530 c 0,36,37
 300 530 300 530 346.5 520 c 128,-1,38
 393 510 393 510 424 494 c 1,39,-1
 401 454 l 1,40,41
 374 469 374 469 333.5 478 c 128,-1,42
 293 487 293 487 252 487 c 0,43,44
 187 487 187 487 147.5 463 c 128,-1,45
 108 439 108 439 101 395 c 0,46,47
 96 364 96 364 110 344.5 c 128,-1,48
 124 325 124 325 150.5 314 c 128,-1,49
 177 303 177 303 224 290 c 0,50,51
 308 267 308 267 349 233.5 c 128,-1,52
 390 200 390 200 380 134 c 0,53,0
 370 75 370 75 327.5 38.5 c 128,-1,1
EndSplineSet
Substitution2: "'locl' Localized Forms in Latin lookup 4 subtable" uni0219
Substitution2: "'aalt' Access All Alternates in Latin lookup 0 subtable" uni0219
EndChar

StartChar: germandbls
Encoding: 223 223 353
Width: 545
Flags: W
LayerCount: 2
Fore
SplineSet
214 -4 m 128,-1,1
 176 2 176 2 140 13 c 1,2,-1
 155 57 l 1,3,4
 187 47 187 47 222 41 c 128,-1,5
 257 35 257 35 283 35 c 0,6,7
 345 35 345 35 388 69.5 c 128,-1,8
 431 104 431 104 440 161 c 0,9,10
 444 186 444 186 439 207 c 128,-1,11
 434 228 434 228 416 255 c 128,-1,12
 398 282 398 282 360 330 c 0,13,14
 335 362 335 362 325.5 379.5 c 128,-1,15
 316 397 316 397 319 413 c 0,16,17
 321 426 321 426 333 441.5 c 128,-1,18
 345 457 345 457 374 487 c 0,19,20
 427 540 427 540 447.5 570 c 128,-1,21
 468 600 468 600 472 630 c 0,22,23
 485 715 485 715 343 715 c 0,24,25
 283 715 283 715 247.5 700 c 128,-1,26
 212 685 212 685 192 649.5 c 128,-1,27
 172 614 172 614 162 549 c 2,28,-1
 75 0 l 1,29,-1
 29 0 l 1,30,-1
 116 549 l 2,31,32
 128 626 128 626 155 672 c 128,-1,33
 182 718 182 718 228.5 739 c 128,-1,34
 275 760 275 760 348 760 c 0,35,36
 441 760 441 760 485 727 c 128,-1,37
 529 694 529 694 519 632 c 0,38,39
 513 595 513 595 490.5 561.5 c 128,-1,40
 468 528 468 528 413 472 c 0,41,42
 386 443 386 443 376.5 431 c 128,-1,43
 367 419 367 419 366 413 c 0,44,45
 365 406 365 406 372.5 393 c 128,-1,46
 380 380 380 380 406 348 c 0,47,48
 461 281 461 281 477 242 c 128,-1,49
 493 203 493 203 486 158 c 0,50,51
 474 81 474 81 418.5 35.5 c 128,-1,52
 363 -10 363 -10 282 -10 c 0,53,0
 252 -10 252 -10 214 -4 c 128,-1,1
EndSplineSet
EndChar

StartChar: t
Encoding: 116 116 354
Width: 427
GlyphClass: 2
Flags: W
AnchorPoint: "Anchor-8" 201 0 basechar 0
AnchorPoint: "Anchor-7" 391 520 basechar 0
AnchorPoint: "Anchor-6" 191 520 basechar 0
AnchorPoint: "Anchor-4" 191 0 basechar 0
LayerCount: 2
Fore
SplineSet
140.5 25.5 m 128,-1,1
 116 61 116 61 130 147 c 2,2,-1
 182 477 l 1,3,-1
 58 477 l 1,4,-1
 65 520 l 1,5,-1
 189 520 l 1,6,-1
 219 710 l 1,7,-1
 266 710 l 1,8,-1
 236 520 l 1,9,-1
 419 520 l 1,10,-1
 412 477 l 1,11,-1
 229 477 l 1,12,-1
 178 153 l 2,13,14
 171 106 171 106 175.5 80.5 c 128,-1,15
 180 55 180 55 198 44 c 128,-1,16
 216 33 216 33 253 33 c 0,17,18
 291 33 291 33 338 47 c 1,19,-1
 340 6 l 1,20,21
 288 -10 288 -10 238 -10 c 0,22,0
 165 -10 165 -10 140.5 25.5 c 128,-1,1
EndSplineSet
EndChar

StartChar: tbar
Encoding: 359 359 355
Width: 413
GlyphClass: 2
Flags: W
AnchorPoint: "Anchor-8" 201 0 basechar 0
AnchorPoint: "Anchor-7" 391 520 basechar 0
AnchorPoint: "Anchor-6" 191 520 basechar 0
AnchorPoint: "Anchor-4" 191 0 basechar 0
LayerCount: 2
Fore
SplineSet
340 6 m 1,0,1
 288 -10 288 -10 238 -10 c 0,2,3
 165 -10 165 -10 140.5 25.5 c 128,-1,4
 116 61 116 61 130 147 c 2,5,-1
 143 228 l 1,6,-1
 18 228 l 1,7,-1
 24 272 l 1,8,-1
 150 272 l 1,9,-1
 182 477 l 1,10,-1
 58 477 l 1,11,-1
 65 520 l 1,12,-1
 189 520 l 1,13,-1
 219 710 l 1,14,-1
 266 710 l 1,15,-1
 236 520 l 1,16,-1
 419 520 l 1,17,-1
 412 477 l 1,18,-1
 229 477 l 1,19,-1
 197 272 l 1,20,-1
 366 272 l 1,21,-1
 359 228 l 1,22,-1
 190 228 l 1,23,-1
 178 153 l 2,24,25
 171 106 171 106 175.5 80.5 c 128,-1,26
 180 55 180 55 198 44 c 128,-1,27
 216 33 216 33 253 33 c 0,28,29
 291 33 291 33 338 47 c 1,30,-1
 340 6 l 1,0,1
EndSplineSet
EndChar

StartChar: uni0163
Encoding: 355 355 357
Width: 427
GlyphClass: 2
Flags: W
AnchorPoint: "Anchor-8" 201 0 basechar 0
AnchorPoint: "Anchor-7" 390 520 basechar 0
AnchorPoint: "Anchor-6" 191 520 basechar 0
AnchorPoint: "Anchor-4" 191 0 basechar 0
LayerCount: 2
Fore
SplineSet
314 -127 m 0,1,2
 308 -166 308 -166 273 -192.5 c 128,-1,3
 238 -219 238 -219 168 -219 c 0,4,5
 114 -219 114 -219 72 -198 c 1,6,-1
 88 -158 l 1,7,8
 124 -177 124 -177 172 -177 c 0,9,10
 211 -177 211 -177 238.5 -164 c 128,-1,11
 266 -151 266 -151 270 -121 c 0,12,13
 274 -93 274 -93 255 -64 c 128,-1,14
 236 -35 236 -35 195 -6 c 1,15,16
 148 3 148 3 133 38.5 c 128,-1,17
 118 74 118 74 130 147 c 2,18,-1
 182 477 l 1,19,-1
 58 477 l 1,20,-1
 65 520 l 1,21,-1
 189 520 l 1,22,-1
 219 710 l 1,23,-1
 266 710 l 1,24,-1
 236 520 l 1,25,-1
 418 520 l 1,26,-1
 411 477 l 1,27,-1
 229 477 l 1,28,-1
 178 153 l 2,29,30
 171 106 171 106 175.5 80.5 c 128,-1,31
 180 55 180 55 198 44 c 128,-1,32
 216 33 216 33 253 33 c 0,33,34
 291 33 291 33 337 47 c 1,35,-1
 339 6 l 1,36,37
 298 -6 298 -6 263 -9 c 1,38,0
 324 -66 324 -66 314 -127 c 0,1,2
EndSplineSet
Substitution2: "'locl' Localized Forms in Latin lookup 4 subtable" uni021B
Substitution2: "'aalt' Access All Alternates in Latin lookup 0 subtable" uni021B
EndChar

StartChar: u
Encoding: 117 117 359
Width: 528
GlyphClass: 2
Flags: W
AnchorPoint: "Anchor-7" 437 480 basechar 0
AnchorPoint: "Anchor-6" 240 520 basechar 0
AnchorPoint: "Anchor-5" 442 0 basechar 0
AnchorPoint: "Anchor-4" 240 0 basechar 0
LayerCount: 2
Fore
SplineSet
492 520 m 1,0,-1
 410 0 l 1,1,-1
 365 0 l 1,2,-1
 380 96 l 1,3,-1
 378 96 l 1,4,5
 343 47 343 47 289 18.5 c 128,-1,6
 235 -10 235 -10 178 -10 c 0,7,8
 101 -10 101 -10 69 44.5 c 128,-1,9
 37 99 37 99 53 200 c 2,10,-1
 104 520 l 1,11,-1
 150 520 l 1,12,-1
 100 207 l 2,13,14
 87 123 87 123 111 78 c 128,-1,15
 135 33 135 33 194 33 c 0,16,17
 242 33 242 33 286 61 c 128,-1,18
 330 89 330 89 361.5 136 c 128,-1,19
 393 183 393 183 402 238 c 2,20,-1
 446 520 l 1,21,-1
 492 520 l 1,0,-1
EndSplineSet
EndChar

StartChar: uhorn
Encoding: 432 432 368
Width: 572
GlyphClass: 2
Flags: W
AnchorPoint: "Anchor-7" 627 633 basechar 0
AnchorPoint: "Anchor-6" 240 520 basechar 0
AnchorPoint: "Anchor-5" 442 0 basechar 0
AnchorPoint: "Anchor-4" 240 0 basechar 0
LayerCount: 2
Fore
SplineSet
649 532 m 0,1,2
 640 478 640 478 611 448 c 128,-1,3
 582 418 582 418 538 418 c 0,4,5
 509 418 509 418 478 431 c 1,6,-1
 410 0 l 1,7,-1
 365 0 l 1,8,-1
 380 96 l 1,9,-1
 378 96 l 1,10,11
 343 47 343 47 289 18.5 c 128,-1,12
 235 -10 235 -10 178 -10 c 0,13,14
 101 -10 101 -10 69 44.5 c 128,-1,15
 37 99 37 99 53 200 c 2,16,-1
 104 520 l 1,17,-1
 150 520 l 1,18,-1
 100 207 l 2,19,20
 87 123 87 123 111 78 c 128,-1,21
 135 33 135 33 194 33 c 0,22,23
 242 33 242 33 286 61 c 128,-1,24
 330 89 330 89 361.5 136 c 128,-1,25
 393 183 393 183 402 238 c 2,26,-1
 446 520 l 1,27,-1
 492 520 l 1,28,-1
 485 477 l 1,29,30
 504 462 504 462 533 462 c 0,31,32
 591 462 591 462 602 536 c 0,33,34
 605 558 605 558 605 586.5 c 128,-1,35
 605 615 605 615 600 633 c 1,36,-1
 649 633 l 1,37,0
 657 582 657 582 649 532 c 0,1,2
EndSplineSet
EndChar

StartChar: uogonek
Encoding: 371 371 377
Width: 531
GlyphClass: 2
Flags: W
AnchorPoint: "Anchor-7" 437 480 basechar 0
AnchorPoint: "Anchor-6" 240 520 basechar 0
AnchorPoint: "Anchor-5" 442 0 basechar 0
AnchorPoint: "Anchor-4" 240 0 basechar 0
LayerCount: 2
Fore
SplineSet
461 -198 m 1,0,1
 412 -219 412 -219 358 -219 c 0,2,3
 288 -219 288 -219 261.5 -192.5 c 128,-1,4
 235 -166 235 -166 241 -127 c 0,5,6
 247 -90 247 -90 279.5 -53.5 c 128,-1,7
 312 -17 312 -17 367 15 c 1,8,-1
 380 96 l 1,9,-1
 378 96 l 1,10,11
 343 47 343 47 289 18.5 c 128,-1,12
 235 -10 235 -10 178 -10 c 0,13,14
 101 -10 101 -10 69 44.5 c 128,-1,15
 37 99 37 99 53 200 c 2,16,-1
 104 520 l 1,17,-1
 150 520 l 1,18,-1
 100 207 l 2,19,20
 87 123 87 123 111 78 c 128,-1,21
 135 33 135 33 194 33 c 0,22,23
 241 33 241 33 285.5 61 c 128,-1,24
 330 89 330 89 361 136 c 128,-1,25
 392 183 392 183 401 238 c 2,26,-1
 446 520 l 1,27,-1
 492 520 l 1,28,-1
 409 0 l 1,29,30
 354 -29 354 -29 322.5 -60.5 c 128,-1,31
 291 -92 291 -92 286 -121 c 0,32,33
 281 -151 281 -151 305 -164 c 128,-1,34
 329 -177 329 -177 367 -177 c 0,35,36
 414 -177 414 -177 457 -158 c 1,37,-1
 461 -198 l 1,0,1
EndSplineSet
EndChar

StartChar: v
Encoding: 118 118 380
Width: 474
Flags: W
LayerCount: 2
Fore
SplineSet
51 520 m 1,0,-1
 101 520 l 1,1,-1
 197 37 l 1,2,-1
 199 37 l 1,3,-1
 447 520 l 1,4,-1
 498 520 l 1,5,-1
 225 0 l 1,6,-1
 159 0 l 1,7,-1
 51 520 l 1,0,-1
EndSplineSet
EndChar

StartChar: w
Encoding: 119 119 381
Width: 721
GlyphClass: 2
Flags: W
AnchorPoint: "Anchor-6" 340 520 basechar 0
AnchorPoint: "Anchor-4" 340 0 basechar 0
LayerCount: 2
Fore
SplineSet
66 520 m 1,0,-1
 116 520 l 1,1,-1
 167 49 l 1,2,-1
 169 49 l 1,3,-1
 366 520 l 1,4,-1
 430 520 l 1,5,-1
 478 49 l 1,6,-1
 480 49 l 1,7,-1
 680 520 l 1,8,-1
 731 520 l 1,9,-1
 502 0 l 1,10,-1
 439 0 l 1,11,-1
 391 468 l 1,12,-1
 389 468 l 1,13,-1
 192 0 l 1,14,-1
 129 0 l 1,15,-1
 66 520 l 1,0,-1
EndSplineSet
EndChar

StartChar: x
Encoding: 120 120 386
Width: 492
Flags: W
LayerCount: 2
Fore
SplineSet
210 263 m 1,0,-1
 79 520 l 1,1,-1
 134 520 l 1,2,-1
 247 293 l 1,3,-1
 249 293 l 1,4,-1
 434 520 l 1,5,-1
 489 520 l 1,6,-1
 275 263 l 1,7,-1
 410 0 l 1,8,-1
 356 0 l 1,9,-1
 239 233 l 1,10,-1
 237 233 l 1,11,-1
 47 0 l 1,12,-1
 -9 0 l 1,13,-1
 210 263 l 1,0,-1
EndSplineSet
EndChar

StartChar: y
Encoding: 121 121 387
Width: 481
GlyphClass: 2
Flags: W
AnchorPoint: "Anchor-0" 213 -230 basechar 0
AnchorPoint: "Anchor-3" 213 590 basechar 0
AnchorPoint: "Anchor-6" 212 520 basechar 0
AnchorPoint: "Anchor-4" 212 0 basechar 0
LayerCount: 2
Fore
SplineSet
458 520 m 1,0,-1
 506 520 l 1,1,-1
 227 1 l 2,2,3
 157 -131 157 -131 92.5 -180.5 c 128,-1,4
 28 -230 28 -230 -64 -230 c 1,5,-1
 -59 -189 l 1,6,7
 17 -189 17 -189 69.5 -149 c 128,-1,8
 122 -109 122 -109 181 0 c 1,9,-1
 56 520 l 1,10,-1
 106 520 l 1,11,-1
 212 57 l 1,12,-1
 214 57 l 1,13,-1
 458 520 l 1,0,-1
EndSplineSet
EndChar

StartChar: z
Encoding: 122 122 396
Width: 461
GlyphClass: 2
Flags: W
AnchorPoint: "Anchor-6" 203 520 basechar 0
AnchorPoint: "Anchor-4" 203 0 basechar 0
LayerCount: 2
Fore
SplineSet
9 43 m 1,0,-1
 385 475 l 1,1,-1
 386 477 l 1,2,-1
 78 477 l 1,3,-1
 85 520 l 1,4,-1
 451 520 l 1,5,-1
 445 477 l 1,6,-1
 68 45 l 1,7,-1
 68 43 l 1,8,-1
 376 43 l 1,9,-1
 369 0 l 1,10,-1
 2 0 l 1,11,-1
 9 43 l 1,0,-1
EndSplineSet
EndChar

StartChar: f_f
Encoding: 1114114 -1 400
Width: 720
GlyphClass: 3
Flags: W
LayerCount: 2
Fore
SplineSet
566 520 m 1,0,-1
 732 520 l 1,1,-1
 725 477 l 1,2,-1
 560 477 l 1,3,-1
 484 0 l 1,4,-1
 438 0 l 1,5,-1
 514 477 l 1,6,-1
 241 477 l 1,7,-1
 165 0 l 1,8,-1
 119 0 l 1,9,-1
 195 477 l 1,10,-1
 53 477 l 1,11,-1
 60 520 l 1,12,-1
 202 520 l 1,13,-1
 214 598 l 2,14,15
 227 681 227 681 266 720.5 c 128,-1,16
 305 760 305 760 373 760 c 0,17,18
 412 760 412 760 452 745 c 1,19,-1
 436 703 l 1,20,21
 406 717 406 717 371 717 c 0,22,23
 322 717 322 717 296 689.5 c 128,-1,24
 270 662 270 662 260 598 c 2,25,-1
 248 520 l 1,26,-1
 520 520 l 1,27,-1
 533 598 l 2,28,29
 546 680 546 680 585 720 c 128,-1,30
 624 760 624 760 691 760 c 0,31,32
 731 760 731 760 771 745 c 1,33,-1
 754 703 l 1,34,35
 724 717 724 717 690 717 c 0,36,37
 641 717 641 717 615 689.5 c 128,-1,38
 589 662 589 662 579 598 c 2,39,-1
 566 520 l 1,0,-1
EndSplineSet
Ligature2: "'liga' Standard Ligatures in Latin lookup 14 subtable" f f
EndChar

StartChar: f_f_l
Encoding: 1114116 -1 402
Width: 1071
GlyphClass: 3
Flags: W
LayerCount: 2
Fore
SplineSet
566 520 m 1,0,-1
 732 520 l 1,1,-1
 725 477 l 1,2,-1
 560 477 l 1,3,-1
 484 0 l 1,4,-1
 438 0 l 1,5,-1
 514 477 l 1,6,-1
 241 477 l 1,7,-1
 165 0 l 1,8,-1
 119 0 l 1,9,-1
 195 477 l 1,10,-1
 53 477 l 1,11,-1
 60 520 l 1,12,-1
 202 520 l 1,13,-1
 214 598 l 2,14,15
 228 682 228 682 266 720 c 0,16,17
 305 760 305 760 373 760 c 0,18,19
 412 760 412 760 452 745 c 1,20,-1
 436 703 l 1,21,22
 405 717 405 717 371 717 c 0,23,24
 321.5 717 321.5 717 296 690 c 0,25,26
 270 661 270 661 260 598 c 2,27,-1
 248 520 l 1,28,-1
 520 520 l 1,29,-1
 533 598 l 2,30,31
 546 680 546 680 585 720 c 0,32,33
 624 760 624 760 691 760 c 0,34,35
 730 760 730 760 771 745 c 1,36,-1
 754 703 l 1,37,38
 723 717 723 717 690 717 c 0,39,40
 640.5 717 640.5 717 615 690 c 0,41,42
 589 661 589 661 579 598 c 2,43,-1
 566 520 l 1,0,-1
917 750 m 1,44,-1
 962 750 l 1,45,-1
 867 153 l 2,46,47
 855 77 855 77 872 54 c 0,48,49
 887 30 887 30 944 30 c 0,50,51
 990 30 990 30 1027 45 c 1,52,-1
 1031 7 l 1,53,54
 982 -10 982 -10 933 -10 c 0,55,56
 857 -10 857 -10 832 24 c 0,57,58
 808 59 808 59 821 147 c 2,59,-1
 917 750 l 1,44,-1
EndSplineSet
Ligature2: "'liga' Standard Ligatures in Latin lookup 14 subtable" f f l
EndChar

StartChar: fl
Encoding: 64258 64258 404
Width: 736
GlyphClass: 3
Flags: W
LayerCount: 2
Fore
SplineSet
53 477 m 1,0,-1
 60 520 l 1,1,-1
 202 520 l 1,2,-1
 214 598 l 2,3,4
 228 682 228 682 266 720 c 0,5,6
 305 760 305 760 373 760 c 0,7,8
 412 760 412 760 452 745 c 1,9,-1
 436 703 l 1,10,11
 405 717 405 717 371 717 c 0,12,13
 321.5 717 321.5 717 296 690 c 0,14,15
 270 661 270 661 260 598 c 2,16,-1
 248 520 l 1,17,-1
 414 520 l 1,18,-1
 407 477 l 1,19,-1
 241 477 l 1,20,-1
 165 0 l 1,21,-1
 119 0 l 1,22,-1
 195 477 l 1,23,-1
 53 477 l 1,0,-1
581 750 m 1,24,-1
 626 750 l 1,25,-1
 531 153 l 2,26,27
 519 77 519 77 536 54 c 0,28,29
 551 30 551 30 608 30 c 0,30,31
 654 30 654 30 691 45 c 1,32,-1
 695 7 l 1,33,34
 646 -10 646 -10 597 -10 c 0,35,36
 521 -10 521 -10 496 24 c 0,37,38
 472 59 472 59 485 147 c 2,39,-1
 581 750 l 1,24,-1
EndSplineSet
Ligature2: "'liga' Standard Ligatures in Latin lookup 14 subtable" f l
EndChar

StartChar: ordfeminine
Encoding: 170 170 405
Width: 413
Flags: W
LayerCount: 2
Fore
SplineSet
385.5 700.5 m 128,-1,1
 414 663 414 663 400 577 c 2,2,-1
 358 314 l 1,3,-1
 312 314 l 1,4,-1
 322 375 l 1,5,-1
 320 375 l 1,6,7
 295 344 295 344 252 325 c 128,-1,8
 209 306 209 306 164 306 c 0,9,10
 104 306 104 306 72 339.5 c 128,-1,11
 40 373 40 373 49 428 c 0,12,13
 60 500 60 500 129.5 538.5 c 128,-1,14
 199 577 199 577 315 577 c 2,15,-1
 353 577 l 1,16,17
 364 645 364 645 344.5 672.5 c 128,-1,18
 325 700 325 700 267 700 c 0,19,20
 192 700 192 700 113 662 c 1,21,-1
 108 699 l 1,22,23
 196 738 196 738 278 738 c 0,24,0
 357 738 357 738 385.5 700.5 c 128,-1,1
283.5 383 m 128,-1,26
 328 421 328 421 337 478 c 2,27,-1
 347 540 l 1,28,-1
 306 540 l 2,29,30
 210 540 210 540 155 512 c 128,-1,31
 100 484 100 484 92 431 c 0,32,33
 86 392 86 392 109.5 368.5 c 128,-1,34
 133 345 133 345 179 345 c 0,35,25
 239 345 239 345 283.5 383 c 128,-1,26
EndSplineSet
EndChar

StartChar: ordmasculine
Encoding: 186 186 406
Width: 438
Flags: W
LayerCount: 2
Fore
SplineSet
95.5 363.5 m 128,-1,1
 55 421 55 421 71 522 c 256,2,3
 87 623 87 623 146 680.5 c 128,-1,4
 205 738 205 738 292 738 c 256,5,6
 379 738 379 738 419.5 680.5 c 128,-1,7
 460 623 460 623 444 522 c 256,8,9
 428 421 428 421 369.5 363.5 c 128,-1,10
 311 306 311 306 223 306 c 256,11,0
 136 306 136 306 95.5 363.5 c 128,-1,1
339.5 392 m 128,-1,13
 383 438 383 438 397 522 c 256,14,15
 410 606 410 606 381 652 c 128,-1,16
 352 698 352 698 285 698 c 256,17,18
 218 698 218 698 174.5 652 c 128,-1,19
 131 606 131 606 117 522 c 256,20,21
 104 438 104 438 133.5 392 c 128,-1,22
 163 346 163 346 230 346 c 256,23,12
 296 346 296 346 339.5 392 c 128,-1,13
EndSplineSet
EndChar

StartChar: zero.lf
Encoding: 1114117 -1 417
Width: 591
Flags: W
LayerCount: 2
Fore
SplineSet
75 84.5 m 128,-1,1
 26 179 26 179 56 365 c 256,2,3
 85 551 85 551 163.5 645.5 c 128,-1,4
 242 740 242 740 368 740 c 256,5,6
 493 740 493 740 542 645.5 c 128,-1,7
 591 551 591 551 561 365 c 256,8,9
 532 179 532 179 453 84.5 c 128,-1,10
 374 -10 374 -10 249 -10 c 256,11,0
 124 -10 124 -10 75 84.5 c 128,-1,1
512 365 m 256,13,14
 564 694 564 694 361 694 c 256,15,16
 157 694 157 694 105 365 c 256,17,18
 53 36 53 36 256 36 c 256,19,12
 460 36 460 36 512 365 c 256,13,14
EndSplineSet
Substitution2: "'tnum' Tabular Numbers in Latin lookup 11 subtable" zero
AlternateSubs2: "'aalt' Access All Alternates in Latin lookup 1 subtable" zero
EndChar

StartChar: one.lf
Encoding: 1114118 -1 418
Width: 577
Flags: W
LayerCount: 2
Fore
SplineSet
377 664 m 1,0,-1
 376 664 l 1,1,-1
 104 439 l 1,2,-1
 85 481 l 1,3,-1
 388 730 l 1,4,-1
 438 730 l 1,5,-1
 322 0 l 1,6,-1
 272 0 l 1,7,-1
 377 664 l 1,0,-1
EndSplineSet
Substitution2: "'tnum' Tabular Numbers in Latin lookup 11 subtable" one
AlternateSubs2: "'aalt' Access All Alternates in Latin lookup 1 subtable" one
EndChar

StartChar: two.lf
Encoding: 1114119 -1 419
Width: 587
Flags: W
LayerCount: 2
Fore
SplineSet
290 259 m 128,-1,1
 385 345 385 345 431 409.5 c 128,-1,2
 477 474 477 474 486 533 c 0,3,4
 498 607 498 607 459.5 650.5 c 128,-1,5
 421 694 421 694 346 694 c 0,6,7
 296 694 296 694 239 674 c 128,-1,8
 182 654 182 654 130 618 c 1,9,-1
 116 660 l 1,10,11
 168 696 168 696 233.5 718 c 128,-1,12
 299 740 299 740 358 740 c 0,13,14
 421 740 421 740 465 714.5 c 128,-1,15
 509 689 509 689 527.5 643 c 128,-1,16
 546 597 546 597 536 537 c 0,17,18
 526 472 526 472 481 404 c 128,-1,19
 436 336 436 336 346 251.5 c 128,-1,20
 256 167 256 167 104 48 c 1,21,-1
 104 46 l 1,22,-1
 467 46 l 1,23,-1
 459 0 l 1,24,-1
 23 0 l 1,25,-1
 30 46 l 1,26,0
 195 173 195 173 290 259 c 128,-1,1
EndSplineSet
Substitution2: "'tnum' Tabular Numbers in Latin lookup 11 subtable" two
AlternateSubs2: "'aalt' Access All Alternates in Latin lookup 1 subtable" two
EndChar

StartChar: three.lf
Encoding: 1114120 -1 420
Width: 586
Flags: W
LayerCount: 2
Fore
SplineSet
30 46 m 1,1,-1
 56 86 l 1,2,3
 126 36 126 36 221 36 c 0,4,5
 317 36 317 36 375 82.5 c 128,-1,6
 433 129 433 129 447 218 c 0,7,8
 460 302 460 302 415.5 341 c 128,-1,9
 371 380 371 380 259 380 c 2,10,-1
 187 380 l 1,11,-1
 195 425 l 1,12,-1
 493 682 l 1,13,-1
 493 684 l 1,14,-1
 139 684 l 1,15,-1
 147 730 l 1,16,-1
 568 730 l 1,17,-1
 561 684 l 1,18,-1
 261 427 l 1,19,-1
 261 425 l 1,20,-1
 297 425 l 2,21,22
 529 425 529 425 497 218 c 0,23,24
 480 108 480 108 407 49 c 128,-1,25
 334 -10 334 -10 217 -10 c 0,26,0
 109 -10 109 -10 30 46 c 1,1,-1
EndSplineSet
Substitution2: "'tnum' Tabular Numbers in Latin lookup 11 subtable" three
AlternateSubs2: "'aalt' Access All Alternates in Latin lookup 1 subtable" three
EndChar

StartChar: four.lf
Encoding: 1114121 -1 421
Width: 593
Flags: W
LayerCount: 2
Fore
SplineSet
359 178 m 1,0,-1
 -3 178 l 1,1,-1
 4 224 l 1,2,-1
 447 730 l 1,3,-1
 496 730 l 1,4,-1
 416 224 l 1,5,-1
 545 224 l 1,6,-1
 538 178 l 1,7,-1
 408 178 l 1,8,-1
 380 0 l 1,9,-1
 331 0 l 1,10,-1
 359 178 l 1,0,-1
367 224 m 1,11,-1
 434 649 l 1,12,-1
 432 649 l 1,13,-1
 63 226 l 1,14,-1
 63 224 l 1,15,-1
 367 224 l 1,11,-1
EndSplineSet
Substitution2: "'tnum' Tabular Numbers in Latin lookup 11 subtable" four
AlternateSubs2: "'aalt' Access All Alternates in Latin lookup 1 subtable" four
EndChar

StartChar: five.lf
Encoding: 1114122 -1 422
Width: 586
Flags: W
LayerCount: 2
Fore
SplineSet
118 3.5 m 128,-1,1
 72 17 72 17 36 43 c 1,2,-1
 60 84 l 1,3,4
 128 36 128 36 221 36 c 0,5,6
 316 36 316 36 378.5 88.5 c 128,-1,7
 441 141 441 141 456 233 c 0,8,9
 469 318 469 318 428 363 c 128,-1,10
 387 408 387 408 297 408 c 0,11,12
 255 408 255 408 221 397 c 128,-1,13
 187 386 187 386 150 360 c 1,14,-1
 105 360 l 1,15,-1
 188 730 l 1,16,-1
 554 730 l 1,17,-1
 547 684 l 1,18,-1
 226 684 l 1,19,-1
 164 413 l 1,20,-1
 166 413 l 1,21,22
 202 434 202 434 235 443.5 c 128,-1,23
 268 453 268 453 309 453 c 0,24,25
 420 453 420 453 471 396 c 128,-1,26
 522 339 522 339 506 233 c 0,27,28
 488 121 488 121 409.5 55.5 c 128,-1,29
 331 -10 331 -10 214 -10 c 0,30,0
 164 -10 164 -10 118 3.5 c 128,-1,1
EndSplineSet
Substitution2: "'tnum' Tabular Numbers in Latin lookup 11 subtable" five
AlternateSubs2: "'aalt' Access All Alternates in Latin lookup 1 subtable" five
EndChar

StartChar: six.lf
Encoding: 1114123 -1 423
Width: 592
Flags: W
LayerCount: 2
Fore
SplineSet
122.5 21 m 128,-1,1
 71 52 71 52 50 109.5 c 128,-1,2
 29 167 29 167 41 245 c 0,3,4
 63 384 63 384 122.5 491 c 128,-1,5
 182 598 182 598 272 662 c 128,-1,6
 362 726 362 726 473 739 c 1,7,-1
 475 690 l 1,8,9
 357 673 357 673 270.5 600 c 128,-1,10
 184 527 184 527 136 405 c 1,11,-1
 138 404 l 1,12,13
 218 484 218 484 338 484 c 0,14,15
 449 484 449 484 503 418 c 128,-1,16
 557 352 557 352 539 239 c 0,17,18
 521 124 521 124 443 57 c 128,-1,19
 365 -10 365 -10 250 -10 c 0,20,0
 174 -10 174 -10 122.5 21 c 128,-1,1
408.5 94 m 128,-1,22
 468 146 468 146 483 238 c 256,23,24
 498 330 498 330 454.5 381.5 c 128,-1,25
 411 433 411 433 320 433 c 256,26,27
 229 433 229 433 169.5 381.5 c 128,-1,28
 110 330 110 330 96 238 c 0,29,30
 82 148 82 148 125.5 95 c 128,-1,31
 169 42 169 42 258 42 c 0,32,21
 349 42 349 42 408.5 94 c 128,-1,22
EndSplineSet
Substitution2: "'tnum' Tabular Numbers in Latin lookup 11 subtable" six
AlternateSubs2: "'aalt' Access All Alternates in Latin lookup 1 subtable" six
EndChar

StartChar: seven.lf
Encoding: 1114124 -1 424
Width: 587
Flags: W
LayerCount: 2
Fore
SplineSet
530 682 m 1,1,-1
 531 684 l 1,2,-1
 131 684 l 1,3,-1
 138 730 l 1,4,-1
 593 730 l 1,5,-1
 586 687 l 1,6,7
 374 403 374 403 184 0 c 1,8,-1
 129 0 l 1,9,0
 315 388 315 388 530 682 c 1,1,-1
EndSplineSet
Substitution2: "'tnum' Tabular Numbers in Latin lookup 11 subtable" seven
AlternateSubs2: "'aalt' Access All Alternates in Latin lookup 1 subtable" seven
EndChar

StartChar: eight.lf
Encoding: 1114125 -1 425
Width: 591
Flags: W
LayerCount: 2
Fore
SplineSet
119.5 14.5 m 128,-1,1
 66 39 66 39 42.5 85 c 128,-1,2
 19 131 19 131 28 192 c 0,3,4
 51 337 51 337 241 386 c 1,5,-1
 242 388 l 1,6,7
 173 412 173 412 139 460.5 c 128,-1,8
 105 509 105 509 115 571 c 0,9,10
 127 648 127 648 196 694 c 128,-1,11
 265 740 265 740 368 740 c 256,12,13
 471 740 471 740 525.5 694 c 128,-1,14
 580 648 580 648 567 571 c 0,15,16
 557 509 557 509 509 462.5 c 128,-1,17
 461 416 461 416 383 392 c 1,18,-1
 383 390 l 1,19,20
 557 340 557 340 534 192 c 0,21,22
 519 99 519 99 442.5 44.5 c 128,-1,23
 366 -10 366 -10 249 -10 c 0,24,0
 173 -10 173 -10 119.5 14.5 c 128,-1,1
454 468 m 128,-1,26
 509 510 509 510 518 568 c 256,27,28
 527 626 527 626 484.5 660.5 c 128,-1,29
 442 695 442 695 361 695 c 0,30,31
 279 695 279 695 226 661 c 128,-1,32
 173 627 173 627 163 568 c 0,33,34
 154 510 154 510 195 468 c 128,-1,35
 236 426 236 426 316 412 c 1,36,25
 399 426 399 426 454 468 c 128,-1,26
411.5 77.5 m 128,-1,38
 473 120 473 120 485 193 c 0,39,40
 507 330 507 330 306 364 c 1,41,42
 98 328 98 328 77 193 c 0,43,44
 65 120 65 120 113 77.5 c 128,-1,45
 161 35 161 35 256 35 c 0,46,37
 350 35 350 35 411.5 77.5 c 128,-1,38
EndSplineSet
Substitution2: "'tnum' Tabular Numbers in Latin lookup 11 subtable" eight
AlternateSubs2: "'aalt' Access All Alternates in Latin lookup 1 subtable" eight
EndChar

StartChar: nine.lf
Encoding: 1114126 -1 426
Width: 584
Flags: W
LayerCount: 2
Fore
SplineSet
487.5 709 m 128,-1,1
 539 678 539 678 560 620.5 c 128,-1,2
 581 563 581 563 569 485 c 0,3,4
 547 346 547 346 487.5 239 c 128,-1,5
 428 132 428 132 338.5 68 c 128,-1,6
 249 4 249 4 138 -9 c 1,7,-1
 135 40 l 1,8,9
 253 57 253 57 339.5 130 c 128,-1,10
 426 203 426 203 475 325 c 1,11,-1
 473 326 l 1,12,13
 393 246 393 246 272 246 c 0,14,15
 161 246 161 246 107.5 312 c 128,-1,16
 54 378 54 378 72 491 c 0,17,18
 90 606 90 606 167.5 673 c 128,-1,19
 245 740 245 740 360 740 c 0,20,0
 436 740 436 740 487.5 709 c 128,-1,1
201.5 636 m 128,-1,22
 142 584 142 584 127 492 c 256,23,24
 112 400 112 400 155.5 348.5 c 128,-1,25
 199 297 199 297 290 297 c 256,26,27
 381 297 381 297 440 348.5 c 128,-1,28
 499 400 499 400 514 492 c 0,29,30
 528 582 528 582 484.5 635 c 128,-1,31
 441 688 441 688 352 688 c 0,32,21
 261 688 261 688 201.5 636 c 128,-1,22
EndSplineSet
Substitution2: "'tnum' Tabular Numbers in Latin lookup 11 subtable" nine
AlternateSubs2: "'aalt' Access All Alternates in Latin lookup 1 subtable" nine
EndChar

StartChar: uni2070
Encoding: 8304 8304 427
Width: 355
Flags: W
LayerCount: 2
Fore
SplineSet
73 342.5 m 128,-1,1
 44 399 44 399 61 511 c 256,2,3
 79 623 79 623 126 679.5 c 128,-1,4
 173 736 173 736 249 736 c 0,5,6
 401 736 401 736 365 511 c 256,7,8
 329 286 329 286 178 286 c 0,9,0
 102 286 102 286 73 342.5 c 128,-1,1
320 511 m 256,11,12
 349 693 349 693 242 693 c 0,13,14
 136 693 136 693 107 511 c 256,15,16
 78 329 78 329 184 329 c 0,17,10
 291 329 291 329 320 511 c 256,11,12
EndSplineSet
EndChar

StartChar: uni00B9
Encoding: 185 185 428
Width: 342
Flags: W
LayerCount: 2
Fore
SplineSet
236 669 m 1,0,-1
 234 669 l 1,1,-1
 84 543 l 1,2,-1
 64 580 l 1,3,-1
 246 730 l 1,4,-1
 292 730 l 1,5,-1
 222 292 l 1,6,-1
 176 292 l 1,7,-1
 236 669 l 1,0,-1
EndSplineSet
EndChar

StartChar: uni00B2
Encoding: 178 178 429
Width: 353
Flags: W
LayerCount: 2
Fore
SplineSet
199 458 m 128,-1,1
 251 504 251 504 274.5 536.5 c 128,-1,2
 298 569 298 569 303 601 c 0,3,4
 310 643 310 643 288 668 c 128,-1,5
 266 693 266 693 223 693 c 0,6,7
 195 693 195 693 163 681.5 c 128,-1,8
 131 670 131 670 102 648 c 1,9,-1
 93 688 l 1,10,11
 124 710 124 710 163.5 723 c 128,-1,12
 203 736 203 736 240 736 c 0,13,14
 300 736 300 736 329 702 c 128,-1,15
 358 668 358 668 349 609 c 0,16,17
 343 571 343 571 320 534 c 128,-1,18
 297 497 297 497 249 450.5 c 128,-1,19
 201 404 201 404 117 337 c 1,20,-1
 117 335 l 1,21,-1
 311 335 l 1,22,-1
 304 292 l 1,23,-1
 42 292 l 1,24,-1
 49 335 l 1,25,0
 147 412 147 412 199 458 c 128,-1,1
EndSplineSet
EndChar

StartChar: uni00B3
Encoding: 179 179 430
Width: 352
Flags: W
LayerCount: 2
Fore
SplineSet
42 317 m 1,1,-1
 61 356 l 1,2,3
 103 329 103 329 154 329 c 256,4,5
 206 329 206 329 237.5 353.5 c 128,-1,6
 269 378 269 378 276 424 c 0,7,8
 283 468 283 468 259 488 c 128,-1,9
 235 508 235 508 175 508 c 2,10,-1
 135 508 l 1,11,-1
 142 553 l 1,12,-1
 296 685 l 1,13,-1
 296 687 l 1,14,-1
 104 687 l 1,15,-1
 111 730 l 1,16,-1
 364 730 l 1,17,-1
 357 687 l 1,18,-1
 194 547 l 1,19,-1
 193 545 l 1,20,-1
 208 545 l 2,21,22
 340 544 340 544 321 423 c 0,23,24
 311 358 311 358 267.5 322 c 128,-1,25
 224 286 224 286 154 286 c 0,26,0
 91 286 91 286 42 317 c 1,1,-1
EndSplineSet
EndChar

StartChar: uni2074
Encoding: 8308 8308 431
Width: 357
Flags: W
LayerCount: 2
Fore
SplineSet
228 391 m 1,0,-1
 20 391 l 1,1,-1
 26 434 l 1,2,-1
 284 730 l 1,3,-1
 328 730 l 1,4,-1
 281 434 l 1,5,-1
 351 434 l 1,6,-1
 344 391 l 1,7,-1
 274 391 l 1,8,-1
 259 292 l 1,9,-1
 213 292 l 1,10,-1
 228 391 l 1,0,-1
237 432 m 1,11,-1
 273 661 l 1,12,-1
 271 661 l 1,13,-1
 74 434 l 1,14,-1
 74 432 l 1,15,-1
 237 432 l 1,11,-1
EndSplineSet
EndChar

StartChar: fraction
Encoding: 8260 8260 432
Width: 485
Flags: W
LayerCount: 2
Fore
SplineSet
492 730 m 1,0,-1
 541 730 l 1,1,-1
 19 0 l 1,2,-1
 -30 0 l 1,3,-1
 492 730 l 1,0,-1
EndSplineSet
EndChar

StartChar: onehalf
Encoding: 189 189 433
Width: 811
Flags: W
LayerCount: 2
Fore
SplineSet
247 669 m 1,0,-1
 97 543 l 1,1,-1
 77 580 l 1,2,-1
 258 730 l 1,3,-1
 305 730 l 1,4,-1
 236 292 l 1,5,-1
 189 292 l 1,6,-1
 249 669 l 1,7,-1
 247 669 l 1,0,-1
651 730 m 1,8,-1
 700 730 l 1,9,-1
 179 0 l 1,10,-1
 130 0 l 1,11,-1
 651 730 l 1,8,-1
604.5 165.5 m 128,-1,13
 656 212 656 212 679 244.5 c 128,-1,14
 702 277 702 277 707 309 c 0,15,16
 714 351 714 351 693 376 c 128,-1,17
 672 401 672 401 629 401 c 0,18,19
 600 401 600 401 568 389.5 c 128,-1,20
 536 378 536 378 508 356 c 1,21,-1
 499 396 l 1,22,23
 529 418 529 418 568.5 431 c 128,-1,24
 608 444 608 444 644 444 c 0,25,26
 705 444 705 444 734.5 410 c 128,-1,27
 764 376 764 376 755 317 c 0,28,29
 749 279 749 279 726 242 c 128,-1,30
 703 205 703 205 654.5 158.5 c 128,-1,31
 606 112 606 112 522 45 c 1,32,-1
 522 43 l 1,33,-1
 716 43 l 1,34,-1
 709 0 l 1,35,-1
 448 0 l 1,36,-1
 454 43 l 1,37,12
 553 119 553 119 604.5 165.5 c 128,-1,13
EndSplineSet
Ligature2: "'frac' Diagonal Fractions in Latin lookup 7 subtable" one slash two
EndChar

StartChar: onequarter
Encoding: 188 188 434
Width: 775
Flags: W
LayerCount: 2
Fore
SplineSet
247 669 m 1,0,-1
 97 543 l 1,1,-1
 77 580 l 1,2,-1
 258 730 l 1,3,-1
 305 730 l 1,4,-1
 236 292 l 1,5,-1
 189 292 l 1,6,-1
 249 669 l 1,7,-1
 247 669 l 1,0,-1
651 730 m 1,8,-1
 700 730 l 1,9,-1
 179 0 l 1,10,-1
 130 0 l 1,11,-1
 651 730 l 1,8,-1
381 99 m 1,12,-1
 388 142 l 1,13,-1
 645 438 l 1,14,-1
 689 438 l 1,15,-1
 643 142 l 1,16,-1
 712 142 l 1,17,-1
 705 99 l 1,18,-1
 636 99 l 1,19,-1
 620 0 l 1,20,-1
 575 0 l 1,21,-1
 591 99 l 1,22,-1
 381 99 l 1,12,-1
634 369 m 1,23,-1
 632 369 l 1,24,-1
 436 142 l 1,25,-1
 435 140 l 1,26,-1
 598 140 l 1,27,-1
 634 369 l 1,23,-1
EndSplineSet
Ligature2: "'frac' Diagonal Fractions in Latin lookup 7 subtable" one slash four
EndChar

StartChar: threequarters
Encoding: 190 190 435
Width: 758
Flags: W
LayerCount: 2
Fore
SplineSet
46 317 m 1,1,-1
 65 356 l 1,2,3
 107 329 107 329 159 329 c 256,4,5
 211 329 211 329 242 353.5 c 128,-1,6
 273 378 273 378 281 424 c 0,7,8
 288 468 288 468 264 488 c 128,-1,9
 240 508 240 508 180 508 c 2,10,-1
 139 508 l 1,11,-1
 146 553 l 1,12,-1
 300 685 l 1,13,-1
 301 687 l 1,14,-1
 110 687 l 1,15,-1
 116 730 l 1,16,-1
 369 730 l 1,17,-1
 363 687 l 1,18,-1
 199 547 l 1,19,-1
 199 545 l 1,20,-1
 213 545 l 2,21,22
 346 544 346 544 327 423 c 0,23,24
 317 358 317 358 272.5 322 c 128,-1,25
 228 286 228 286 160 286 c 0,26,0
 96 286 96 286 46 317 c 1,1,-1
633 730 m 1,27,-1
 682 730 l 1,28,-1
 161 0 l 1,29,-1
 112 0 l 1,30,-1
 633 730 l 1,27,-1
363 99 m 1,31,-1
 370 142 l 1,32,-1
 628 438 l 1,33,-1
 672 438 l 1,34,-1
 625 142 l 1,35,-1
 694 142 l 1,36,-1
 687 99 l 1,37,-1
 618 99 l 1,38,-1
 603 0 l 1,39,-1
 557 0 l 1,40,-1
 572 99 l 1,41,-1
 363 99 l 1,31,-1
617 369 m 1,42,-1
 615 369 l 1,43,-1
 418 142 l 1,44,-1
 418 140 l 1,45,-1
 581 140 l 1,46,-1
 617 369 l 1,42,-1
EndSplineSet
Ligature2: "'frac' Diagonal Fractions in Latin lookup 7 subtable" three slash four
EndChar

StartChar: period
Encoding: 46 46 436
Width: 317
Flags: W
LayerCount: 2
Fore
SplineSet
58 83 m 1,0,-1
 140 83 l 1,1,-1
 126 0 l 1,2,-1
 45 0 l 1,3,-1
 58 83 l 1,0,-1
EndSplineSet
EndChar

StartChar: comma
Encoding: 44 44 437
Width: 317
Flags: W
LayerCount: 2
Fore
SplineSet
97 130 m 1,0,-1
 154 130 l 1,1,-1
 2 -170 l 1,2,-1
 -45 -170 l 1,3,-1
 97 130 l 1,0,-1
EndSplineSet
EndChar

StartChar: colon
Encoding: 58 58 438
Width: 317
Flags: W
LayerCount: 2
Fore
SplineSet
127 520 m 1,0,-1
 209 520 l 1,1,-1
 196 437 l 1,2,-1
 114 437 l 1,3,-1
 127 520 l 1,0,-1
58 83 m 1,4,-1
 140 83 l 1,5,-1
 126 0 l 1,6,-1
 45 0 l 1,7,-1
 58 83 l 1,4,-1
EndSplineSet
Substitution2: "'aalt' Access All Alternates in Latin lookup 0 subtable" uniFF1A
EndChar

StartChar: semicolon
Encoding: 59 59 439
Width: 317
Flags: W
LayerCount: 2
Fore
SplineSet
147 520 m 1,0,-1
 228 520 l 1,1,-1
 215 437 l 1,2,-1
 134 437 l 1,3,-1
 147 520 l 1,0,-1
105 130 m 1,4,-1
 160 130 l 1,5,-1
 4 -170 l 1,6,-1
 -42 -170 l 1,7,-1
 105 130 l 1,4,-1
EndSplineSet
EndChar

StartChar: exclam
Encoding: 33 33 441
Width: 262
Flags: W
LayerCount: 2
Fore
SplineSet
174 730 m 1,0,-1
 229 730 l 1,1,-1
 140 198 l 1,2,-1
 95 198 l 1,3,-1
 174 730 l 1,0,-1
58 83 m 1,4,-1
 140 83 l 1,5,-1
 126 0 l 1,6,-1
 45 0 l 1,7,-1
 58 83 l 1,4,-1
EndSplineSet
Substitution2: "'aalt' Access All Alternates in Latin lookup 0 subtable" uniFF01
EndChar

StartChar: exclamdown
Encoding: 161 161 442
Width: 262
Flags: W
LayerCount: 2
Fore
SplineSet
127 520 m 1,0,-1
 209 520 l 1,1,-1
 196 437 l 1,2,-1
 114 437 l 1,3,-1
 127 520 l 1,0,-1
115 322 m 1,4,-1
 160 322 l 1,5,-1
 80 -210 l 1,6,-1
 26 -210 l 1,7,-1
 115 322 l 1,4,-1
EndSplineSet
EndChar

StartChar: question
Encoding: 63 63 443
Width: 528
Flags: W
LayerCount: 2
Fore
SplineSet
221 317.5 m 128,-1,1
 261 367 261 367 352 422 c 0,2,3
 423 466 423 466 455.5 501.5 c 128,-1,4
 488 537 488 537 494 580 c 0,5,6
 503 638 503 638 460 666 c 128,-1,7
 417 694 417 694 317 694 c 0,8,9
 211 694 211 694 100 659 c 1,10,-1
 95 703 l 1,11,12
 208 740 208 740 330 740 c 0,13,14
 570 740 570 740 545 585 c 0,15,16
 536 530 536 530 499 486.5 c 128,-1,17
 462 443 462 443 382 395 c 0,18,19
 300 345 300 345 264.5 302 c 128,-1,20
 229 259 229 259 219 198 c 1,21,-1
 170 198 l 1,22,0
 181 268 181 268 221 317.5 c 128,-1,1
135 83 m 1,23,-1
 217 83 l 1,24,-1
 204 0 l 1,25,-1
 122 0 l 1,26,-1
 135 83 l 1,23,-1
EndSplineSet
Substitution2: "'aalt' Access All Alternates in Latin lookup 0 subtable" uniFF1F
EndChar

StartChar: questiondown
Encoding: 191 191 444
Width: 528
Flags: W
LayerCount: 2
Fore
SplineSet
303 437 m 1,0,-1
 316 520 l 1,1,-1
 398 520 l 1,2,-1
 384 437 l 1,3,-1
 303 437 l 1,0,-1
298.5 202.5 m 128,-1,5
 259 153 259 153 169 98 c 0,6,7
 98 54 98 54 65.5 18.5 c 128,-1,8
 33 -17 33 -17 26 -60 c 0,9,10
 17 -118 17 -118 60 -146 c 128,-1,11
 103 -174 103 -174 203 -174 c 0,12,13
 309 -174 309 -174 421 -139 c 1,14,-1
 425 -183 l 1,15,16
 312 -220 312 -220 191 -220 c 256,17,18
 69 -220 69 -220 16 -181.5 c 128,-1,19
 -37 -143 -37 -143 -24 -65 c 0,20,21
 -15 -10 -15 -10 22 33.5 c 128,-1,22
 59 77 59 77 138 125 c 0,23,24
 220 175 220 175 255.5 218 c 128,-1,25
 291 261 291 261 302 322 c 1,26,-1
 350 322 l 1,27,4
 338 252 338 252 298.5 202.5 c 128,-1,5
EndSplineSet
EndChar

StartChar: bullet
Encoding: 8226 8226 446
Width: 253
Flags: W
LayerCount: 2
Fore
SplineSet
82.5 250.5 m 128,-1,1
 69 267 69 267 73 290 c 256,2,3
 77 313 77 313 95.5 329.5 c 128,-1,4
 114 346 114 346 137 346 c 256,5,6
 160 346 160 346 173 329.5 c 128,-1,7
 186 313 186 313 183 290 c 256,8,9
 179 267 179 267 160 250.5 c 128,-1,10
 141 234 141 234 119 234 c 256,11,0
 96 234 96 234 82.5 250.5 c 128,-1,1
EndSplineSet
EndChar

StartChar: asterisk
Encoding: 42 42 447
Width: 479
Flags: W
LayerCount: 2
Fore
SplineSet
112 378 m 1,0,-1
 244 527 l 1,1,-1
 80 583 l 1,2,-1
 100 626 l 1,3,-1
 264 568 l 1,4,-1
 292 753 l 1,5,-1
 335 753 l 1,6,-1
 305 568 l 1,7,-1
 488 626 l 1,8,-1
 494 583 l 1,9,-1
 311 527 l 1,10,-1
 396 378 l 1,11,-1
 356 351 l 1,12,-1
 274 502 l 1,13,-1
 144 351 l 1,14,-1
 112 378 l 1,0,-1
EndSplineSet
EndChar

StartChar: numbersign
Encoding: 35 35 448
Width: 637
Flags: W
LayerCount: 2
Fore
SplineSet
631 502 m 1,0,-1
 509 502 l 1,1,-1
 424 248 l 1,2,-1
 539 248 l 1,3,-1
 532 203 l 1,4,-1
 409 203 l 1,5,-1
 342 0 l 1,6,-1
 295 0 l 1,7,-1
 362 203 l 1,8,-1
 190 203 l 1,9,-1
 123 0 l 1,10,-1
 76 0 l 1,11,-1
 144 203 l 1,12,-1
 28 203 l 1,13,-1
 35 248 l 1,14,-1
 159 248 l 1,15,-1
 243 502 l 1,16,-1
 127 502 l 1,17,-1
 135 547 l 1,18,-1
 258 547 l 1,19,-1
 318 730 l 1,20,-1
 365 730 l 1,21,-1
 304 547 l 1,22,-1
 477 547 l 1,23,-1
 537 730 l 1,24,-1
 584 730 l 1,25,-1
 524 547 l 1,26,-1
 638 547 l 1,27,-1
 631 502 l 1,0,-1
377 248 m 1,28,-1
 462 502 l 1,29,-1
 290 502 l 1,30,-1
 206 248 l 1,31,-1
 377 248 l 1,28,-1
EndSplineSet
EndChar

StartChar: slash
Encoding: 47 47 449
Width: 417
Flags: W
LayerCount: 2
Fore
SplineSet
425 750 m 1,0,-1
 475 750 l 1,1,-1
 14 -40 l 1,2,-1
 -36 -40 l 1,3,-1
 425 750 l 1,0,-1
EndSplineSet
EndChar

StartChar: backslash
Encoding: 92 92 450
Width: 417
Flags: W
LayerCount: 2
Fore
SplineSet
350 -40 m 1,0,-1
 300 -40 l 1,1,-1
 89 750 l 1,2,-1
 139 750 l 1,3,-1
 350 -40 l 1,0,-1
EndSplineSet
EndChar

StartChar: parenleft
Encoding: 40 40 451
Width: 320
Flags: W
LayerCount: 2
Fore
SplineSet
89 330 m 0,1,2
 128 579 128 579 293 770 c 1,3,-1
 344 770 l 1,4,5
 259 671 259 671 209 563.5 c 128,-1,6
 159 456 159 456 139 330 c 256,7,8
 119 204 119 204 135 96.5 c 128,-1,9
 151 -11 151 -11 205 -110 c 1,10,-1
 154 -110 l 1,11,0
 50 82 50 82 89 330 c 0,1,2
EndSplineSet
Substitution2: "'aalt' Access All Alternates in Latin lookup 0 subtable" uniFF08
EndChar

StartChar: parenright
Encoding: 41 41 452
Width: 320
Flags: W
LayerCount: 2
Fore
SplineSet
-9 -110 m 1,0,1
 76 -11 76 -11 126 96.5 c 128,-1,2
 176 204 176 204 196 330 c 256,3,4
 216 456 216 456 200.5 563.5 c 128,-1,5
 185 671 185 671 131 770 c 1,6,-1
 182 770 l 1,7,8
 286 579 286 579 246 330 c 0,9,10
 207 82 207 82 42 -110 c 1,11,-1
 -9 -110 l 1,0,1
EndSplineSet
Substitution2: "'aalt' Access All Alternates in Latin lookup 0 subtable" uniFF09
EndChar

StartChar: braceleft
Encoding: 123 123 453
Width: 446
Flags: W
CounterMasks: 1 e0
LayerCount: 2
Fore
SplineSet
152.5 -75.5 m 128,-1,1
 128 -41 128 -41 140 35 c 2,2,-1
 163 180 l 2,3,4
 172 239 172 239 156 273 c 128,-1,5
 140 307 140 307 103 307 c 2,6,-1
 55 307 l 1,7,-1
 63 353 l 1,8,-1
 110 353 l 2,9,10
 147 353 147 353 174 387 c 128,-1,11
 201 421 201 421 210 480 c 2,12,-1
 233 625 l 2,13,14
 245 701 245 701 280.5 735.5 c 128,-1,15
 316 770 316 770 382 770 c 2,16,-1
 468 770 l 1,17,-1
 461 725 l 1,18,-1
 392 725 l 2,19,20
 337 725 337 725 312.5 700 c 128,-1,21
 288 675 288 675 278 610 c 2,22,-1
 257 476 l 2,23,24
 248 421 248 421 224.5 384.5 c 128,-1,25
 201 348 201 348 164 331 c 1,26,-1
 164 329 l 1,27,28
 196 312 196 312 207.5 275.5 c 128,-1,29
 219 239 219 239 210 184 c 2,30,-1
 189 50 l 2,31,32
 179 -15 179 -15 195.5 -40 c 128,-1,33
 212 -65 212 -65 267 -65 c 2,34,-1
 336 -65 l 1,35,-1
 329 -110 l 1,36,-1
 242 -110 l 2,37,0
 177 -110 177 -110 152.5 -75.5 c 128,-1,1
EndSplineSet
EndChar

StartChar: braceright
Encoding: 125 125 454
Width: 446
Flags: W
CounterMasks: 1 e0
LayerCount: 2
Fore
SplineSet
-8 -110 m 1,0,-1
 -1 -65 l 1,1,-1
 68 -65 l 2,2,3
 123 -65 123 -65 148 -40 c 128,-1,4
 173 -15 173 -15 183 50 c 2,5,-1
 204 184 l 2,6,7
 222 296 222 296 297 329 c 1,8,-1
 297 331 l 1,9,10
 233 364 233 364 251 476 c 2,11,-1
 272 610 l 2,12,13
 282 675 282 675 265 700 c 128,-1,14
 248 725 248 725 193 725 c 2,15,-1
 124 725 l 1,16,-1
 132 770 l 1,17,-1
 219 770 l 2,18,19
 285 770 285 770 309 735.5 c 128,-1,20
 333 701 333 701 321 625 c 2,21,-1
 298 480 l 2,22,23
 289 421 289 421 305 387 c 128,-1,24
 321 353 321 353 359 353 c 2,25,-1
 406 353 l 1,26,-1
 398 307 l 1,27,-1
 351 307 l 2,28,29
 314 307 314 307 287 273 c 128,-1,30
 260 239 260 239 251 180 c 2,31,-1
 228 35 l 2,32,33
 216 -41 216 -41 180.5 -75.5 c 128,-1,34
 145 -110 145 -110 79 -110 c 2,35,-1
 -8 -110 l 1,0,-1
EndSplineSet
EndChar

StartChar: bracketleft
Encoding: 91 91 455
Width: 382
Flags: W
LayerCount: 2
Fore
SplineSet
167 770 m 1,0,-1
 414 770 l 1,1,-1
 407 725 l 1,2,-1
 207 725 l 1,3,-1
 82 -65 l 1,4,-1
 282 -65 l 1,5,-1
 275 -110 l 1,6,-1
 28 -110 l 1,7,-1
 167 770 l 1,0,-1
EndSplineSet
EndChar

StartChar: bracketright
Encoding: 93 93 456
Width: 382
Flags: W
LayerCount: 2
Fore
SplineSet
229 -110 m 1,0,-1
 -17 -110 l 1,1,-1
 -10 -65 l 1,2,-1
 189 -65 l 1,3,-1
 314 725 l 1,4,-1
 115 725 l 1,5,-1
 122 770 l 1,6,-1
 368 770 l 1,7,-1
 229 -110 l 1,0,-1
EndSplineSet
EndChar

StartChar: hyphen
Encoding: 45 45 457
Width: 381
Flags: W
LayerCount: 2
Fore
SplineSet
56 313 m 1,0,-1
 334 313 l 1,1,-1
 326 267 l 1,2,-1
 49 267 l 1,3,-1
 56 313 l 1,0,-1
EndSplineSet
EndChar

StartChar: endash
Encoding: 8211 8211 459
Width: 490
Flags: W
LayerCount: 2
Fore
SplineSet
5 313 m 1,0,-1
 495 313 l 1,1,-1
 487 267 l 1,2,-1
 -3 267 l 1,3,-1
 5 313 l 1,0,-1
EndSplineSet
EndChar

StartChar: emdash
Encoding: 8212 8212 460
Width: 980
Flags: W
LayerCount: 2
Fore
SplineSet
5 313 m 1,0,-1
 985 313 l 1,1,-1
 977 267 l 1,2,-1
 -3 267 l 1,3,-1
 5 313 l 1,0,-1
EndSplineSet
EndChar

StartChar: uni2015
Encoding: 8213 8213 461
Width: 973
Flags: W
LayerCount: 2
Fore
SplineSet
61 383 m 1,0,-1
 943 383 l 1,1,-1
 936 337 l 1,2,-1
 54 337 l 1,3,-1
 61 383 l 1,0,-1
EndSplineSet
EndChar

StartChar: underscore
Encoding: 95 95 462
Width: 561
Flags: W
LayerCount: 2
Fore
SplineSet
-59 -87 m 1,0,-1
 503 -87 l 1,1,-1
 496 -128 l 1,2,-1
 -65 -128 l 1,3,-1
 -59 -87 l 1,0,-1
EndSplineSet
EndChar

StartChar: quoteleft
Encoding: 8216 8216 467
Width: 221
Flags: W
LayerCount: 2
Fore
SplineSet
123 470 m 1,0,-1
 66 470 l 1,1,-1
 222 770 l 1,2,-1
 269 770 l 1,3,-1
 123 470 l 1,0,-1
EndSplineSet
EndChar

StartChar: quoteright
Encoding: 8217 8217 468
Width: 221
Flags: W
LayerCount: 2
Fore
SplineSet
217 770 m 1,0,-1
 274 770 l 1,1,-1
 117 470 l 1,2,-1
 70 470 l 1,3,-1
 217 770 l 1,0,-1
EndSplineSet
EndChar

StartChar: guillemotleft
Encoding: 171 171 469
Width: 413
Flags: W
LayerCount: 2
Fore
SplineSet
15 290 m 1,0,-1
 203 520 l 1,1,-1
 251 520 l 1,2,-1
 62 290 l 1,3,-1
 178 60 l 1,4,-1
 130 60 l 1,5,-1
 15 290 l 1,0,-1
177 290 m 1,6,-1
 366 520 l 1,7,-1
 415 520 l 1,8,-1
 225 290 l 1,9,-1
 342 60 l 1,10,-1
 293 60 l 1,11,-1
 177 290 l 1,6,-1
EndSplineSet
EndChar

StartChar: guillemotright
Encoding: 187 187 470
Width: 413
Flags: W
LayerCount: 2
Fore
SplineSet
50 60 m 1,0,-1
 1 60 l 1,1,-1
 190 290 l 1,2,-1
 74 520 l 1,3,-1
 123 520 l 1,4,-1
 238 290 l 1,5,-1
 50 60 l 1,0,-1
213 60 m 1,6,-1
 165 60 l 1,7,-1
 354 290 l 1,8,-1
 237 520 l 1,9,-1
 285 520 l 1,10,-1
 401 290 l 1,11,-1
 213 60 l 1,6,-1
EndSplineSet
EndChar

StartChar: guilsinglleft
Encoding: 8249 8249 471
Width: 251
Flags: W
LayerCount: 2
Fore
SplineSet
15 290 m 1,0,-1
 204 520 l 1,1,-1
 253 520 l 1,2,-1
 63 290 l 1,3,-1
 180 60 l 1,4,-1
 131 60 l 1,5,-1
 15 290 l 1,0,-1
EndSplineSet
EndChar

StartChar: guilsinglright
Encoding: 8250 8250 472
Width: 251
Flags: W
LayerCount: 2
Fore
SplineSet
50 60 m 1,0,-1
 1 60 l 1,1,-1
 191 290 l 1,2,-1
 74 520 l 1,3,-1
 123 520 l 1,4,-1
 239 290 l 1,5,-1
 50 60 l 1,0,-1
EndSplineSet
EndChar

StartChar: quotedbl
Encoding: 34 34 473
Width: 403
Flags: W
LayerCount: 2
Fore
SplineSet
159 770 m 1,0,-1
 213 770 l 1,1,-1
 161 470 l 1,2,-1
 116 470 l 1,3,-1
 159 770 l 1,0,-1
345 770 m 1,4,-1
 400 770 l 1,5,-1
 348 470 l 1,6,-1
 302 470 l 1,7,-1
 345 770 l 1,4,-1
EndSplineSet
EndChar

StartChar: quotesingle
Encoding: 39 39 474
Width: 218
Flags: W
LayerCount: 2
Fore
SplineSet
159 770 m 1,0,-1
 214 770 l 1,1,-1
 161 470 l 1,2,-1
 116 470 l 1,3,-1
 159 770 l 1,0,-1
EndSplineSet
EndChar

StartChar: uni20B5
Encoding: 8373 8373 476
Width: 679
Flags: W
LayerCount: 2
Fore
SplineSet
594 55 m 1,0,1
 494 -4 494 -4 376 -9 c 1,2,-1
 361 -105 l 1,3,-1
 316 -105 l 1,4,-1
 331 -10 l 1,5,6
 229 -5 229 -5 160.5 42 c 128,-1,7
 92 89 92 89 64 172 c 128,-1,8
 36 255 36 255 54 365 c 256,9,10
 71 475 71 475 125.5 558 c 128,-1,11
 180 641 180 641 263.5 688 c 128,-1,12
 347 735 347 735 450 740 c 1,13,-1
 465 835 l 1,14,-1
 509 835 l 1,15,-1
 494 739 l 1,16,17
 610 734 610 734 692 675 c 1,18,-1
 663 634 l 1,19,20
 586 689 586 689 487 693 c 1,21,-1
 383 37 l 1,22,23
 484 41 484 41 578 96 c 1,24,-1
 594 55 l 1,0,1
110.5 196.5 m 128,-1,26
 134 124 134 124 192.5 82.5 c 128,-1,27
 251 41 251 41 339 37 c 1,28,-1
 443 693 l 1,29,30
 354 689 354 689 282.5 647.5 c 128,-1,31
 211 606 211 606 164 533.5 c 128,-1,32
 117 461 117 461 102 365 c 256,33,25
 87 269 87 269 110.5 196.5 c 128,-1,26
EndSplineSet
EndChar

StartChar: cent
Encoding: 162 162 477
Width: 511
Flags: W
LayerCount: 2
Fore
SplineSet
406 26 m 1,0,1
 341 -6 341 -6 273 -9 c 1,2,-1
 258 -105 l 1,3,-1
 219 -105 l 1,4,-1
 234 -10 l 1,5,6
 120 -5 120 -5 67 66.5 c 128,-1,7
 14 138 14 138 33 260 c 256,8,9
 52 382 52 382 128 453.5 c 128,-1,10
 204 525 204 525 319 530 c 1,11,-1
 334 625 l 1,12,-1
 374 625 l 1,13,-1
 358 529 l 1,14,15
 425 526 425 526 480 494 c 1,16,-1
 460 454 l 1,17,18
 406 483 406 483 352 486 c 1,19,-1
 280 34 l 1,20,21
 335 37 335 37 399 66 c 1,22,-1
 406 26 l 1,0,1
106 98.5 m 128,-1,24
 148 39 148 39 241 34 c 1,25,-1
 312 486 l 1,26,27
 218 481 218 481 157.5 421.5 c 128,-1,28
 97 362 97 362 81 260 c 256,29,23
 64 158 64 158 106 98.5 c 128,-1,24
EndSplineSet
EndChar

StartChar: colonmonetary
Encoding: 8353 8353 478
Width: 679
Flags: W
LayerCount: 2
Fore
SplineSet
594 55 m 1,0,1
 508 4 508 4 405 -7 c 1,2,-1
 382 -105 l 1,3,-1
 340 -105 l 1,4,-1
 363 -10 l 1,5,-1
 353 -10 l 2,6,7
 292 -10 292 -10 242 5 c 1,8,-1
 216 -105 l 1,9,-1
 173 -105 l 1,10,-1
 204 19 l 1,11,12
 112 59 112 59 73 149 c 128,-1,13
 34 239 34 239 54 365 c 0,14,15
 77 510 77 510 162 606 c 128,-1,16
 247 702 247 702 375 730 c 1,17,-1
 401 835 l 1,18,-1
 443 835 l 1,19,-1
 419 737 l 1,20,21
 445 740 445 740 472 740 c 0,22,23
 506 740 506 740 543 735 c 1,24,-1
 567 835 l 1,25,-1
 609 835 l 1,26,-1
 583 726 l 1,27,28
 644 709 644 709 692 675 c 1,29,-1
 663 634 l 1,30,31
 623 663 623 663 572 679 c 1,32,-1
 417 40 l 1,33,34
 498 50 498 50 578 96 c 1,35,-1
 594 55 l 1,0,1
374 36 m 1,36,-1
 532 688 l 1,37,38
 500 694 500 694 466 694 c 0,39,40
 433 694 433 694 408 690 c 1,41,-1
 253 52 l 1,42,43
 303 36 303 36 361 36 c 2,44,-1
 374 36 l 1,36,-1
114.5 182.5 m 128,-1,46
 144 106 144 106 215 68 c 1,47,-1
 364 681 l 1,48,49
 259 652 259 652 190 569.5 c 128,-1,50
 121 487 121 487 102 365 c 0,51,45
 85 259 85 259 114.5 182.5 c 128,-1,46
EndSplineSet
EndChar

StartChar: currency
Encoding: 164 164 479
Width: 660
Flags: W
LayerCount: 2
Fore
SplineSet
539 288.5 m 128,-1,1
 520 252 520 252 492 223 c 1,2,-1
 571 127 l 1,3,-1
 533 94 l 1,4,-1
 454 190 l 1,5,6
 422 166 422 166 384.5 153 c 128,-1,7
 347 140 347 140 308 140 c 256,8,9
 269 140 269 140 235.5 153 c 128,-1,10
 202 166 202 166 176 190 c 1,11,-1
 67 94 l 1,12,-1
 40 127 l 1,13,-1
 150 224 l 1,14,15
 111 285 111 285 123 365 c 0,16,17
 136 444 136 444 195 507 c 1,18,-1
 115 604 l 1,19,-1
 153 636 l 1,20,-1
 231 539 l 1,21,22
 300 590 300 590 380 590 c 0,23,24
 418 590 418 590 451.5 577 c 128,-1,25
 485 564 485 564 510 540 c 1,26,-1
 619 636 l 1,27,-1
 646 603 l 1,28,-1
 537 507 l 1,29,30
 556 478 556 478 563.5 441.5 c 128,-1,31
 571 405 571 405 564 365 c 256,32,0
 558 325 558 325 539 288.5 c 128,-1,1
407 210 m 128,-1,34
 451 234 451 234 481 275.5 c 128,-1,35
 511 317 511 317 518 365 c 256,36,37
 526 413 526 413 509 454.5 c 128,-1,38
 492 496 492 496 455.5 520 c 128,-1,39
 419 544 419 544 372 544 c 0,40,41
 324 544 324 544 280 520 c 128,-1,42
 236 496 236 496 206 454.5 c 128,-1,43
 176 413 176 413 169 365 c 256,44,45
 161 317 161 317 178.5 276 c 128,-1,46
 196 235 196 235 232.5 210.5 c 128,-1,47
 269 186 269 186 316 186 c 256,48,33
 363 186 363 186 407 210 c 128,-1,34
EndSplineSet
EndChar

StartChar: dollar
Encoding: 36 36 480
Width: 601
Flags: W
LayerCount: 2
Fore
SplineSet
449.5 47 m 128,-1,1
 383 -4 383 -4 277 -9 c 1,2,-1
 261 -105 l 1,3,-1
 217 -105 l 1,4,-1
 232 -10 l 1,5,6
 169 -7 169 -7 114 11 c 128,-1,7
 59 29 59 29 21 61 c 1,8,-1
 46 104 l 1,9,10
 83 74 83 74 132.5 56.5 c 128,-1,11
 182 39 182 39 240 36 c 1,12,-1
 292 368 l 1,13,14
 183 410 183 410 142 456.5 c 128,-1,15
 101 503 101 503 112 571 c 0,16,17
 124 647 124 647 186 690.5 c 128,-1,18
 248 734 248 734 351 739 c 1,19,-1
 366 835 l 1,20,-1
 410 835 l 1,21,-1
 395 740 l 1,22,23
 511 736 511 736 597 682 c 1,24,-1
 576 638 l 1,25,26
 490 690 490 690 388 694 c 1,27,-1
 342 404 l 1,28,29
 420 374 420 374 463.5 343 c 128,-1,30
 507 312 507 312 522.5 274.5 c 128,-1,31
 538 237 538 237 530 186 c 0,32,0
 516 98 516 98 449.5 47 c 128,-1,1
186 487.5 m 128,-1,34
 217 453 217 453 300 420 c 1,35,-1
 344 693 l 1,36,37
 264 688 264 688 217.5 657 c 128,-1,38
 171 626 171 626 163 571 c 0,39,33
 155 522 155 522 186 487.5 c 128,-1,34
419 80 m 128,-1,41
 470 118 470 118 481 185 c 0,42,43
 490 242 490 242 457 279.5 c 128,-1,44
 424 317 424 317 334 353 c 1,45,-1
 284 37 l 1,46,40
 368 42 368 42 419 80 c 128,-1,41
EndSplineSet
EndChar

StartChar: dong
Encoding: 8363 8363 481
Width: 663
Flags: W
LayerCount: 2
Fore
SplineSet
669 670 m 1,0,-1
 663 630 l 1,1,-1
 548 630 l 1,2,-1
 472 150 l 1,3,-1
 426 150 l 1,4,-1
 436 220 l 1,5,-1
 434 220 l 1,6,7
 404 183 404 183 353 162.5 c 128,-1,8
 302 142 302 142 242 142 c 0,9,10
 147 142 147 142 102 199.5 c 128,-1,11
 57 257 57 257 73 358 c 256,12,13
 89 459 89 459 152.5 516.5 c 128,-1,14
 216 574 216 574 311 574 c 0,15,16
 371 574 371 574 414.5 553.5 c 128,-1,17
 458 533 458 533 477 496 c 1,18,-1
 479 496 l 1,19,-1
 500 630 l 1,20,-1
 251 630 l 1,21,-1
 257 670 l 1,22,-1
 506 670 l 1,23,-1
 519 750 l 1,24,-1
 567 750 l 1,25,-1
 554 670 l 1,26,-1
 669 670 l 1,0,-1
388.5 225.5 m 128,-1,28
 443 269 443 269 454 339 c 2,29,-1
 460 377 l 2,30,31
 471 447 471 447 430.5 490.5 c 128,-1,32
 390 534 390 534 314 534 c 0,33,34
 237 534 237 534 185.5 487 c 128,-1,35
 134 440 134 440 121 358 c 256,36,37
 108 276 108 276 144.5 229 c 128,-1,38
 181 182 181 182 258 182 c 0,39,27
 334 182 334 182 388.5 225.5 c 128,-1,28
21 0 m 1,40,-1
 27 40 l 1,41,-1
 569 40 l 1,42,-1
 563 0 l 1,43,-1
 21 0 l 1,40,-1
EndSplineSet
EndChar

StartChar: Euro
Encoding: 8364 8364 482
Width: 755
GlyphClass: 2
Flags: W
AnchorPoint: "Anchor-1" 425 730 basechar 0
AnchorPoint: "Anchor-0" 425 0 basechar 0
LayerCount: 2
Fore
SplineSet
654 96 m 1,1,-1
 670 55 l 1,2,3
 562 -10 562 -10 434 -10 c 0,4,5
 301 -10 301 -10 222.5 61.5 c 128,-1,6
 144 133 144 133 136 258 c 1,7,-1
 29 258 l 1,8,-1
 36 302 l 1,9,-1
 137 302 l 1,10,11
 137 329 137 329 143 365 c 256,12,13
 149 401 149 401 156 428 c 1,14,-1
 56 428 l 1,15,-1
 63 472 l 1,16,-1
 170 472 l 1,17,18
 217 597 217 597 318.5 668.5 c 128,-1,19
 420 740 420 740 553 740 c 0,20,21
 680 740 680 740 768 675 c 1,22,-1
 739 634 l 1,23,24
 658 694 658 694 547 694 c 0,25,26
 435 694 435 694 349.5 635 c 128,-1,27
 264 576 264 576 222 472 c 1,28,-1
 651 472 l 1,29,-1
 644 428 l 1,30,-1
 206 428 l 1,31,32
 198 401 198 401 193 365 c 256,33,34
 187 329 187 329 187 302 c 1,35,-1
 624 302 l 1,36,-1
 617 258 l 1,37,-1
 188 258 l 1,38,39
 197 154 197 154 264 95 c 128,-1,40
 331 36 331 36 443 36 c 0,41,0
 554 36 554 36 654 96 c 1,1,-1
EndSplineSet
EndChar

StartChar: florin
Encoding: 402 402 483
Width: 428
Flags: W
LayerCount: 2
Fore
SplineSet
-40 -105 m 1,1,-1
 -23 -63 l 1,2,3
 7 -77 7 -77 42 -77 c 0,4,5
 91 -77 91 -77 116.5 -49.5 c 128,-1,6
 142 -22 142 -22 153 42 c 2,7,-1
 203 361 l 1,8,-1
 60 361 l 1,9,-1
 66 404 l 1,10,-1
 210 404 l 1,11,-1
 237 578 l 2,12,13
 250 661 250 661 289.5 700.5 c 128,-1,14
 329 740 329 740 397 740 c 0,15,16
 436 740 436 740 476 725 c 1,17,-1
 459 683 l 1,18,19
 431 697 431 697 395 697 c 0,20,21
 346 697 346 697 320 669.5 c 128,-1,22
 294 642 294 642 284 578 c 2,23,-1
 256 404 l 1,24,-1
 423 404 l 1,25,-1
 416 361 l 1,26,-1
 249 361 l 1,27,-1
 199 42 l 2,28,29
 186 -40 186 -40 147 -80 c 128,-1,30
 108 -120 108 -120 40 -120 c 0,31,0
 0 -120 0 -120 -40 -105 c 1,1,-1
EndSplineSet
EndChar

StartChar: franc
Encoding: 8355 8355 484
Width: 603
Flags: W
LayerCount: 2
Fore
SplineSet
620 684 m 1,0,-1
 246 684 l 1,1,-1
 205 427 l 1,2,-1
 560 427 l 1,3,-1
 552 381 l 1,4,-1
 198 381 l 1,5,-1
 164 167 l 1,6,-1
 432 167 l 1,7,-1
 425 123 l 1,8,-1
 157 123 l 1,9,-1
 137 0 l 1,10,-1
 88 0 l 1,11,-1
 108 123 l 1,12,-1
 1 123 l 1,13,-1
 8 167 l 1,14,-1
 115 167 l 1,15,-1
 204 730 l 1,16,-1
 627 730 l 1,17,-1
 620 684 l 1,0,-1
EndSplineSet
EndChar

StartChar: uni20B2
Encoding: 8370 8370 485
Width: 765
Flags: W
LayerCount: 2
Fore
SplineSet
715 409 m 1,0,-1
 658 45 l 1,1,2
 601 20 601 20 526 5 c 128,-1,3
 451 -10 451 -10 380 -10 c 0,4,5
 362 -10 362 -10 354 -9 c 1,6,-1
 339 -105 l 1,7,-1
 295 -105 l 1,8,-1
 311 -6 l 1,9,10
 164 14 164 14 96.5 111 c 128,-1,11
 29 208 29 208 54 365 c 256,12,13
 79 522 79 522 177 619 c 128,-1,14
 275 716 275 716 428 736 c 1,15,-1
 444 835 l 1,16,-1
 488 835 l 1,17,-1
 473 739 l 1,18,19
 482 740 482 740 499 740 c 0,20,21
 640 740 640 740 732 679 c 1,22,-1
 705 639 l 1,23,24
 621 694 621 694 491 694 c 0,25,26
 474 694 474 694 465 693 c 1,27,-1
 420 409 l 1,28,-1
 715 409 l 1,0,-1
136.5 143 m 128,-1,30
 193 59 193 59 318 41 c 1,31,-1
 421 689 l 1,32,33
 291 671 291 671 207.5 587 c 128,-1,34
 124 503 124 503 102 365 c 256,35,29
 80 227 80 227 136.5 143 c 128,-1,30
505.5 47 m 128,-1,37
 566 58 566 58 614 77 c 1,38,-1
 659 364 l 1,39,-1
 413 364 l 1,40,-1
 361 37 l 1,41,42
 370 36 370 36 387 36 c 0,43,36
 445 36 445 36 505.5 47 c 128,-1,37
EndSplineSet
EndChar

StartChar: uni20AD
Encoding: 8365 8365 486
Width: 693
GlyphClass: 2
Flags: W
AnchorPoint: "Anchor-1" 293 730 basechar 0
AnchorPoint: "Anchor-0" 293 0 basechar 0
LayerCount: 2
Fore
SplineSet
648 410 m 1,0,-1
 641 367 l 1,1,-1
 260 367 l 1,2,-1
 583 0 l 1,3,-1
 519 0 l 1,4,-1
 197 367 l 1,5,-1
 195 367 l 1,6,-1
 137 0 l 1,7,-1
 88 0 l 1,8,-1
 146 367 l 1,9,-1
 40 367 l 1,10,-1
 46 410 l 1,11,-1
 153 410 l 1,12,-1
 204 730 l 1,13,-1
 253 730 l 1,14,-1
 202 410 l 1,15,-1
 204 410 l 1,16,-1
 623 730 l 1,17,-1
 689 730 l 1,18,-1
 271 410 l 1,19,-1
 648 410 l 1,0,-1
EndSplineSet
EndChar

StartChar: lira
Encoding: 8356 8356 487
Width: 633
Flags: W
LayerCount: 2
Fore
SplineSet
533 46 m 1,0,-1
 525 0 l 1,1,-1
 45 0 l 1,2,-1
 52 46 l 1,3,4
 83 48 83 48 112 69.5 c 128,-1,5
 141 91 141 91 162.5 129.5 c 128,-1,6
 184 168 184 168 192 219 c 2,7,-1
 202 281 l 1,8,-1
 90 281 l 1,9,-1
 96 324 l 1,10,-1
 209 324 l 1,11,-1
 229 451 l 1,12,-1
 117 451 l 1,13,-1
 123 494 l 1,14,-1
 236 494 l 1,15,-1
 244 545 l 2,16,17
 259 640 259 640 321.5 690 c 128,-1,18
 384 740 384 740 486 740 c 0,19,20
 551 740 551 740 606 714 c 1,21,-1
 586 670 l 1,22,23
 543 694 543 694 482 694 c 0,24,25
 316 694 316 694 292 539 c 2,26,-1
 285 494 l 1,27,-1
 544 494 l 1,28,-1
 537 451 l 1,29,-1
 278 451 l 1,30,-1
 258 324 l 1,31,-1
 517 324 l 1,32,-1
 510 281 l 1,33,-1
 251 281 l 1,34,-1
 241 219 l 2,35,36
 232 162 232 162 204 117 c 128,-1,37
 176 72 176 72 137 48 c 1,38,-1
 137 46 l 1,39,-1
 533 46 l 1,0,-1
EndSplineSet
EndChar

StartChar: uni20BA
Encoding: 8378 8378 488
Width: 649
Flags: W
LayerCount: 2
Fore
SplineSet
622 340 m 1,0,1
 603 217 603 217 544.5 140 c 128,-1,2
 486 63 486 63 383.5 26.5 c 128,-1,3
 281 -10 281 -10 126 -10 c 2,4,-1
 87 -10 l 1,5,-1
 148 378 l 1,6,-1
 38 358 l 1,7,-1
 45 401 l 1,8,-1
 155 421 l 1,9,-1
 175 548 l 1,10,-1
 65 528 l 1,11,-1
 72 571 l 1,12,-1
 182 591 l 1,13,-1
 204 730 l 1,14,-1
 253 730 l 1,15,-1
 232 601 l 1,16,-1
 505 651 l 1,17,-1
 498 608 l 1,18,-1
 226 558 l 1,19,-1
 205 431 l 1,20,-1
 478 481 l 1,21,-1
 471 438 l 1,22,-1
 199 388 l 1,23,-1
 143 38 l 1,24,-1
 160 38 l 2,25,26
 290 38 290 38 376 69.5 c 128,-1,27
 462 101 462 101 510.5 167 c 128,-1,28
 559 233 559 233 576 340 c 1,29,-1
 622 340 l 1,0,1
EndSplineSet
EndChar

StartChar: uni20BC
Encoding: 8380 8380 489
Width: 733
Flags: W
LayerCount: 2
Fore
SplineSet
654.5 669 m 128,-1,1
 709 598 709 598 688 460 c 2,2,-1
 615 0 l 1,3,-1
 566 0 l 1,4,-1
 638 456 l 2,5,6
 657 577 657 577 614 635.5 c 128,-1,7
 571 694 571 694 463 694 c 2,8,-1
 453 694 l 1,9,-1
 343 0 l 1,10,-1
 299 0 l 1,11,-1
 409 694 l 1,12,-1
 399 694 l 2,13,14
 291 694 291 694 229.5 635.5 c 128,-1,15
 168 577 168 577 149 456 c 2,16,-1
 77 0 l 1,17,-1
 29 0 l 1,18,-1
 102 460 l 2,19,20
 124 598 124 598 201 669 c 128,-1,21
 278 740 278 740 407 740 c 2,22,-1
 416 740 l 1,23,-1
 431 835 l 1,24,-1
 476 835 l 1,25,-1
 460 740 l 1,26,-1
 470 740 l 2,27,0
 600 740 600 740 654.5 669 c 128,-1,1
EndSplineSet
EndChar

StartChar: uni20A6
Encoding: 8358 8358 490
Width: 790
GlyphClass: 2
Flags: W
AnchorPoint: "Anchor-1" 361 730 basechar 0
AnchorPoint: "Anchor-0" 361 0 basechar 0
LayerCount: 2
Fore
SplineSet
787 428 m 1,0,-1
 680 428 l 1,1,-1
 660 302 l 1,2,-1
 767 302 l 1,3,-1
 760 258 l 1,4,-1
 653 258 l 1,5,-1
 613 0 l 1,6,-1
 553 0 l 1,7,-1
 431 258 l 1,8,-1
 178 258 l 1,9,-1
 137 0 l 1,10,-1
 88 0 l 1,11,-1
 129 258 l 1,12,-1
 22 258 l 1,13,-1
 29 302 l 1,14,-1
 136 302 l 1,15,-1
 156 428 l 1,16,-1
 49 428 l 1,17,-1
 56 472 l 1,18,-1
 163 472 l 1,19,-1
 204 730 l 1,20,-1
 264 730 l 1,21,-1
 385 472 l 1,22,-1
 638 472 l 1,23,-1
 679 730 l 1,24,-1
 728 730 l 1,25,-1
 687 472 l 1,26,-1
 794 472 l 1,27,-1
 787 428 l 1,0,-1
241 657 m 1,28,-1
 212 472 l 1,29,-1
 331 472 l 1,30,-1
 243 657 l 1,31,-1
 241 657 l 1,28,-1
410 302 m 1,32,-1
 351 428 l 1,33,-1
 205 428 l 1,34,-1
 185 302 l 1,35,-1
 410 302 l 1,32,-1
611 302 m 1,36,-1
 631 428 l 1,37,-1
 406 428 l 1,38,-1
 465 302 l 1,39,-1
 611 302 l 1,36,-1
575 73 m 1,40,-1
 604 258 l 1,41,-1
 486 258 l 1,42,-1
 573 73 l 1,43,-1
 575 73 l 1,40,-1
EndSplineSet
EndChar

StartChar: peseta
Encoding: 8359 8359 491
Width: 683
Flags: W
LayerCount: 2
Fore
SplineSet
705 484 m 1,0,-1
 616 484 l 1,1,2
 594 380 594 380 517 331 c 128,-1,3
 440 282 440 282 299 282 c 2,4,-1
 182 282 l 1,5,-1
 137 0 l 1,6,-1
 88 0 l 1,7,-1
 165 484 l 1,8,-1
 58 484 l 1,9,-1
 65 527 l 1,10,-1
 172 527 l 1,11,-1
 204 730 l 1,12,-1
 364 730 l 2,13,14
 508 730 508 730 570.5 680.5 c 128,-1,15
 633 631 633 631 622 527 c 1,16,-1
 712 527 l 1,17,-1
 705 484 l 1,0,-1
221 527 m 1,18,-1
 573 527 l 1,19,20
 580 610 580 610 529 647.5 c 128,-1,21
 478 685 478 685 358 685 c 2,22,-1
 246 685 l 1,23,-1
 221 527 l 1,18,-1
484.5 363.5 m 128,-1,25
 548 401 548 401 567 484 c 1,26,-1
 214 484 l 1,27,-1
 189 326 l 1,28,-1
 302 326 l 2,29,24
 421 326 421 326 484.5 363.5 c 128,-1,25
EndSplineSet
EndChar

StartChar: uni20B1
Encoding: 8369 8369 492
Width: 683
Flags: W
LayerCount: 2
Fore
SplineSet
718 569 m 1,0,-1
 624 569 l 1,1,2
 625 541 625 541 620 506 c 256,3,4
 614 471 614 471 604 442 c 1,5,-1
 698 442 l 1,6,-1
 691 399 l 1,7,-1
 584 399 l 1,8,9
 547 339 547 339 477 310.5 c 128,-1,10
 407 282 407 282 299 282 c 2,11,-1
 182 282 l 1,12,-1
 137 0 l 1,13,-1
 88 0 l 1,14,-1
 151 399 l 1,15,-1
 45 399 l 1,16,-1
 51 442 l 1,17,-1
 158 442 l 1,18,-1
 178 569 l 1,19,-1
 72 569 l 1,20,-1
 78 612 l 1,21,-1
 185 612 l 1,22,-1
 204 730 l 1,23,-1
 364 730 l 2,24,25
 476 730 476 730 537.5 701 c 128,-1,26
 599 672 599 672 617 612 c 1,27,-1
 725 612 l 1,28,-1
 718 569 l 1,0,-1
234 612 m 1,29,-1
 560 612 l 1,30,31
 539 649 539 649 490 667 c 128,-1,32
 441 685 441 685 358 685 c 2,33,-1
 246 685 l 1,34,-1
 234 612 l 1,29,-1
573 569 m 1,36,-1
 227 569 l 1,37,-1
 207 442 l 1,38,-1
 553 442 l 1,39,40
 566 472 566 472 571 505 c 0,41,35
 576 539 576 539 573 569 c 1,36,-1
439.5 344 m 128,-1,43
 495 362 495 362 527 399 c 1,44,-1
 200 399 l 1,45,-1
 189 326 l 1,46,-1
 302 326 l 2,47,42
 384 326 384 326 439.5 344 c 128,-1,43
EndSplineSet
EndChar

StartChar: uni20BD
Encoding: 8381 8381 493
Width: 611
Flags: W
LayerCount: 2
Fore
SplineSet
184 297 m 1,0,-1
 164 171 l 1,1,-1
 433 171 l 1,2,-1
 426 127 l 1,3,-1
 157 127 l 1,4,-1
 137 0 l 1,5,-1
 88 0 l 1,6,-1
 108 127 l 1,7,-1
 2 127 l 1,8,-1
 8 171 l 1,9,-1
 115 171 l 1,10,-1
 135 297 l 1,11,-1
 28 297 l 1,12,-1
 35 341 l 1,13,-1
 142 341 l 1,14,-1
 204 730 l 1,15,-1
 364 730 l 2,16,17
 516 730 516 730 577.5 677.5 c 128,-1,18
 639 625 639 625 621 512 c 0,19,20
 603 401 603 401 526.5 349 c 128,-1,21
 450 297 450 297 302 297 c 2,22,-1
 184 297 l 1,0,-1
191 341 m 1,23,-1
 304 341 l 2,24,25
 431 341 431 341 494.5 381.5 c 128,-1,26
 558 422 558 422 572 512 c 0,27,28
 586 603 586 603 536 643.5 c 128,-1,29
 486 684 486 684 358 684 c 2,30,-1
 246 684 l 1,31,-1
 191 341 l 1,23,-1
EndSplineSet
EndChar

StartChar: uni20B9
Encoding: 8377 8377 494
Width: 614
Flags: W
LayerCount: 2
Fore
SplineSet
627 687 m 1,0,-1
 450 687 l 1,1,2
 488 667 488 667 504.5 634 c 128,-1,3
 521 601 521 601 517 553 c 1,4,-1
 605 553 l 1,5,-1
 599 510 l 1,6,-1
 510 510 l 1,7,8
 489 419 489 419 412.5 376.5 c 128,-1,9
 336 334 336 334 197 334 c 2,10,-1
 196 334 l 1,11,-1
 451 0 l 1,12,-1
 386 0 l 1,13,-1
 132 334 l 1,14,-1
 55 334 l 1,15,-1
 63 380 l 1,16,-1
 205 380 l 2,17,18
 322 380 322 380 382 411 c 128,-1,19
 442 442 442 442 460 510 c 1,20,-1
 83 510 l 1,21,-1
 90 553 l 1,22,-1
 467 553 l 1,23,24
 471 621 471 621 420 652.5 c 128,-1,25
 369 684 369 684 253 684 c 2,26,-1
 111 684 l 1,27,-1
 118 730 l 1,28,-1
 633 730 l 1,29,-1
 627 687 l 1,0,-1
EndSplineSet
EndChar

StartChar: sterling
Encoding: 163 163 495
Width: 633
Flags: W
LayerCount: 2
Fore
SplineSet
533 46 m 1,0,-1
 525 0 l 1,1,-1
 45 0 l 1,2,-1
 52 46 l 1,3,4
 83 48 83 48 112 69.5 c 128,-1,5
 141 91 141 91 162.5 129.5 c 128,-1,6
 184 168 184 168 192 219 c 2,7,-1
 216 366 l 1,8,-1
 103 366 l 1,9,-1
 110 409 l 1,10,-1
 223 409 l 1,11,-1
 244 545 l 2,12,13
 259 640 259 640 321.5 690 c 128,-1,14
 384 740 384 740 486 740 c 0,15,16
 551 740 551 740 606 714 c 1,17,-1
 586 670 l 1,18,19
 543 694 543 694 482 694 c 0,20,21
 316 694 316 694 292 539 c 2,22,-1
 272 409 l 1,23,-1
 530 409 l 1,24,-1
 523 366 l 1,25,-1
 265 366 l 1,26,-1
 241 219 l 2,27,28
 232 162 232 162 204 117 c 128,-1,29
 176 72 176 72 137 48 c 1,30,-1
 137 46 l 1,31,-1
 533 46 l 1,0,-1
EndSplineSet
EndChar

StartChar: uni20A9
Encoding: 8361 8361 496
Width: 953
GlyphClass: 2
Flags: W
AnchorPoint: "Anchor-1" 444 730 basechar 0
AnchorPoint: "Anchor-0" 444 0 basechar 0
LayerCount: 2
Fore
SplineSet
950 428 m 1,0,-1
 840 428 l 1,1,-1
 790 302 l 1,2,-1
 930 302 l 1,3,-1
 923 258 l 1,4,-1
 772 258 l 1,5,-1
 667 0 l 1,6,-1
 603 0 l 1,7,-1
 567 258 l 1,8,-1
 379 258 l 1,9,-1
 263 0 l 1,10,-1
 197 0 l 1,11,-1
 175 258 l 1,12,-1
 22 258 l 1,13,-1
 29 302 l 1,14,-1
 171 302 l 1,15,-1
 160 428 l 1,16,-1
 49 428 l 1,17,-1
 56 472 l 1,18,-1
 156 472 l 1,19,-1
 134 730 l 1,20,-1
 184 730 l 1,21,-1
 205 472 l 1,22,-1
 429 472 l 1,23,-1
 500 630 l 1,24,-1
 564 630 l 1,25,-1
 585 472 l 1,26,-1
 809 472 l 1,27,-1
 911 730 l 1,28,-1
 962 730 l 1,29,-1
 858 472 l 1,30,-1
 957 472 l 1,31,-1
 950 428 l 1,0,-1
522 575 m 1,32,-1
 476 472 l 1,33,-1
 538 472 l 1,34,-1
 524 575 l 1,35,-1
 522 575 l 1,32,-1
209 428 m 1,36,-1
 219 302 l 1,37,-1
 352 302 l 1,38,-1
 409 428 l 1,39,-1
 209 428 l 1,36,-1
561 302 m 1,40,-1
 544 428 l 1,41,-1
 456 428 l 1,42,-1
 399 302 l 1,43,-1
 561 302 l 1,40,-1
742 302 m 1,44,-1
 792 428 l 1,45,-1
 592 428 l 1,46,-1
 608 302 l 1,47,-1
 742 302 l 1,44,-1
241 56 m 1,48,-1
 332 258 l 1,49,-1
 223 258 l 1,50,-1
 239 56 l 1,51,-1
 241 56 l 1,48,-1
644 56 m 1,52,-1
 724 258 l 1,53,-1
 614 258 l 1,54,-1
 642 56 l 1,55,-1
 644 56 l 1,52,-1
EndSplineSet
EndChar

StartChar: yen
Encoding: 165 165 497
Width: 618
Flags: W
LayerCount: 2
Fore
SplineSet
680 730 m 1,0,-1
 369 353 l 1,1,-1
 564 353 l 1,2,-1
 557 310 l 1,3,-1
 339 310 l 1,4,-1
 318 183 l 1,5,-1
 537 183 l 1,6,-1
 530 140 l 1,7,-1
 312 140 l 1,8,-1
 289 0 l 1,9,-1
 239 0 l 1,10,-1
 262 140 l 1,11,-1
 43 140 l 1,12,-1
 50 183 l 1,13,-1
 268 183 l 1,14,-1
 289 310 l 1,15,-1
 70 310 l 1,16,-1
 77 353 l 1,17,-1
 272 353 l 1,18,-1
 80 730 l 1,19,-1
 137 730 l 1,20,-1
 321 365 l 1,21,-1
 323 365 l 1,22,-1
 624 730 l 1,23,-1
 680 730 l 1,0,-1
EndSplineSet
EndChar

StartChar: uni2215
Encoding: 8725 8725 499
Width: 391
Flags: W
LayerCount: 2
Fore
SplineSet
397 730 m 1,0,-1
 447 730 l 1,1,-1
 20 0 l 1,2,-1
 -30 0 l 1,3,-1
 397 730 l 1,0,-1
EndSplineSet
EndChar

StartChar: plus
Encoding: 43 43 500
Width: 671
Flags: W
LayerCount: 2
Fore
SplineSet
310 267 m 1,0,-1
 49 267 l 1,1,-1
 56 313 l 1,2,-1
 317 313 l 1,3,-1
 359 580 l 1,4,-1
 405 580 l 1,5,-1
 363 313 l 1,6,-1
 625 313 l 1,7,-1
 618 267 l 1,8,-1
 356 267 l 1,9,-1
 314 0 l 1,10,-1
 268 0 l 1,11,-1
 310 267 l 1,0,-1
EndSplineSet
EndChar

StartChar: minus
Encoding: 8722 8722 501
Width: 671
Flags: W
LayerCount: 2
Fore
SplineSet
56 313 m 1,0,-1
 625 313 l 1,1,-1
 618 267 l 1,2,-1
 49 267 l 1,3,-1
 56 313 l 1,0,-1
EndSplineSet
EndChar

StartChar: multiply
Encoding: 215 215 502
Width: 575
Flags: W
LayerCount: 2
Fore
SplineSet
498 73 m 1,0,-1
 462 41 l 1,1,-1
 284 258 l 1,2,-1
 37 41 l 1,3,-1
 10 73 l 1,4,-1
 257 290 l 1,5,-1
 79 507 l 1,6,-1
 115 539 l 1,7,-1
 294 322 l 1,8,-1
 541 539 l 1,9,-1
 567 507 l 1,10,-1
 320 290 l 1,11,-1
 498 73 l 1,0,-1
EndSplineSet
EndChar

StartChar: divide
Encoding: 247 247 503
Width: 671
Flags: W
CounterMasks: 1 e0
LayerCount: 2
Fore
SplineSet
336.5 488.5 m 128,-1,1
 325 502 325 502 329 521 c 256,2,3
 332 540 332 540 347 553.5 c 128,-1,4
 362 567 362 567 381 567 c 256,5,6
 400 567 400 567 410.5 553.5 c 128,-1,7
 421 540 421 540 418 521 c 256,8,9
 415 502 415 502 400 488.5 c 128,-1,10
 385 475 385 475 366 475 c 256,11,0
 348 475 348 475 336.5 488.5 c 128,-1,1
56 313 m 1,12,-1
 625 313 l 1,13,-1
 618 267 l 1,14,-1
 49 267 l 1,15,-1
 56 313 l 1,12,-1
263.5 26.5 m 128,-1,17
 252 40 252 40 255 59 c 256,18,19
 258 78 258 78 273.5 91.5 c 128,-1,20
 289 105 289 105 308 105 c 256,21,22
 327 105 327 105 337.5 91.5 c 128,-1,23
 348 78 348 78 345 59 c 256,24,25
 342 40 342 40 327 26.5 c 128,-1,26
 312 13 312 13 293 13 c 256,27,16
 275 13 275 13 263.5 26.5 c 128,-1,17
EndSplineSet
EndChar

StartChar: equal
Encoding: 61 61 504
Width: 749
Flags: W
LayerCount: 2
Fore
SplineSet
112 425 m 1,0,-1
 681 425 l 1,1,-1
 674 379 l 1,2,-1
 105 379 l 1,3,-1
 112 425 l 1,0,-1
77 201 m 1,4,-1
 645 201 l 1,5,-1
 638 155 l 1,6,-1
 70 155 l 1,7,-1
 77 201 l 1,4,-1
EndSplineSet
EndChar

StartChar: notequal
Encoding: 8800 8800 505
Width: 749
Flags: W
LayerCount: 2
Fore
SplineSet
674 379 m 1,0,-1
 443 379 l 1,1,-1
 357 201 l 1,2,-1
 645 201 l 1,3,-1
 638 155 l 1,4,-1
 335 155 l 1,5,-1
 251 -20 l 1,6,-1
 209 -6 l 1,7,-1
 286 155 l 1,8,-1
 70 155 l 1,9,-1
 77 201 l 1,10,-1
 308 201 l 1,11,-1
 394 379 l 1,12,-1
 105 379 l 1,13,-1
 112 425 l 1,14,-1
 416 425 l 1,15,-1
 501 600 l 1,16,-1
 543 586 l 1,17,-1
 465 425 l 1,18,-1
 681 425 l 1,19,-1
 674 379 l 1,0,-1
EndSplineSet
EndChar

StartChar: greater
Encoding: 62 62 506
Width: 702
Flags: W
LayerCount: 2
Fore
SplineSet
49 74 m 1,0,-1
 610 289 l 1,1,-1
 610 291 l 1,2,-1
 117 506 l 1,3,-1
 125 557 l 1,4,-1
 656 319 l 1,5,-1
 647 261 l 1,6,-1
 41 23 l 1,7,-1
 49 74 l 1,0,-1
EndSplineSet
EndChar

StartChar: less
Encoding: 60 60 507
Width: 702
Flags: W
LayerCount: 2
Fore
SplineSet
48 261 m 1,0,-1
 57 319 l 1,1,-1
 663 557 l 1,2,-1
 655 506 l 1,3,-1
 94 291 l 1,4,-1
 94 289 l 1,5,-1
 587 74 l 1,6,-1
 579 23 l 1,7,-1
 48 261 l 1,0,-1
EndSplineSet
EndChar

StartChar: greaterequal
Encoding: 8805 8805 508
Width: 689
Flags: W
LayerCount: 2
Fore
SplineSet
57 179 m 1,0,-1
 65 230 l 1,1,-1
 625 445 l 1,2,-1
 626 447 l 1,3,-1
 134 662 l 1,4,-1
 142 713 l 1,5,-1
 672 475 l 1,6,-1
 663 417 l 1,7,-1
 57 179 l 1,0,-1
29 0 m 1,8,-1
 36 45 l 1,9,-1
 604 45 l 1,10,-1
 597 0 l 1,11,-1
 29 0 l 1,8,-1
EndSplineSet
EndChar

StartChar: lessequal
Encoding: 8804 8804 509
Width: 689
Flags: W
LayerCount: 2
Fore
SplineSet
78 475 m 1,0,-1
 684 713 l 1,1,-1
 676 662 l 1,2,-1
 114 447 l 1,3,-1
 114 445 l 1,4,-1
 607 230 l 1,5,-1
 599 179 l 1,6,-1
 68 417 l 1,7,-1
 78 475 l 1,0,-1
9 45 m 1,8,-1
 578 45 l 1,9,-1
 571 0 l 1,10,-1
 2 0 l 1,11,-1
 9 45 l 1,8,-1
EndSplineSet
EndChar

StartChar: plusminus
Encoding: 177 177 510
Width: 749
Flags: W
LayerCount: 2
Fore
SplineSet
374 423 m 1,0,-1
 112 423 l 1,1,-1
 119 469 l 1,2,-1
 381 469 l 1,3,-1
 422 730 l 1,4,-1
 468 730 l 1,5,-1
 427 469 l 1,6,-1
 688 469 l 1,7,-1
 680 423 l 1,8,-1
 420 423 l 1,9,-1
 378 162 l 1,10,-1
 332 162 l 1,11,-1
 374 423 l 1,0,-1
52 45 m 1,12,-1
 621 45 l 1,13,-1
 613 0 l 1,14,-1
 45 0 l 1,15,-1
 52 45 l 1,12,-1
EndSplineSet
EndChar

StartChar: approxequal
Encoding: 8776 8776 511
Width: 706
Flags: W
LayerCount: 2
Fore
SplineSet
214 478 m 0,1,2
 276 478 276 478 387 423 c 0,3,4
 438 398 438 398 472 387 c 128,-1,5
 506 376 506 376 531 376 c 0,6,7
 569 376 569 376 590.5 398 c 128,-1,8
 612 420 612 420 619 468 c 1,9,-1
 664 468 l 1,10,11
 652 393 652 393 616 360.5 c 128,-1,12
 580 328 580 328 530 328 c 0,13,14
 498 328 498 328 456 341 c 128,-1,15
 414 354 414 354 357 382 c 0,16,17
 307 407 307 407 272.5 418.5 c 128,-1,18
 238 430 238 430 213 430 c 0,19,20
 174 430 174 430 153 406.5 c 128,-1,21
 132 383 132 383 123 331 c 1,22,-1
 79 331 l 1,23,0
 102 478 102 478 214 478 c 0,1,2
178 250 m 0,25,26
 240 250 240 250 351 195 c 0,27,28
 401 170 401 170 435.5 158.5 c 128,-1,29
 470 147 470 147 495 147 c 0,30,31
 533 147 533 147 554.5 169 c 128,-1,32
 576 191 576 191 583 240 c 1,33,-1
 627 240 l 1,34,35
 615 165 615 165 579 132 c 128,-1,36
 543 99 543 99 493 99 c 0,37,38
 462 99 462 99 420.5 112.5 c 128,-1,39
 379 126 379 126 321 154 c 0,40,41
 271 179 271 179 236.5 190.5 c 128,-1,42
 202 202 202 202 176 202 c 0,43,44
 137 202 137 202 116.5 178.5 c 128,-1,45
 96 155 96 155 87 103 c 1,46,-1
 43 103 l 1,47,24
 66 250 66 250 178 250 c 0,25,26
EndSplineSet
EndChar

StartChar: asciitilde
Encoding: 126 126 512
Width: 665
Flags: W
LayerCount: 2
Fore
SplineSet
178 376 m 0,1,2
 241 376 241 376 350 321 c 0,3,4
 401 295 401 295 435 284 c 128,-1,5
 469 273 469 273 495 273 c 0,6,7
 532 273 532 273 553.5 295 c 128,-1,8
 575 317 575 317 582 366 c 1,9,-1
 626 366 l 1,10,11
 614 290 614 290 578 257 c 128,-1,12
 542 224 542 224 492 224 c 0,13,14
 461 224 461 224 420 237.5 c 128,-1,15
 379 251 379 251 321 279 c 0,16,17
 269 305 269 305 235 316.5 c 128,-1,18
 201 328 201 328 175 328 c 0,19,20
 136 328 136 328 115.5 304.5 c 128,-1,21
 95 281 95 281 87 228 c 1,22,-1
 43 228 l 1,23,0
 66 376 66 376 178 376 c 0,1,2
EndSplineSet
EndChar

StartChar: logicalnot
Encoding: 172 172 513
Width: 697
Flags: W
LayerCount: 2
Fore
SplineSet
576 378 m 1,0,-1
 67 378 l 1,1,-1
 74 425 l 1,2,-1
 629 425 l 1,3,-1
 586 155 l 1,4,-1
 541 155 l 1,5,-1
 576 378 l 1,0,-1
EndSplineSet
EndChar

StartChar: asciicircum
Encoding: 94 94 514
Width: 566
Flags: W
LayerCount: 2
Fore
SplineSet
320 730 m 1,0,-1
 387 730 l 1,1,-1
 550 280 l 1,2,-1
 496 280 l 1,3,-1
 349 695 l 1,4,-1
 347 695 l 1,5,-1
 69 280 l 1,6,-1
 15 280 l 1,7,-1
 320 730 l 1,0,-1
EndSplineSet
EndChar

StartChar: uni00B5
Encoding: 181 181 515
Width: 528
GlyphClass: 2
Flags: W
AnchorPoint: "Anchor-3" 437 480 basechar 0
AnchorPoint: "Anchor-2" 442 0 basechar 0
AnchorPoint: "Anchor-1" 240 520 basechar 0
AnchorPoint: "Anchor-0" 240 0 basechar 0
LayerCount: 2
Fore
SplineSet
492 520 m 1,0,-1
 410 0 l 1,1,-1
 365 0 l 1,2,-1
 380 96 l 1,3,-1
 378 96 l 1,4,5
 343 47 343 47 289 18.5 c 128,-1,6
 235 -10 235 -10 178 -10 c 0,7,8
 106 -10 106 -10 73 37 c 1,9,-1
 33 -220 l 1,10,-1
 -13 -220 l 1,11,-1
 104 520 l 1,12,-1
 150 520 l 1,13,-1
 100 207 l 2,14,15
 87 123 87 123 111 78 c 128,-1,16
 135 33 135 33 194 33 c 0,17,18
 242 33 242 33 286 61 c 128,-1,19
 330 89 330 89 361.5 136 c 128,-1,20
 393 183 393 183 402 238 c 2,21,-1
 446 520 l 1,22,-1
 492 520 l 1,0,-1
EndSplineSet
EndChar

StartChar: percent
Encoding: 37 37 516
Width: 813
Flags: W
LayerCount: 2
Fore
SplineSet
88.5 342.5 m 128,-1,1
 59 399 59 399 77 511 c 256,2,3
 95 623 95 623 142 679.5 c 128,-1,4
 189 736 189 736 264 736 c 0,5,6
 416 736 416 736 381 511 c 256,7,8
 345 286 345 286 193 286 c 0,9,0
 118 286 118 286 88.5 342.5 c 128,-1,1
655 730 m 1,10,-1
 704 730 l 1,11,-1
 183 0 l 1,12,-1
 134 0 l 1,13,-1
 655 730 l 1,10,-1
336 511 m 256,15,16
 365 693 365 693 258 693 c 0,17,18
 152 693 152 693 123 511 c 256,19,20
 94 329 94 329 200 329 c 0,21,14
 307 329 307 329 336 511 c 256,15,16
470.5 50.5 m 128,-1,23
 441 107 441 107 459 219 c 256,24,25
 477 331 477 331 524 387.5 c 128,-1,26
 571 444 571 444 645 444 c 0,27,28
 797 444 797 444 762 219 c 256,29,30
 726 -6 726 -6 574 -6 c 0,31,22
 500 -6 500 -6 470.5 50.5 c 128,-1,23
668.5 82 m 128,-1,33
 702 127 702 127 717 219 c 256,34,35
 732 311 732 311 712.5 356 c 128,-1,36
 693 401 693 401 639 401 c 0,37,38
 533 401 533 401 504 219 c 256,39,40
 475 37 475 37 581 37 c 0,41,32
 635 37 635 37 668.5 82 c 128,-1,33
EndSplineSet
EndChar

StartChar: at
Encoding: 64 64 518
Width: 801
Flags: W
LayerCount: 2
Fore
SplineSet
592 466 m 1,0,-1
 533 94 l 1,1,-1
 651 94 l 1,2,3
 704 167 704 167 718 260 c 0,4,5
 733 356 733 356 704.5 430.5 c 128,-1,6
 676 505 676 505 609.5 546.5 c 128,-1,7
 543 588 543 588 449 588 c 0,8,9
 356 588 356 588 275.5 546.5 c 128,-1,10
 195 505 195 505 142.5 430 c 128,-1,11
 90 355 90 355 75 260 c 256,12,13
 60 165 60 165 89 90 c 128,-1,14
 118 15 118 15 185 -26.5 c 128,-1,15
 252 -68 252 -68 345 -68 c 0,16,17
 455 -68 455 -68 546 -9 c 1,18,-1
 564 -41 l 1,19,20
 460 -108 460 -108 339 -108 c 0,21,22
 235 -108 235 -108 160.5 -61 c 128,-1,23
 86 -14 86 -14 53 70 c 128,-1,24
 20 154 20 154 37 260 c 0,25,26
 54 367 54 367 113.5 450.5 c 128,-1,27
 173 534 173 534 262 581 c 128,-1,28
 351 628 351 628 455 628 c 0,29,30
 561 628 561 628 635.5 581.5 c 128,-1,31
 710 535 710 535 742.5 451.5 c 128,-1,32
 775 368 775 368 757 260 c 0,33,34
 738 143 738 143 669 54 c 1,35,-1
 481 54 l 1,36,-1
 492 130 l 1,37,-1
 490 130 l 1,38,39
 435 45 435 45 339 45 c 0,40,41
 263 45 263 45 228.5 102 c 128,-1,42
 194 159 194 159 210 260 c 0,43,44
 226 360 226 360 279 417.5 c 128,-1,45
 332 475 332 475 407 475 c 0,46,47
 504 475 504 475 531 391 c 1,48,-1
 533 391 l 1,49,-1
 546 466 l 1,50,-1
 592 466 l 1,0,-1
514 276 m 2,51,52
 526 351 526 351 499 392.5 c 128,-1,53
 472 434 472 434 413 434 c 256,54,55
 354 434 354 434 312 387.5 c 128,-1,56
 270 341 270 341 258 260 c 0,57,58
 245 178 245 178 271.5 132 c 128,-1,59
 298 86 298 86 357 86 c 256,60,61
 417 86 417 86 457 127.5 c 128,-1,62
 497 169 497 169 509 244 c 2,63,-1
 514 276 l 2,51,52
EndSplineSet
EndChar

StartChar: ampersand
Encoding: 38 38 519
Width: 650
Flags: W
LayerCount: 2
Fore
SplineSet
567 -6 m 1,0,-1
 493 93 l 1,1,2
 367 -10 367 -10 221 -10 c 0,3,4
 116 -10 116 -10 63 39 c 128,-1,5
 10 88 10 88 23 172 c 0,6,7
 30 214 30 214 53 249.5 c 128,-1,8
 76 285 76 285 123.5 323 c 128,-1,9
 171 361 171 361 252 410 c 1,10,-1
 243 422 l 2,11,12
 197 481 197 481 181 524 c 128,-1,13
 165 567 165 567 172 609 c 0,14,15
 182 671 182 671 232 705.5 c 128,-1,16
 282 740 282 740 362 740 c 0,17,18
 441 740 441 740 481 705.5 c 128,-1,19
 521 671 521 671 511 609 c 0,20,21
 503 557 503 557 460 511 c 128,-1,22
 417 465 417 465 320 404 c 1,23,-1
 489 178 l 1,24,-1
 528 422 l 1,25,-1
 574 422 l 1,26,-1
 527 128 l 1,27,-1
 607 21 l 1,28,-1
 567 -6 l 1,0,-1
230 536 m 128,-1,30
 247 498 247 498 294 438 c 2,31,-1
 295 436 l 1,32,33
 382 490 382 490 419.5 528.5 c 128,-1,34
 457 567 457 567 464 608 c 0,35,36
 471 653 471 653 443.5 676.5 c 128,-1,37
 416 700 416 700 356 700 c 0,38,39
 297 700 297 700 261.5 676 c 128,-1,40
 226 652 226 652 219 608 c 0,41,29
 213 574 213 574 230 536 c 128,-1,30
355 57.5 m 128,-1,43
 415 82 415 82 465 129 c 1,44,-1
 277 377 l 1,45,-1
 276 377 l 1,46,47
 202 333 202 333 160.5 300.5 c 128,-1,48
 119 268 119 268 99 238.5 c 128,-1,49
 79 209 79 209 73 174 c 0,50,51
 63 109 63 109 104.5 71 c 128,-1,52
 146 33 146 33 230 33 c 0,53,42
 295 33 295 33 355 57.5 c 128,-1,43
EndSplineSet
EndChar

StartChar: paragraph
Encoding: 182 182 520
Width: 562
Flags: W
LayerCount: 2
Fore
SplineSet
125 301 m 128,-1,1
 78 332 78 332 56 385 c 128,-1,2
 34 438 34 438 44 500 c 256,3,4
 54 562 54 562 93 615 c 128,-1,5
 132 668 132 668 188.5 699 c 128,-1,6
 245 730 245 730 306 730 c 2,7,-1
 551 730 l 1,8,-1
 418 -110 l 1,9,-1
 374 -110 l 1,10,-1
 500 689 l 1,11,-1
 344 689 l 1,12,-1
 217 -110 l 1,13,-1
 173 -110 l 1,14,-1
 233 270 l 1,15,0
 172 270 172 270 125 301 c 128,-1,1
EndSplineSet
EndChar

StartChar: section
Encoding: 167 167 521
Width: 513
Flags: W
LayerCount: 2
Fore
SplineSet
397 106 m 128,-1,1
 407 77 407 77 401 37 c 0,2,3
 389 -36 389 -36 333 -78 c 128,-1,4
 277 -120 277 -120 193 -120 c 0,5,6
 102 -120 102 -120 22 -74 c 1,7,-1
 44 -34 l 1,8,9
 82 -56 82 -56 118 -66.5 c 128,-1,10
 154 -77 154 -77 196 -77 c 0,11,12
 262 -77 262 -77 304 -46.5 c 128,-1,13
 346 -16 346 -16 355 37 c 0,14,15
 363 85 363 85 337 114.5 c 128,-1,16
 311 144 311 144 234 161 c 0,17,18
 140 182 140 182 101.5 224 c 128,-1,19
 63 266 63 266 74 335 c 0,20,21
 80 375 80 375 102.5 407.5 c 128,-1,22
 125 440 125 440 160 463 c 1,23,24
 133 485 133 485 123 514 c 128,-1,25
 113 543 113 543 120 583 c 0,26,27
 132 656 132 656 188 698 c 128,-1,28
 244 740 244 740 329 740 c 0,29,30
 420 740 420 740 499 694 c 1,31,-1
 478 654 l 1,32,33
 440 676 440 676 403.5 686.5 c 128,-1,34
 367 697 367 697 325 697 c 0,35,36
 259 697 259 697 216.5 666.5 c 128,-1,37
 174 636 174 636 166 583 c 0,38,39
 158 535 158 535 184 505.5 c 128,-1,40
 210 476 210 476 286 459 c 0,41,42
 381 438 381 438 420 396 c 128,-1,43
 459 354 459 354 448 285 c 0,44,45
 442 245 442 245 419 212.5 c 128,-1,46
 396 180 396 180 360 157 c 1,47,0
 387 135 387 135 397 106 c 128,-1,1
137 252 m 128,-1,49
 167 222 167 222 248 203 c 0,50,51
 294 193 294 193 327 177 c 1,52,53
 358 194 358 194 378.5 222.5 c 128,-1,54
 399 251 399 251 405 285 c 0,55,56
 413 338 413 338 383 368 c 128,-1,57
 353 398 353 398 274 417 c 0,58,59
 228 427 228 427 195 443 c 1,60,61
 163 426 163 426 142 397.5 c 128,-1,62
 121 369 121 369 116 335 c 0,63,48
 107 282 107 282 137 252 c 128,-1,49
EndSplineSet
EndChar

StartChar: copyright
Encoding: 169 169 522
Width: 800
Flags: W
LayerCount: 2
Fore
SplineSet
181.5 47.5 m 128,-1,1
 107 97 107 97 72.5 181 c 128,-1,2
 38 265 38 265 54 365 c 256,3,4
 70 465 70 465 131 549 c 128,-1,5
 192 633 192 633 282.5 682.5 c 128,-1,6
 373 732 373 732 471 732 c 256,7,8
 569 732 569 732 643.5 682.5 c 128,-1,9
 718 633 718 633 753 549 c 128,-1,10
 788 465 788 465 772 365 c 256,11,12
 756 265 756 265 694.5 181 c 128,-1,13
 633 97 633 97 542.5 47.5 c 128,-1,14
 452 -2 452 -2 354 -2 c 256,15,0
 256 -2 256 -2 181.5 47.5 c 128,-1,1
529.5 79 m 128,-1,17
 611 123 611 123 666.5 199 c 128,-1,18
 722 275 722 275 736 365 c 256,19,20
 750 455 750 455 719 531 c 128,-1,21
 688 607 688 607 620.5 651 c 128,-1,22
 553 695 553 695 465 695 c 256,23,24
 377 695 377 695 295.5 650.5 c 128,-1,25
 214 606 214 606 158.5 530.5 c 128,-1,26
 103 455 103 455 89 365 c 256,27,28
 75 275 75 275 106.5 199.5 c 128,-1,29
 138 124 138 124 205 79.5 c 128,-1,30
 272 35 272 35 360 35 c 256,31,16
 448 35 448 35 529.5 79 c 128,-1,17
243.5 201 m 128,-1,33
 196 262 196 262 213 365 c 256,34,35
 229 468 229 468 296 529 c 128,-1,36
 363 590 363 590 459 590 c 0,37,38
 535 590 535 590 587 551 c 1,39,-1
 559 513 l 1,40,41
 515 547 515 547 453 547 c 0,42,43
 377 547 377 547 324.5 498 c 128,-1,44
 272 449 272 449 259 365 c 0,45,46
 246 280 246 280 282 231.5 c 128,-1,47
 318 183 318 183 395 183 c 0,48,49
 458 183 458 183 512 217 c 1,50,-1
 528 179 l 1,51,52
 464 140 464 140 388 140 c 0,53,32
 291 140 291 140 243.5 201 c 128,-1,33
EndSplineSet
EndChar

StartChar: registered
Encoding: 174 174 523
Width: 800
Flags: W
LayerCount: 2
Fore
SplineSet
643.5 682.5 m 128,-1,1
 718 633 718 633 753 549 c 128,-1,2
 788 465 788 465 772 365 c 256,3,4
 756 265 756 265 694.5 181 c 128,-1,5
 633 97 633 97 542.5 47.5 c 128,-1,6
 452 -2 452 -2 354 -2 c 256,7,8
 256 -2 256 -2 181.5 47.5 c 128,-1,9
 107 97 107 97 72.5 181 c 128,-1,10
 38 265 38 265 54 365 c 256,11,12
 70 465 70 465 131 549 c 128,-1,13
 192 633 192 633 282.5 682.5 c 128,-1,14
 373 732 373 732 471 732 c 256,15,0
 569 732 569 732 643.5 682.5 c 128,-1,1
529.5 79 m 128,-1,17
 611 123 611 123 666.5 199 c 128,-1,18
 722 275 722 275 736 365 c 256,19,20
 750 455 750 455 719 531 c 128,-1,21
 688 607 688 607 620.5 651 c 128,-1,22
 553 695 553 695 465 695 c 256,23,24
 377 695 377 695 295.5 650.5 c 128,-1,25
 214 606 214 606 158.5 530.5 c 128,-1,26
 103 455 103 455 89 365 c 256,27,28
 75 275 75 275 106.5 199.5 c 128,-1,29
 138 124 138 124 205 79.5 c 128,-1,30
 272 35 272 35 360 35 c 256,31,16
 448 35 448 35 529.5 79 c 128,-1,17
545 146 m 1,32,-1
 487 146 l 1,33,-1
 331 342 l 1,34,-1
 330 342 l 1,35,-1
 299 146 l 1,36,-1
 253 146 l 1,37,-1
 323 584 l 1,38,-1
 421 584 l 2,39,40
 512 584 512 584 549.5 555 c 128,-1,41
 587 526 587 526 577 463 c 256,42,43
 567 400 567 400 520.5 371 c 128,-1,44
 474 342 474 342 386 342 c 1,45,-1
 545 146 l 1,32,-1
362 544 m 1,46,-1
 336 380 l 1,47,-1
 389 380 l 2,48,49
 458 380 458 380 491 399 c 128,-1,50
 524 418 524 418 531 462 c 256,51,52
 538 506 538 506 511 525 c 128,-1,53
 484 544 484 544 415 544 c 2,54,-1
 362 544 l 1,46,-1
EndSplineSet
EndChar

StartChar: trademark
Encoding: 8482 8482 524
Width: 732
Flags: W
LayerCount: 2
Fore
SplineSet
208 691 m 1,0,-1
 90 691 l 1,1,-1
 96 730 l 1,2,-1
 373 730 l 1,3,-1
 367 691 l 1,4,-1
 251 691 l 1,5,-1
 199 365 l 1,6,-1
 156 365 l 1,7,-1
 208 691 l 1,0,-1
432 730 m 1,8,-1
 487 730 l 1,9,-1
 561 498 l 1,10,-1
 562 498 l 1,11,-1
 710 730 l 1,12,-1
 764 730 l 1,13,-1
 707 365 l 1,14,-1
 665 365 l 1,15,-1
 711 656 l 1,16,-1
 710 656 l 1,17,-1
 574 443 l 1,18,-1
 532 443 l 1,19,-1
 464 656 l 1,20,-1
 463 656 l 1,21,-1
 417 365 l 1,22,-1
 374 365 l 1,23,-1
 432 730 l 1,8,-1
EndSplineSet
EndChar

StartChar: degree
Encoding: 176 176 525
Width: 392
Flags: W
LayerCount: 2
Fore
SplineSet
140.5 432 m 128,-1,1
 107 454 107 454 91.5 491.5 c 128,-1,2
 76 529 76 529 83 573 c 256,3,4
 90 617 90 617 117.5 654 c 128,-1,5
 145 691 145 691 185 713 c 128,-1,6
 225 735 225 735 268 735 c 0,7,8
 310 735 310 735 343.5 713 c 128,-1,9
 377 691 377 691 393 654 c 128,-1,10
 409 617 409 617 402 573 c 256,11,12
 395 529 395 529 367.5 491.5 c 128,-1,13
 340 454 340 454 299.5 432 c 128,-1,14
 259 410 259 410 217 410 c 0,15,0
 174 410 174 410 140.5 432 c 128,-1,1
313 486 m 128,-1,17
 354 522 354 522 362 573 c 0,18,19
 370 623 370 623 340.5 659 c 128,-1,20
 311 695 311 695 262 695 c 0,21,22
 230 695 230 695 199.5 678.5 c 128,-1,23
 169 662 169 662 148 634 c 128,-1,24
 127 606 127 606 121 573 c 0,25,26
 113 522 113 522 143 486 c 128,-1,27
 173 450 173 450 223 450 c 0,28,16
 272 450 272 450 313 486 c 128,-1,17
EndSplineSet
EndChar

StartChar: bar
Encoding: 124 124 526
Width: 228
Flags: W
LayerCount: 2
Fore
SplineSet
173 810 m 1,0,-1
 220 810 l 1,1,-1
 57 -220 l 1,2,-1
 10 -220 l 1,3,-1
 173 810 l 1,0,-1
EndSplineSet
EndChar

StartChar: brokenbar
Encoding: 166 166 527
Width: 228
Flags: W
LayerCount: 2
Fore
SplineSet
173 810 m 1,0,-1
 220 810 l 1,1,-1
 151 370 l 1,2,-1
 104 370 l 1,3,-1
 173 810 l 1,0,-1
80 220 m 1,4,-1
 127 220 l 1,5,-1
 57 -220 l 1,6,-1
 10 -220 l 1,7,-1
 80 220 l 1,4,-1
EndSplineSet
EndChar

StartChar: dagger
Encoding: 8224 8224 528
Width: 475
Flags: W
LayerCount: 2
Fore
SplineSet
244 477 m 1,0,-1
 56 477 l 1,1,-1
 63 520 l 1,2,-1
 251 520 l 1,3,-1
 284 730 l 1,4,-1
 331 730 l 1,5,-1
 298 520 l 1,6,-1
 487 520 l 1,7,-1
 480 477 l 1,8,-1
 291 477 l 1,9,-1
 198 -110 l 1,10,-1
 151 -110 l 1,11,-1
 244 477 l 1,0,-1
EndSplineSet
EndChar

StartChar: daggerdbl
Encoding: 8225 8225 529
Width: 495
Flags: W
LayerCount: 2
Fore
SplineSet
194 100 m 1,0,-1
 6 100 l 1,1,-1
 13 143 l 1,2,-1
 201 143 l 1,3,-1
 254 477 l 1,4,-1
 66 477 l 1,5,-1
 73 520 l 1,6,-1
 261 520 l 1,7,-1
 294 730 l 1,8,-1
 341 730 l 1,9,-1
 308 520 l 1,10,-1
 497 520 l 1,11,-1
 490 477 l 1,12,-1
 301 477 l 1,13,-1
 248 143 l 1,14,-1
 437 143 l 1,15,-1
 431 100 l 1,16,-1
 242 100 l 1,17,-1
 208 -110 l 1,18,-1
 161 -110 l 1,19,-1
 194 100 l 1,0,-1
EndSplineSet
EndChar

StartChar: uni2116
Encoding: 8470 8470 530
Width: 1136
GlyphClass: 2
Flags: W
AnchorPoint: "Anchor-1" 313 730 basechar 0
AnchorPoint: "Anchor-0" 313 0 basechar 0
LayerCount: 2
Fore
SplineSet
768.5 365.5 m 128,-1,1
 728 423 728 423 744 524 c 256,2,3
 760 625 760 625 818.5 682.5 c 128,-1,4
 877 740 877 740 965 740 c 256,5,6
 1053 740 1053 740 1093 683 c 128,-1,7
 1133 626 1133 626 1117 524 c 256,8,9
 1101 422 1101 422 1042.5 365 c 128,-1,10
 984 308 984 308 896 308 c 0,11,0
 809 308 809 308 768.5 365.5 c 128,-1,1
212 730 m 1,12,-1
 522 73 l 1,13,-1
 524 73 l 1,14,-1
 628 730 l 1,15,-1
 677 730 l 1,16,-1
 561 0 l 1,17,-1
 501 0 l 1,18,-1
 192 657 l 1,19,-1
 190 657 l 1,20,-1
 86 0 l 1,21,-1
 37 0 l 1,22,-1
 153 730 l 1,23,-1
 212 730 l 1,12,-1
1013 394 m 128,-1,25
 1057 440 1057 440 1070 524 c 256,26,27
 1083 608 1083 608 1054 654 c 128,-1,28
 1025 700 1025 700 958 700 c 0,29,30
 892 700 892 700 848 654 c 128,-1,31
 804 608 804 608 791 524 c 256,32,33
 778 440 778 440 807.5 394 c 128,-1,34
 837 348 837 348 902 348 c 0,35,24
 969 348 969 348 1013 394 c 128,-1,25
708 237 m 1,36,-1
 1061 237 l 1,37,-1
 1055 195 l 1,38,-1
 702 195 l 1,39,-1
 708 237 l 1,36,-1
EndSplineSet
Ligature2: "'ordn' Ordinals in Latin lookup 9 subtable" N o period
EndChar

StartChar: uni0308
Encoding: 776 776 533
Width: 22
GlyphClass: 4
Flags: W
AnchorPoint: "Anchor-10" -236 706 basemark 0
AnchorPoint: "Anchor-10" -236 520 mark 0
AnchorPoint: "Anchor-6" -236 520 mark 0
AnchorPoint: "Anchor-1" -236 520 mark 0
LayerCount: 2
Fore
SplineSet
-255 706 m 1,0,-1
 -175 706 l 1,1,-1
 -188 624 l 1,2,-1
 -268 624 l 1,3,-1
 -255 706 l 1,0,-1
-15 706 m 1,4,-1
 64 706 l 1,5,-1
 51 624 l 1,6,-1
 -28 624 l 1,7,-1
 -15 706 l 1,4,-1
EndSplineSet
EndChar

StartChar: uni0307
Encoding: 775 775 534
Width: 5
GlyphClass: 4
Flags: W
AnchorPoint: "Anchor-10" -114 706 basemark 0
AnchorPoint: "Anchor-10" -114 520 mark 0
AnchorPoint: "Anchor-6" -114 520 mark 0
AnchorPoint: "Anchor-1" -114 520 mark 0
LayerCount: 2
Fore
SplineSet
-33 706 m 1,0,-1
 47 706 l 1,1,-1
 34 624 l 1,2,-1
 -46 624 l 1,3,-1
 -33 706 l 1,0,-1
EndSplineSet
EndChar

StartChar: gravecomb
Encoding: 768 768 535
Width: 12
GlyphClass: 4
Flags: W
AnchorPoint: "Anchor-10" -252 520 mark 0
AnchorPoint: "Anchor-6" -252 520 mark 0
AnchorPoint: "Anchor-1" -252 520 mark 0
LayerCount: 2
Fore
SplineSet
-203 770 m 5,0,-1
 -142 770 l 5,1,-1
 -66 560 l 5,2,-1
 -116 560 l 5,3,-1
 -203 770 l 5,0,-1
EndSplineSet
EndChar

StartChar: acutecomb
Encoding: 769 769 536
Width: 12
GlyphClass: 4
Flags: W
AnchorPoint: "Anchor-10" -165 520 mark 0
AnchorPoint: "Anchor-6" -165 520 mark 0
AnchorPoint: "Anchor-1" -165 520 mark 0
LayerCount: 2
Fore
SplineSet
-89 560 m 1,0,-1
 -140 560 l 1,1,-1
 4 770 l 1,2,-1
 64 770 l 1,3,-1
 -89 560 l 1,0,-1
EndSplineSet
EndChar

StartChar: uni0302
Encoding: 770 770 538
Width: 26
GlyphClass: 4
Flags: W
AnchorPoint: "Anchor-10" -311 520 mark 0
AnchorPoint: "Anchor-6" -311 520 mark 0
AnchorPoint: "Anchor-1" -311 520 mark 0
LayerCount: 2
Fore
SplineSet
-198 770 m 5,0,-1
 -115 770 l 5,1,-1
 -5 560 l 5,2,-1
 -63 560 l 5,3,-1
 -160 744 l 5,4,-1
 -162 744 l 5,5,-1
 -316 560 l 5,6,-1
 -374 560 l 5,7,-1
 -198 770 l 5,0,-1
EndSplineSet
EndChar

StartChar: uni030C
Encoding: 780 780 539
Width: 26
GlyphClass: 4
Flags: W
AnchorPoint: "Anchor-10" -311 770 basemark 0
AnchorPoint: "Anchor-10" -311 520 mark 0
AnchorPoint: "Anchor-6" -311 520 mark 0
AnchorPoint: "Anchor-1" -311 520 mark 0
LayerCount: 2
Fore
SplineSet
-340 770 m 5,0,-1
 -282 770 l 5,1,-1
 -186 586 l 5,2,-1
 -184 586 l 5,3,-1
 -29 770 l 5,4,-1
 29 770 l 5,5,-1
 -148 560 l 5,6,-1
 -230 560 l 5,7,-1
 -340 770 l 5,0,-1
EndSplineSet
EndChar

StartChar: uni0306
Encoding: 774 774 540
Width: 24
GlyphClass: 4
Flags: W
AnchorPoint: "Anchor-10" -286 520 mark 0
AnchorPoint: "Anchor-6" -286 520 mark 0
AnchorPoint: "Anchor-1" -286 520 mark 0
LayerCount: 2
Fore
SplineSet
-273 625.5 m 4,0,1
 -314 663 -314 663 -312 724 c 5,2,-1
 -262 724 l 5,3,4
 -261 680 -261 680 -233 655 c 132,-1,5
 -205 630 -205 630 -157 630 c 260,6,7
 -109 630 -109 630 -73 655 c 132,-1,8
 -37 680 -37 680 -22 724 c 5,9,-1
 29 724 l 5,10,11
 11 663 11 663 -42 625.5 c 132,-1,12
 -95 588 -95 588 -163 588 c 260,13,14
 -231 588 -231 588 -273 625.5 c 4,0,1
EndSplineSet
EndChar

StartChar: uni030A
Encoding: 778 778 541
Width: 18
GlyphClass: 4
Flags: W
AnchorPoint: "Anchor-10" -251 717 basemark 0
AnchorPoint: "Anchor-10" -251 520 mark 0
AnchorPoint: "Anchor-6" -251 520 mark 0
AnchorPoint: "Anchor-1" -251 520 mark 0
LayerCount: 2
Fore
SplineSet
-207 540 m 132,-1,1
 -234 558 -234 558 -247 588.5 c 132,-1,2
 -260 619 -260 619 -254 655 c 260,3,4
 -248 691 -248 691 -226 721.5 c 132,-1,5
 -204 752 -204 752 -171 770 c 132,-1,6
 -138 788 -138 788 -103 788 c 4,7,8
 -67 788 -67 788 -40 770 c 132,-1,9
 -13 752 -13 752 0 721.5 c 132,-1,10
 13 691 13 691 7 655 c 260,11,12
 1 619 1 619 -21 588.5 c 132,-1,13
 -43 558 -43 558 -76 540 c 132,-1,14
 -109 522 -109 522 -145 522 c 4,15,0
 -180 522 -180 522 -207 540 c 132,-1,1
-69 589 m 132,-1,17
 -38 616 -38 616 -32 655 c 260,18,19
 -26 694 -26 694 -48.5 721 c 132,-1,20
 -71 748 -71 748 -109 748 c 4,21,22
 -146 748 -146 748 -177.5 721 c 132,-1,23
 -209 694 -209 694 -215 655 c 260,24,25
 -221 616 -221 616 -198.5 589 c 132,-1,26
 -176 562 -176 562 -139 562 c 4,27,16
 -100 562 -100 562 -69 589 c 132,-1,17
EndSplineSet
EndChar

StartChar: tildecomb
Encoding: 771 771 542
Width: 24
GlyphClass: 4
Flags: W
AnchorPoint: "Anchor-10" -287 734 basemark 0
AnchorPoint: "Anchor-10" -287 520 mark 0
AnchorPoint: "Anchor-6" -287 520 mark 0
AnchorPoint: "Anchor-1" -287 520 mark 0
LayerCount: 2
Fore
SplineSet
-120.5 609.5 m 132,-1,1
 -146 623 -146 623 -170 647 c 4,2,3
 -207 686 -207 686 -239 686 c 4,4,5
 -256 686 -256 686 -266.5 668 c 132,-1,6
 -277 650 -277 650 -284 606 c 5,7,-1
 -331 606 l 5,8,9
 -311 734 -311 734 -232 734 c 4,10,11
 -208 734 -208 734 -182 720.5 c 132,-1,12
 -156 707 -156 707 -133 683 c 4,13,14
 -95 644 -95 644 -63 644 c 4,15,16
 -46 644 -46 644 -35.5 662 c 132,-1,17
 -25 680 -25 680 -18 724 c 5,18,-1
 29 724 l 5,19,20
 9 596 9 596 -71 596 c 4,21,0
 -95 596 -95 596 -120.5 609.5 c 132,-1,1
EndSplineSet
EndChar

StartChar: uni0304
Encoding: 772 772 543
Width: 24
GlyphClass: 4
Flags: W
AnchorPoint: "Anchor-10" -297 686 basemark 0
AnchorPoint: "Anchor-10" -297 520 mark 0
AnchorPoint: "Anchor-6" -297 520 mark 0
AnchorPoint: "Anchor-1" -297 520 mark 0
LayerCount: 2
Fore
SplineSet
-329 686 m 5,0,-1
 13 686 l 5,1,-1
 6 644 l 5,2,-1
 -336 644 l 5,3,-1
 -329 686 l 5,0,-1
EndSplineSet
EndChar

StartChar: uni0305
Encoding: 773 773 544
Width: 40
GlyphClass: 4
Flags: W
LayerCount: 2
Fore
SplineSet
-433 841 m 1,0,-1
 128 841 l 1,1,-1
 122 800 l 1,2,-1
 -440 800 l 1,3,-1
 -433 841 l 1,0,-1
EndSplineSet
EndChar

StartChar: hookabovecomb
Encoding: 777 777 545
Width: 18
GlyphClass: 4
Flags: W
AnchorPoint: "Anchor-10" -209 768 basemark 0
AnchorPoint: "Anchor-10" -209 520 mark 0
AnchorPoint: "Anchor-6" -209 520 mark 0
AnchorPoint: "Anchor-1" -209 520 mark 0
LayerCount: 2
Fore
SplineSet
-6.5 637 m 128,-1,1
 2 661 2 661 5 678 c 0,2,3
 9 706 9 706 -8 716 c 128,-1,4
 -25 726 -25 726 -78 726 c 0,5,6
 -134 726 -134 726 -198 710 c 1,7,-1
 -198 751 l 1,8,9
 -127 768 -127 768 -62 768 c 0,10,11
 12 768 12 768 38.5 751.5 c 128,-1,12
 65 735 65 735 58 692 c 0,13,14
 55 672 55 672 46 645 c 128,-1,15
 37 618 37 618 27 598 c 1,16,-1
 -23 598 l 1,17,0
 -15 613 -15 613 -6.5 637 c 128,-1,1
EndSplineSet
EndChar

StartChar: uni030F
Encoding: 783 783 546
Width: 25
GlyphClass: 4
Flags: W
AnchorPoint: "Anchor-10" -343 770 basemark 0
AnchorPoint: "Anchor-10" -343 520 mark 0
AnchorPoint: "Anchor-6" -343 520 mark 0
AnchorPoint: "Anchor-1" -343 520 mark 0
LayerCount: 2
Fore
SplineSet
-381 770 m 5,0,-1
 -320 770 l 5,1,-1
 -243 560 l 5,2,-1
 -293 560 l 5,3,-1
 -381 770 l 5,0,-1
-190 770 m 5,4,-1
 -129 770 l 5,5,-1
 -52 560 l 5,6,-1
 -102 560 l 5,7,-1
 -190 770 l 5,4,-1
EndSplineSet
EndChar

StartChar: uni0311
Encoding: 785 785 547
Width: 24
GlyphClass: 4
Flags: W
AnchorPoint: "Anchor-10" -286 742 basemark 0
AnchorPoint: "Anchor-10" -286 520 mark 0
AnchorPoint: "Anchor-6" -286 520 mark 0
AnchorPoint: "Anchor-1" -286 520 mark 0
LayerCount: 2
Fore
SplineSet
-29.5 704.5 m 132,-1,1
 12 667 12 667 10 606 c 5,2,-1
 -41 606 l 5,3,4
 -42 650 -42 650 -70 675 c 132,-1,5
 -98 700 -98 700 -146 700 c 260,6,7
 -194 700 -194 700 -229.5 675 c 132,-1,8
 -265 650 -265 650 -280 606 c 5,9,-1
 -331 606 l 5,10,11
 -313 667 -313 667 -260.5 704.5 c 132,-1,12
 -208 742 -208 742 -139 742 c 260,13,0
 -71 742 -71 742 -29.5 704.5 c 132,-1,1
EndSplineSet
EndChar

StartChar: uni0312
Encoding: 786 786 548
Width: 12
GlyphClass: 4
Flags: W
AnchorPoint: "Anchor-10" -177 770 basemark 0
AnchorPoint: "Anchor-10" -177 520 mark 0
AnchorPoint: "Anchor-6" -177 520 mark 0
AnchorPoint: "Anchor-1" -177 520 mark 0
LayerCount: 2
Fore
SplineSet
-3 770 m 1,0,-1
 47 770 l 1,1,-1
 -96 560 l 1,2,-1
 -157 560 l 1,3,-1
 -3 770 l 1,0,-1
EndSplineSet
EndChar

StartChar: uni031B
Encoding: 795 795 549
Width: 12
GlyphClass: 4
Flags: W
AnchorPoint: "Anchor-11" -115 770 basemark 0
AnchorPoint: "Anchor-11" -304 617 mark 0
AnchorPoint: "Anchor-7" -304 617 mark 0
AnchorPoint: "Anchor-3" -304 617 mark 0
LayerCount: 2
Fore
SplineSet
-197 574 m 1,1,-1
 -182 617 l 1,2,3
 -160 599 -160 599 -129 599 c 0,4,5
 -69 599 -69 599 -58 673 c 0,6,7
 -55 695 -55 695 -55 723.5 c 128,-1,8
 -55 752 -55 752 -60 770 c 1,9,-1
 -10 770 l 1,10,11
 0 719 0 719 -9 669 c 0,12,13
 -18 615 -18 615 -48 585 c 128,-1,14
 -78 555 -78 555 -124 555 c 0,15,0
 -161 555 -161 555 -197 574 c 1,1,-1
EndSplineSet
EndChar

StartChar: uni0326
Encoding: 806 806 552
Width: 12
GlyphClass: 4
Flags: W
AnchorPoint: "Anchor-10" -245 -290 mark 0
AnchorPoint: "Anchor-9" -239 -210 basemark 0
AnchorPoint: "Anchor-6" -245 -290 mark 0
AnchorPoint: "Anchor-1" -245 -290 mark 0
LayerCount: 2
Fore
SplineSet
-297 -250 m 5,0,-1
 -348 -250 l 5,1,-1
 -204 -40 l 5,2,-1
 -145 -40 l 5,3,-1
 -297 -250 l 5,0,-1
EndSplineSet
EndChar

StartChar: uni0327
Encoding: 807 807 553
Width: 17
GlyphClass: 4
Flags: W
AnchorPoint: "Anchor-8" -259 0 mark 0
LayerCount: 2
Fore
SplineSet
-350 -198 m 1,1,-1
 -333 -158 l 1,2,3
 -296 -177 -296 -177 -247 -177 c 0,4,5
 -207 -177 -207 -177 -178.5 -164 c 128,-1,6
 -150 -151 -150 -151 -145 -121 c 0,7,8
 -140 -92 -140 -92 -163 -60.5 c 128,-1,9
 -186 -29 -186 -29 -234 0 c 1,10,-1
 -188 17 l 1,11,12
 -139 -16 -139 -16 -116.5 -52.5 c 128,-1,13
 -94 -89 -94 -89 -100 -127 c 0,14,15
 -106 -166 -106 -166 -142 -192.5 c 128,-1,16
 -178 -219 -178 -219 -251 -219 c 0,17,0
 -306 -219 -306 -219 -350 -198 c 1,1,-1
EndSplineSet
EndChar

StartChar: uni0328
Encoding: 808 808 554
Width: 17
GlyphClass: 4
Flags: W
AnchorPoint: "Anchor-5" -189 0 mark 0
AnchorPoint: "Anchor-2" -189 0 mark 0
LayerCount: 2
Fore
SplineSet
-317.5 -192.5 m 128,-1,1
 -345 -166 -345 -166 -339 -127 c 0,2,3
 -333 -89 -333 -89 -299 -52.5 c 128,-1,4
 -265 -16 -265 -16 -206 17 c 1,5,-1
 -165 0 l 1,6,7
 -222 -29 -222 -29 -254.5 -60.5 c 128,-1,8
 -287 -92 -287 -92 -292 -121 c 0,9,10
 -297 -151 -297 -151 -272.5 -164 c 128,-1,11
 -248 -177 -248 -177 -208 -177 c 0,12,13
 -159 -177 -159 -177 -116 -158 c 1,14,-1
 -111 -198 l 1,15,16
 -161 -219 -161 -219 -217 -219 c 0,17,0
 -290 -219 -290 -219 -317.5 -192.5 c 128,-1,1
EndSplineSet
EndChar

StartChar: uni0370
Encoding: 880 880 570
Width: 548
Flags: W
LayerCount: 2
Fore
SplineSet
525 417 m 1,0,-1
 519 375 l 1,1,-1
 143 375 l 1,2,-1
 84 0 l 1,3,-1
 35 0 l 1,4,-1
 151 730 l 1,5,-1
 200 730 l 1,6,-1
 150 417 l 1,7,-1
 525 417 l 1,0,-1
EndSplineSet
EndChar

StartChar: uni0371
Encoding: 881 881 571
Width: 411
Flags: W
LayerCount: 2
Fore
SplineSet
371 302 m 1,0,-1
 364 262 l 1,1,-1
 112 262 l 1,2,-1
 70 0 l 1,3,-1
 26 0 l 1,4,-1
 108 520 l 1,5,-1
 153 520 l 1,6,-1
 118 302 l 1,7,-1
 371 302 l 1,0,-1
EndSplineSet
EndChar

StartChar: uni0372
Encoding: 882 882 572
Width: 682
Flags: W
CounterMasks: 1 38
LayerCount: 2
Fore
SplineSet
380 686 m 1,0,-1
 173 686 l 1,1,-1
 124 377 l 1,2,-1
 77 377 l 1,3,-1
 133 730 l 1,4,-1
 691 730 l 1,5,-1
 635 377 l 1,6,-1
 588 377 l 1,7,-1
 637 686 l 1,8,-1
 429 686 l 1,9,-1
 321 0 l 1,10,-1
 272 0 l 1,11,-1
 380 686 l 1,0,-1
EndSplineSet
EndChar

StartChar: uni0373
Encoding: 883 883 573
Width: 544
Flags: W
CounterMasks: 1 38
LayerCount: 2
Fore
SplineSet
315 690 m 1,0,-1
 163 690 l 1,1,-1
 129 477 l 1,2,-1
 88 477 l 1,3,-1
 128 730 l 1,4,-1
 558 730 l 1,5,-1
 518 477 l 1,6,-1
 476 477 l 1,7,-1
 510 690 l 1,8,-1
 358 690 l 1,9,-1
 249 0 l 1,10,-1
 206 0 l 1,11,-1
 315 690 l 1,0,-1
EndSplineSet
EndChar

StartChar: uni0374
Encoding: 884 884 574
Width: 245
Flags: W
LayerCount: 2
Fore
SplineSet
106 537 m 1,0,-1
 219 770 l 1,1,-1
 279 770 l 1,2,-1
 154 537 l 1,3,-1
 106 537 l 1,0,-1
EndSplineSet
EndChar

StartChar: uni0375
Encoding: 885 885 575
Width: 245
Flags: W
LayerCount: 2
Fore
SplineSet
41 -110 m 1,0,-1
 -19 -110 l 1,1,-1
 106 123 l 1,2,-1
 153 123 l 1,3,-1
 41 -110 l 1,0,-1
EndSplineSet
EndChar

StartChar: uni0376
Encoding: 886 886 576
Width: 675
Flags: W
LayerCount: 2
Fore
SplineSet
551 0 m 1,0,-1
 503 0 l 1,1,-1
 606 654 l 1,2,-1
 604 654 l 1,3,-1
 91 0 l 1,4,-1
 35 0 l 1,5,-1
 151 730 l 1,6,-1
 199 730 l 1,7,-1
 95 76 l 1,8,-1
 97 76 l 1,9,-1
 610 730 l 1,10,-1
 666 730 l 1,11,-1
 551 0 l 1,0,-1
EndSplineSet
EndChar

StartChar: uni0377
Encoding: 887 887 577
Width: 560
Flags: W
LayerCount: 2
Fore
SplineSet
81 63 m 1,0,-1
 83 63 l 1,1,-1
 476 520 l 1,2,-1
 527 520 l 1,3,-1
 445 0 l 1,4,-1
 400 0 l 1,5,-1
 472 457 l 1,6,-1
 470 457 l 1,7,-1
 78 0 l 1,8,-1
 26 0 l 1,9,-1
 108 520 l 1,10,-1
 153 520 l 1,11,-1
 81 63 l 1,0,-1
EndSplineSet
EndChar

StartChar: uni037A
Encoding: 890 890 578
Width: 326
Flags: W
LayerCount: 2
Fore
SplineSet
64 -115 m 2,0,1
 53 -186 53 -186 61.5 -201.5 c 128,-1,2
 70 -217 70 -217 121 -217 c 0,3,4
 161 -217 161 -217 197 -203 c 1,5,-1
 200 -238 l 1,6,7
 156 -253 156 -253 110 -253 c 0,8,9
 36 -253 36 -253 19.5 -227 c 128,-1,10
 3 -201 3 -201 17 -115 c 2,11,-1
 26 -60 l 1,12,-1
 73 -60 l 1,13,-1
 64 -115 l 2,0,1
EndSplineSet
EndChar

StartChar: uni037B
Encoding: 891 891 579
Width: 484
Flags: W
LayerCount: 2
Fore
SplineSet
41 63 m 1,0,1
 96 30 96 30 161 30 c 0,2,3
 249 30 249 30 314 93 c 128,-1,4
 379 156 379 156 395 260 c 0,5,6
 412 368 412 368 369.5 428.5 c 128,-1,7
 327 489 327 489 234 489 c 0,8,9
 168 489 168 489 103 456 c 1,10,-1
 95 495 l 1,11,12
 167 530 167 530 242 530 c 0,13,14
 355 530 355 530 408 458 c 128,-1,15
 461 386 461 386 441 260 c 0,16,17
 422 138 422 138 343.5 64 c 128,-1,18
 265 -10 265 -10 157 -10 c 0,19,20
 82 -10 82 -10 21 25 c 1,21,-1
 41 63 l 1,0,1
EndSplineSet
EndChar

StartChar: uni037C
Encoding: 892 892 580
Width: 483
Flags: W
LayerCount: 2
Fore
SplineSet
265 203 m 1,0,-1
 283 317 l 1,1,-1
 327 317 l 1,2,-1
 309 203 l 1,3,-1
 265 203 l 1,0,-1
435 456 m 1,4,5
 380 489 380 489 315 489 c 0,6,7
 222 489 222 489 160 428.5 c 128,-1,8
 98 368 98 368 81 260 c 0,9,10
 65 156 65 156 109.5 93 c 128,-1,11
 154 30 154 30 242 30 c 0,12,13
 307 30 307 30 373 63 c 1,14,-1
 381 25 l 1,15,16
 309 -10 309 -10 234 -10 c 0,17,18
 126 -10 126 -10 71 64 c 128,-1,19
 16 138 16 138 35 260 c 0,20,21
 55 386 55 386 131 458 c 128,-1,22
 207 530 207 530 320 530 c 0,23,24
 395 530 395 530 455 495 c 1,25,-1
 435 456 l 1,4,5
EndSplineSet
EndChar

StartChar: uni037D
Encoding: 893 893 581
Width: 483
Flags: W
LayerCount: 2
Fore
SplineSet
149 203 m 1,0,-1
 167 317 l 1,1,-1
 211 317 l 1,2,-1
 193 203 l 1,3,-1
 149 203 l 1,0,-1
103 456 m 1,4,-1
 95 495 l 1,5,6
 167 530 167 530 242 530 c 0,7,8
 355 530 355 530 408 458 c 128,-1,9
 461 386 461 386 441 260 c 0,10,11
 422 138 422 138 343.5 64 c 128,-1,12
 265 -10 265 -10 156 -10 c 0,13,14
 81 -10 81 -10 21 25 c 1,15,-1
 41 63 l 1,16,17
 96 30 96 30 161 30 c 0,18,19
 249 30 249 30 313.5 93 c 128,-1,20
 378 156 378 156 395 260 c 0,21,22
 412 368 412 368 369.5 428.5 c 128,-1,23
 327 489 327 489 234 489 c 0,24,25
 168 489 168 489 103 456 c 1,4,-1
EndSplineSet
EndChar

StartChar: uni037E
Encoding: 894 894 582
Width: 331
Flags: W
LayerCount: 2
Fore
SplineSet
125 123 m 1,0,-1
 185 123 l 1,1,-1
 60 -110 l 1,2,-1
 13 -110 l 1,3,-1
 125 123 l 1,0,-1
157 383 m 1,4,-1
 177 513 l 1,5,-1
 232 513 l 1,6,-1
 212 383 l 1,7,-1
 157 383 l 1,4,-1
EndSplineSet
EndChar

StartChar: tonos
Encoding: 900 900 583
Width: 286
Flags: W
LayerCount: 2
Fore
SplineSet
164 590 m 1,0,-1
 115 590 l 1,1,-1
 255 753 l 1,2,-1
 317 753 l 1,3,-1
 164 590 l 1,0,-1
EndSplineSet
EndChar

StartChar: dieresistonos
Encoding: 901 901 584
Width: 393
Flags: W
LayerCount: 2
Fore
SplineSet
276 790 m 1,0,-1
 227 790 l 1,1,-1
 367 953 l 1,2,-1
 429 953 l 1,3,-1
 276 790 l 1,0,-1
319 610 m 1,4,-1
 338 733 l 1,5,-1
 383 733 l 1,6,-1
 364 610 l 1,7,-1
 319 610 l 1,4,-1
123 610 m 1,8,-1
 142 733 l 1,9,-1
 187 733 l 1,10,-1
 168 610 l 1,11,-1
 123 610 l 1,8,-1
EndSplineSet
EndChar

StartChar: Alphatonos
Encoding: 902 902 585
Width: 653
Flags: W
LayerCount: 2
Fore
SplineSet
386 686 m 1,0,-1
 384 686 l 1,1,-1
 172 273 l 1,2,-1
 468 273 l 1,3,-1
 386 686 l 1,0,-1
127 590 m 1,4,-1
 78 590 l 1,5,-1
 218 753 l 1,6,-1
 280 753 l 1,7,-1
 127 590 l 1,4,-1
477 231 m 1,8,-1
 150 231 l 1,9,-1
 31 0 l 1,10,-1
 -20 0 l 1,11,-1
 364 730 l 1,12,-1
 422 730 l 1,13,-1
 574 0 l 1,14,-1
 522 0 l 1,15,-1
 477 231 l 1,8,-1
EndSplineSet
EndChar

StartChar: anoteleia
Encoding: 903 903 586
Width: 233
Flags: W
LayerCount: 2
Fore
SplineSet
80 225 m 1,0,-1
 100 355 l 1,1,-1
 155 355 l 1,2,-1
 135 225 l 1,3,-1
 80 225 l 1,0,-1
EndSplineSet
EndChar

StartChar: Epsilontonos
Encoding: 904 904 587
Width: 718
Flags: W
LayerCount: 2
Fore
SplineSet
356 687 m 1,0,-1
 313 417 l 1,1,-1
 649 417 l 1,2,-1
 643 375 l 1,3,-1
 306 375 l 1,4,-1
 254 43 l 1,5,-1
 610 43 l 1,6,-1
 603 0 l 1,7,-1
 198 0 l 1,8,-1
 314 730 l 1,9,-1
 718 730 l 1,10,-1
 712 687 l 1,11,-1
 356 687 l 1,0,-1
123 590 m 1,12,-1
 74 590 l 1,13,-1
 214 753 l 1,14,-1
 276 753 l 1,15,-1
 123 590 l 1,12,-1
EndSplineSet
EndChar

StartChar: Etatonos
Encoding: 905 905 588
Width: 831
Flags: W
LayerCount: 2
Fore
SplineSet
362 730 m 1,0,-1
 312 417 l 1,1,-1
 724 417 l 1,2,-1
 773 730 l 1,3,-1
 822 730 l 1,4,-1
 707 0 l 1,5,-1
 658 0 l 1,6,-1
 717 375 l 1,7,-1
 305 375 l 1,8,-1
 246 0 l 1,9,-1
 197 0 l 1,10,-1
 313 730 l 1,11,-1
 362 730 l 1,0,-1
123 590 m 1,12,-1
 74 590 l 1,13,-1
 214 753 l 1,14,-1
 276 753 l 1,15,-1
 123 590 l 1,12,-1
EndSplineSet
EndChar

StartChar: Iotatonos
Encoding: 906 906 589
Width: 429
Flags: W
LayerCount: 2
Fore
SplineSet
221 0 m 1,0,-1
 336 730 l 1,1,-1
 388 730 l 1,2,-1
 273 0 l 1,3,-1
 221 0 l 1,0,-1
146 590 m 1,4,-1
 97 590 l 1,5,-1
 236 753 l 1,6,-1
 299 753 l 1,7,-1
 146 590 l 1,4,-1
EndSplineSet
EndChar

StartChar: Omicrontonos
Encoding: 908 908 590
Width: 882
Flags: W
LayerCount: 2
Fore
SplineSet
563.5 697 m 128,-1,1
 430 697 430 697 333.5 606 c 128,-1,2
 237 515 237 515 213.5 365 c 128,-1,3
 190 215 190 215 257.5 124 c 128,-1,4
 325 33 325 33 458 33 c 128,-1,5
 591 33 591 33 687.5 124 c 128,-1,6
 784 215 784 215 807.5 365 c 128,-1,7
 831 515 831 515 764 606 c 128,-1,0
 697 697 697 697 563.5 697 c 128,-1,1
123 590 m 1,8,-1
 74 590 l 1,9,-1
 214 753 l 1,10,-1
 276 753 l 1,11,-1
 123 590 l 1,8,-1
451 -10 m 128,-1,13
 295 -10 295 -10 216.5 93 c 128,-1,14
 138 196 138 196 164.5 365 c 128,-1,15
 191 534 191 534 302.5 637 c 128,-1,16
 414 740 414 740 570 740 c 128,-1,17
 726 740 726 740 804.5 637 c 128,-1,18
 883 534 883 534 856.5 365 c 128,-1,19
 830 196 830 196 718.5 93 c 128,-1,12
 607 -10 607 -10 451 -10 c 128,-1,13
EndSplineSet
EndChar

StartChar: Upsilontonos
Encoding: 910 910 591
Width: 840
Flags: W
LayerCount: 2
Fore
SplineSet
361 730 m 1,0,-1
 533 362 l 1,1,-1
 535 362 l 1,2,-1
 824 730 l 1,3,-1
 881 730 l 1,4,-1
 551 318 l 1,5,-1
 501 0 l 1,6,-1
 451 0 l 1,7,-1
 501 318 l 1,8,-1
 303 730 l 1,9,-1
 361 730 l 1,0,-1
123 590 m 1,10,-1
 74 590 l 1,11,-1
 214 753 l 1,12,-1
 276 753 l 1,13,-1
 123 590 l 1,10,-1
EndSplineSet
EndChar

StartChar: Omegatonos
Encoding: 911 911 592
Width: 911
Flags: W
LayerCount: 2
Fore
SplineSet
570 740 m 128,-1,1
 724 740 724 740 804 639.5 c 128,-1,2
 884 539 884 539 859 380 c 0,3,4
 840 263 840 263 779 177 c 128,-1,5
 718 91 718 91 624 45 c 1,6,-1
 623 42 l 1,7,-1
 820 42 l 1,8,-1
 813 0 l 1,9,-1
 513 0 l 1,10,-1
 519 42 l 1,11,12
 630 65 630 65 709 154 c 128,-1,13
 788 243 788 243 809 373 c 0,14,15
 832 517 832 517 764 607 c 128,-1,16
 696 697 696 697 563.5 697 c 128,-1,17
 431 697 431 697 334.5 607 c 128,-1,18
 238 517 238 517 215 373 c 0,19,20
 194 243 194 243 245 154 c 128,-1,21
 296 65 296 65 400 42 c 1,22,-1
 393 0 l 1,23,-1
 92 0 l 1,24,-1
 99 42 l 1,25,-1
 296 42 l 1,26,-1
 296 45 l 1,27,28
 216 91 216 91 182.5 177 c 128,-1,29
 149 263 149 263 167 380 c 0,30,31
 192 539 192 539 304 639.5 c 128,-1,0
 416 740 416 740 570 740 c 128,-1,1
123 590 m 1,32,-1
 74 590 l 1,33,-1
 214 753 l 1,34,-1
 276 753 l 1,35,-1
 123 590 l 1,32,-1
EndSplineSet
EndChar

StartChar: iotadieresistonos
Encoding: 912 912 593
Width: 430
Flags: W
CounterMasks: 1 1c
LayerCount: 2
Fore
SplineSet
238 520 m 1,0,-1
 180 153 l 2,1,2
 168 78 168 78 184.5 54 c 128,-1,3
 201 30 201 30 257 30 c 0,4,5
 302 30 302 30 340 45 c 1,6,-1
 343 7 l 1,7,8
 295 -10 295 -10 246 -10 c 0,9,10
 169 -10 169 -10 144.5 24.5 c 128,-1,11
 120 59 120 59 134 147 c 2,12,-1
 193 520 l 1,13,-1
 238 520 l 1,0,-1
303 610 m 1,14,-1
 322 733 l 1,15,-1
 365 733 l 1,16,-1
 346 610 l 1,17,-1
 303 610 l 1,14,-1
113 610 m 1,18,-1
 133 733 l 1,19,-1
 176 733 l 1,20,-1
 157 610 l 1,21,-1
 113 610 l 1,18,-1
280 790 m 1,22,-1
 233 790 l 1,23,-1
 369 953 l 1,24,-1
 429 953 l 1,25,-1
 280 790 l 1,22,-1
EndSplineSet
EndChar

StartChar: Alpha
Encoding: 913 913 594
Width: 663
Flags: W
LayerCount: 2
Fore
SplineSet
-10 0 m 1,0,-1
 373 730 l 1,1,-1
 432 730 l 1,2,-1
 583 0 l 1,3,-1
 532 0 l 1,4,-1
 486 231 l 1,5,-1
 159 231 l 1,6,-1
 41 0 l 1,7,-1
 -10 0 l 1,0,-1
181 273 m 1,8,-1
 477 273 l 1,9,-1
 395 686 l 1,10,-1
 393 686 l 1,11,-1
 181 273 l 1,8,-1
EndSplineSet
EndChar

StartChar: Gamma
Encoding: 915 915 596
Width: 528
Flags: W
LayerCount: 2
Fore
SplineSet
195 685 m 1,0,-1
 86 0 l 1,1,-1
 35 0 l 1,2,-1
 151 730 l 1,3,-1
 547 730 l 1,4,-1
 539 685 l 1,5,-1
 195 685 l 1,0,-1
EndSplineSet
EndChar

StartChar: uni0394
Encoding: 916 916 597
Width: 663
Flags: W
LayerCount: 2
Fore
SplineSet
395 686 m 1,0,-1
 393 686 l 1,1,-1
 62 43 l 1,2,-1
 523 43 l 1,3,-1
 395 686 l 1,0,-1
532 0 m 1,4,-1
 41 0 l 1,5,-1
 25 0 l 1,6,-1
 -10 0 l 1,7,-1
 373 730 l 1,8,-1
 432 730 l 1,9,-1
 583 0 l 1,10,-1
 548 0 l 1,11,-1
 532 0 l 1,4,-1
EndSplineSet
EndChar

StartChar: Epsilon
Encoding: 917 917 598
Width: 555
Flags: W
LayerCount: 2
Fore
SplineSet
193 687 m 1,0,-1
 150 417 l 1,1,-1
 486 417 l 1,2,-1
 480 375 l 1,3,-1
 143 375 l 1,4,-1
 91 43 l 1,5,-1
 447 43 l 1,6,-1
 440 0 l 1,7,-1
 35 0 l 1,8,-1
 151 730 l 1,9,-1
 555 730 l 1,10,-1
 549 687 l 1,11,-1
 193 687 l 1,0,-1
EndSplineSet
EndChar

StartChar: Zeta
Encoding: 918 918 599
Width: 606
Flags: W
LayerCount: 2
Fore
SplineSet
135 687 m 1,0,-1
 142 730 l 1,1,-1
 606 730 l 1,2,-1
 599 687 l 1,3,-1
 92 45 l 1,4,-1
 92 43 l 1,5,-1
 497 43 l 1,6,-1
 491 0 l 1,7,-1
 26 0 l 1,8,-1
 33 43 l 1,9,-1
 540 685 l 1,10,-1
 541 687 l 1,11,-1
 135 687 l 1,0,-1
EndSplineSet
EndChar

StartChar: Eta
Encoding: 919 919 600
Width: 669
Flags: W
LayerCount: 2
Fore
SplineSet
200 730 m 1,0,-1
 150 417 l 1,1,-1
 562 417 l 1,2,-1
 611 730 l 1,3,-1
 660 730 l 1,4,-1
 545 0 l 1,5,-1
 496 0 l 1,6,-1
 555 375 l 1,7,-1
 143 375 l 1,8,-1
 84 0 l 1,9,-1
 35 0 l 1,10,-1
 151 730 l 1,11,-1
 200 730 l 1,0,-1
EndSplineSet
EndChar

StartChar: Theta
Encoding: 920 920 601
Width: 770
Flags: W
CounterMasks: 1 e0
LayerCount: 2
Fore
SplineSet
195 343 m 1,0,-1
 202 387 l 1,1,-1
 600 387 l 1,2,-1
 593 343 l 1,3,-1
 195 343 l 1,0,-1
52 365 m 128,-1,5
 79 534 79 534 190 637 c 128,-1,6
 301 740 301 740 457 740 c 128,-1,7
 613 740 613 740 692 637 c 128,-1,8
 771 534 771 534 744 365 c 128,-1,9
 717 196 717 196 605.5 93 c 128,-1,10
 494 -10 494 -10 338.5 -10 c 128,-1,11
 183 -10 183 -10 104 93 c 128,-1,4
 25 196 25 196 52 365 c 128,-1,5
345.5 33 m 128,-1,13
 479 33 479 33 575 124 c 128,-1,14
 671 215 671 215 695 365 c 128,-1,15
 719 515 719 515 651.5 606 c 128,-1,16
 584 697 584 697 450.5 697 c 128,-1,17
 317 697 317 697 221 606 c 128,-1,18
 125 515 125 515 101 365 c 128,-1,19
 77 215 77 215 144.5 124 c 128,-1,12
 212 33 212 33 345.5 33 c 128,-1,13
EndSplineSet
EndChar

StartChar: Iota
Encoding: 921 921 602
Width: 276
Flags: W
LayerCount: 2
Fore
SplineSet
67 0 m 1,0,-1
 183 730 l 1,1,-1
 235 730 l 1,2,-1
 120 0 l 1,3,-1
 67 0 l 1,0,-1
EndSplineSet
EndChar

StartChar: Kappa
Encoding: 922 922 603
Width: 591
Flags: W
LayerCount: 2
Fore
SplineSet
143 361 m 1,0,-1
 141 361 l 1,1,-1
 84 0 l 1,2,-1
 35 0 l 1,3,-1
 151 730 l 1,4,-1
 200 730 l 1,5,-1
 147 399 l 1,6,-1
 149 399 l 1,7,-1
 555 730 l 1,8,-1
 618 730 l 1,9,-1
 186 380 l 1,10,-1
 512 0 l 1,11,-1
 450 0 l 1,12,-1
 143 361 l 1,0,-1
EndSplineSet
EndChar

StartChar: Lambda
Encoding: 923 923 604
Width: 663
Flags: W
LayerCount: 2
Fore
SplineSet
583 0 m 1,0,-1
 532 0 l 1,1,-1
 395 686 l 1,2,-1
 393 686 l 1,3,-1
 41 0 l 1,4,-1
 -10 0 l 1,5,-1
 373 730 l 1,6,-1
 432 730 l 1,7,-1
 583 0 l 1,0,-1
EndSplineSet
EndChar

StartChar: Mu
Encoding: 924 924 605
Width: 820
Flags: W
LayerCount: 2
Fore
SplineSet
647 0 m 1,0,-1
 750 652 l 1,1,-1
 748 652 l 1,2,-1
 426 233 l 1,3,-1
 378 233 l 1,4,-1
 188 652 l 1,5,-1
 186 652 l 1,6,-1
 83 0 l 1,7,-1
 35 0 l 1,8,-1
 151 730 l 1,9,-1
 207 730 l 1,10,-1
 408 280 l 1,11,-1
 410 280 l 1,12,-1
 754 730 l 1,13,-1
 811 730 l 1,14,-1
 696 0 l 1,15,-1
 647 0 l 1,0,-1
EndSplineSet
EndChar

StartChar: Nu
Encoding: 925 925 606
Width: 675
Flags: W
LayerCount: 2
Fore
SplineSet
35 0 m 1,0,-1
 151 730 l 1,1,-1
 207 730 l 1,2,-1
 513 76 l 1,3,-1
 515 76 l 1,4,-1
 618 730 l 1,5,-1
 666 730 l 1,6,-1
 551 0 l 1,7,-1
 495 0 l 1,8,-1
 189 654 l 1,9,-1
 187 654 l 1,10,-1
 83 0 l 1,11,-1
 35 0 l 1,0,-1
EndSplineSet
EndChar

StartChar: Xi
Encoding: 926 926 607
Width: 577
Flags: W
LayerCount: 2
Fore
SplineSet
26 0 m 1,0,-1
 33 43 l 1,1,-1
 468 43 l 1,2,-1
 461 0 l 1,3,-1
 26 0 l 1,0,-1
105 375 m 1,4,-1
 112 417 l 1,5,-1
 508 417 l 1,6,-1
 501 375 l 1,7,-1
 105 375 l 1,4,-1
135 687 m 1,8,-1
 142 730 l 1,9,-1
 577 730 l 1,10,-1
 570 687 l 1,11,-1
 135 687 l 1,8,-1
EndSplineSet
EndChar

StartChar: Pi
Encoding: 928 928 609
Width: 669
Flags: W
LayerCount: 2
Fore
SplineSet
151 730 m 1,0,-1
 660 730 l 1,1,-1
 545 0 l 1,2,-1
 496 0 l 1,3,-1
 604 687 l 1,4,-1
 193 687 l 1,5,-1
 84 0 l 1,6,-1
 35 0 l 1,7,-1
 151 730 l 1,0,-1
EndSplineSet
EndChar

StartChar: Sigma
Encoding: 931 931 611
Width: 537
Flags: W
LayerCount: 2
Fore
SplineSet
186 687 m 1,0,-1
 360 384 l 1,1,-1
 83 43 l 1,2,-1
 433 43 l 1,3,-1
 426 0 l 1,4,-1
 21 0 l 1,5,-1
 28 43 l 1,6,-1
 305 383 l 1,7,-1
 130 687 l 1,8,-1
 137 730 l 1,9,-1
 542 730 l 1,10,-1
 535 687 l 1,11,-1
 186 687 l 1,0,-1
EndSplineSet
EndChar

StartChar: Tau
Encoding: 932 932 612
Width: 630
Flags: W
LayerCount: 2
Fore
SplineSet
128 730 m 1,0,-1
 643 730 l 1,1,-1
 636 686 l 1,2,-1
 403 686 l 1,3,-1
 295 0 l 1,4,-1
 246 0 l 1,5,-1
 354 686 l 1,6,-1
 121 686 l 1,7,-1
 128 730 l 1,0,-1
EndSplineSet
EndChar

StartChar: Upsilon
Encoding: 933 933 613
Width: 638
Flags: W
LayerCount: 2
Fore
SplineSet
158 730 m 1,0,-1
 331 362 l 1,1,-1
 333 362 l 1,2,-1
 622 730 l 1,3,-1
 679 730 l 1,4,-1
 350 318 l 1,5,-1
 300 0 l 1,6,-1
 249 0 l 1,7,-1
 299 318 l 1,8,-1
 101 730 l 1,9,-1
 158 730 l 1,0,-1
EndSplineSet
EndChar

StartChar: Phi
Encoding: 934 934 614
Width: 696
Flags: W
CounterMasks: 1 0e
LayerCount: 2
Fore
SplineSet
350 142 m 1,0,1
 463 148 463 148 537 209 c 128,-1,2
 611 270 611 270 626.5 370 c 128,-1,3
 642 470 642 470 587.5 531 c 128,-1,4
 533 592 533 592 422 598 c 1,5,-1
 350 142 l 1,0,1
429 641 m 1,6,7
 561 634 561 634 627.5 561 c 128,-1,8
 694 488 694 488 675.5 370 c 128,-1,9
 657 252 657 252 567.5 179 c 128,-1,10
 478 106 478 106 343 99 c 1,11,-1
 328 0 l 1,12,-1
 279 0 l 1,13,-1
 294 99 l 1,14,15
 162 106 162 106 95.5 179 c 128,-1,16
 29 252 29 252 48 370 c 128,-1,17
 67 488 67 488 156.5 561 c 128,-1,18
 246 634 246 634 380 641 c 1,19,-1
 394 730 l 1,20,-1
 443 730 l 1,21,-1
 429 641 l 1,6,7
373 598 m 1,22,23
 260 592 260 592 186.5 531 c 128,-1,24
 113 470 113 470 97 370 c 128,-1,25
 81 270 81 270 135.5 209 c 128,-1,26
 190 148 190 148 301 142 c 1,27,-1
 373 598 l 1,22,23
EndSplineSet
EndChar

StartChar: Chi
Encoding: 935 935 615
Width: 616
Flags: W
LayerCount: 2
Fore
SplineSet
316 332 m 1,0,-1
 314 332 l 1,1,-1
 56 0 l 1,2,-1
 -1 0 l 1,3,-1
 291 369 l 1,4,-1
 119 730 l 1,5,-1
 176 730 l 1,6,-1
 328 406 l 1,7,-1
 330 406 l 1,8,-1
 583 730 l 1,9,-1
 639 730 l 1,10,-1
 352 369 l 1,11,-1
 528 0 l 1,12,-1
 470 0 l 1,13,-1
 316 332 l 1,0,-1
EndSplineSet
EndChar

StartChar: Psi
Encoding: 936 936 616
Width: 756
Flags: W
CounterMasks: 1 1c
LayerCount: 2
Fore
SplineSet
390 207 m 1,0,1
 508 213 508 213 579 275 c 128,-1,2
 650 337 650 337 668 449 c 2,3,-1
 712 730 l 1,4,-1
 760 730 l 1,5,-1
 716 452 l 2,6,7
 695 317 695 317 610.5 243.5 c 128,-1,8
 526 170 526 170 384 164 c 1,9,-1
 358 0 l 1,10,-1
 309 0 l 1,11,-1
 335 164 l 1,12,13
 195 170 195 170 133.5 243.5 c 128,-1,14
 72 317 72 317 93 452 c 2,15,-1
 137 730 l 1,16,-1
 185 730 l 1,17,-1
 141 449 l 2,18,19
 123 337 123 337 174.5 275 c 128,-1,20
 226 213 226 213 341 207 c 1,21,-1
 424 730 l 1,22,-1
 473 730 l 1,23,-1
 390 207 l 1,0,1
EndSplineSet
EndChar

StartChar: uni03A9
Encoding: 937 937 617
Width: 826
Flags: W
LayerCount: 2
Fore
SplineSet
485.5 740 m 128,-1,1
 639 740 639 740 719.5 639.5 c 128,-1,2
 800 539 800 539 775 380 c 0,3,4
 738 148 738 148 554 45 c 1,5,-1
 553 42 l 1,6,-1
 736 42 l 1,7,-1
 729 0 l 1,8,-1
 428 0 l 1,9,-1
 435 42 l 1,10,11
 546 65 546 65 625 154 c 128,-1,12
 704 243 704 243 724 373 c 0,13,14
 747 517 747 517 679 607 c 128,-1,15
 611 697 611 697 479 697 c 128,-1,16
 347 697 347 697 250 607 c 128,-1,17
 153 517 153 517 131 373 c 0,18,19
 110 243 110 243 160.5 154 c 128,-1,20
 211 65 211 65 315 42 c 1,21,-1
 309 0 l 1,22,-1
 8 0 l 1,23,-1
 14 42 l 1,24,-1
 197 42 l 1,25,-1
 197 45 l 1,26,27
 46 148 46 148 83 380 c 0,28,29
 108 539 108 539 220 639.5 c 128,-1,0
 332 740 332 740 485.5 740 c 128,-1,1
EndSplineSet
EndChar

StartChar: Iotadieresis
Encoding: 938 938 618
Width: 288
Flags: W
CounterMasks: 1 1c
LayerCount: 2
Fore
SplineSet
303 810 m 1,0,-1
 322 933 l 1,1,-1
 368 933 l 1,2,-1
 348 810 l 1,3,-1
 303 810 l 1,0,-1
107 810 m 1,4,-1
 126 933 l 1,5,-1
 172 933 l 1,6,-1
 152 810 l 1,7,-1
 107 810 l 1,4,-1
73 0 m 1,8,-1
 188 730 l 1,9,-1
 241 730 l 1,10,-1
 126 0 l 1,11,-1
 73 0 l 1,8,-1
EndSplineSet
EndChar

StartChar: Upsilondieresis
Encoding: 939 939 619
Width: 638
Flags: W
CounterMasks: 1 1c
LayerCount: 2
Fore
SplineSet
478 810 m 1,0,-1
 497 933 l 1,1,-1
 542 933 l 1,2,-1
 523 810 l 1,3,-1
 478 810 l 1,0,-1
282 810 m 1,4,-1
 301 933 l 1,5,-1
 346 933 l 1,6,-1
 327 810 l 1,7,-1
 282 810 l 1,4,-1
158 730 m 1,8,-1
 331 362 l 1,9,-1
 333 362 l 1,10,-1
 622 730 l 1,11,-1
 679 730 l 1,12,-1
 350 318 l 1,13,-1
 300 0 l 1,14,-1
 249 0 l 1,15,-1
 299 318 l 1,16,-1
 101 730 l 1,17,-1
 158 730 l 1,8,-1
EndSplineSet
EndChar

StartChar: alphatonos
Encoding: 940 940 620
Width: 585
Flags: W
LayerCount: 2
Fore
SplineSet
332 590 m 1,0,-1
 285 590 l 1,1,-1
 421 753 l 1,2,-1
 481 753 l 1,3,-1
 332 590 l 1,0,-1
444 246 m 1,4,5
 468 137 468 137 493 0 c 1,6,-1
 447 0 l 1,7,8
 430 103 430 103 412 191 c 1,9,10
 292 -10 292 -10 173 -10 c 0,11,12
 95 -10 95 -10 57.5 61.5 c 128,-1,13
 20 133 20 133 40 260 c 128,-1,14
 60 387 60 387 120 458.5 c 128,-1,15
 180 530 180 530 258 530 c 0,16,17
 319 530 319 530 356 485.5 c 128,-1,18
 393 441 393 441 430 302 c 1,19,20
 478 401 478 401 522 520 c 1,21,-1
 566 520 l 1,22,23
 505 361 505 361 444 246 c 1,4,5
401 245 m 1,24,25
 377 347 377 347 353 402 c 128,-1,26
 329 457 329 457 307 473.5 c 128,-1,27
 285 490 285 490 252 490 c 0,28,29
 192 490 192 490 146.5 429 c 128,-1,30
 101 368 101 368 84 260 c 0,31,32
 67 153 67 153 94.5 91.5 c 128,-1,33
 122 30 122 30 182 30 c 0,34,35
 286 30 286 30 401 245 c 1,24,25
EndSplineSet
EndChar

StartChar: epsilontonos
Encoding: 941 941 621
Width: 484
Flags: W
LayerCount: 2
Fore
SplineSet
181 281 m 1,0,-1
 182 283 l 1,1,2
 120 297 120 297 92.5 330 c 128,-1,3
 65 363 65 363 71 403 c 0,4,5
 80 461 80 461 141.5 495.5 c 128,-1,6
 203 530 203 530 302 530 c 0,7,8
 388 530 388 530 469 493 c 1,9,-1
 450 457 l 1,10,11
 379 491 379 491 298.5 491 c 128,-1,12
 218 491 218 491 170.5 466 c 128,-1,13
 123 441 123 441 116 398 c 0,14,15
 109 352 109 352 159.5 326.5 c 128,-1,16
 210 301 210 301 313 301 c 2,17,-1
 357 301 l 1,18,-1
 351 262 l 1,19,-1
 307 262 l 2,20,21
 87 262 87 262 68 144 c 0,22,23
 59 89 59 89 99 59.5 c 128,-1,24
 139 30 139 30 224 30 c 0,25,26
 303 30 303 30 394 64 c 1,27,-1
 400 26 l 1,28,29
 308 -10 308 -10 216 -10 c 0,30,31
 111 -10 111 -10 60.5 30 c 128,-1,32
 10 70 10 70 21 140 c 0,33,34
 28 187 28 187 66.5 226.5 c 128,-1,35
 105 266 105 266 181 281 c 1,0,-1
279 590 m 1,36,-1
 231 590 l 1,37,-1
 367 753 l 1,38,-1
 428 753 l 1,39,-1
 279 590 l 1,36,-1
EndSplineSet
EndChar

